<?xml version="1.0" standalone="no"?>
<!DOCTYPE svg PUBLIC "-//W3C//DTD SVG 1.1//EN" "http://www.w3.org/Graphics/SVG/1.1/DTD/svg11.dtd" >
<svg>
<metadata>
Created by FontForge 20090914 at Fri Feb 24 04:47:31 2012
 By root
Copyright (c) 2008 by The Fontry &#38; JLS. All rights reserved.
</metadata>
<defs>
<font id="CopperPennyDTPNormal" horiz-adv-x="709" >
  <font-face 
    font-family="Copper Penny DTP"
    font-weight="400"
    font-stretch="normal"
    units-per-em="1000"
    panose-1="2 0 5 5 2 0 0 2 0 4"
    ascent="800"
    descent="-200"
    x-height="527"
    cap-height="724"
    bbox="-161 -262 1603 1008"
    underline-thickness="20"
    underline-position="-113"
    unicode-range="U+0020-U+2212"
  />
<missing-glyph horiz-adv-x="280" 
 />
    <glyph glyph-name=".notdef" horiz-adv-x="280" 
 />
    <glyph glyph-name=".null" horiz-adv-x="0" 
 />
    <glyph glyph-name="nonmarkingreturn" horiz-adv-x="289" 
 />
    <glyph glyph-name="space" unicode=" " horiz-adv-x="289" 
 />
    <glyph glyph-name="space" unicode="&#xa0;" horiz-adv-x="289" 
 />
    <glyph glyph-name="dotlessi" unicode="&#x131;" horiz-adv-x="296" 
d="M224 527v-462q0 -20 6.5 -27.5t25.5 -12.5v-25h-210v25q19 5 25.5 12t6.5 27v398q0 20 -6 27.5t-26 12.5v25h178z" />
    <glyph glyph-name="exclam" unicode="!" horiz-adv-x="293" 
d="M263 700q-20 -2 -25.5 -12.5t-6.5 -29.5l-24 -385q-1 -18 5.5 -33t29.5 -15v-24h-180v24q23 0 29 15t4 33l-22 385q-1 20 -8 30t-27 12v24h225v-24zM58 69q0 19 7 36t19.5 29.5t29.5 19.5t36 7t36 -7t30 -19.5t20 -29.5t7 -36q0 -39 -27 -66t-66 -27q-19 0 -36 7
t-29.5 20t-19.5 29.5t-7 36.5z" />
    <glyph glyph-name="quotedbl" unicode="&#x22;" horiz-adv-x="510" 
d="M235 700q-20 -2 -25 -12.5t-7 -29.5l-14 -176h-92l-12 176q-2 20 -8.5 30t-26.5 12v24h185v-24zM460 700q-20 -2 -25 -12.5t-7 -29.5l-14 -176h-92l-12 176q-2 20 -8.5 30t-26.5 12v24h185v-24z" />
    <glyph glyph-name="numbersign" unicode="#" horiz-adv-x="779" 
d="M469 421h-140l-19 -114h137zM739 529l-20 -109h-146l-19 -113h154l-18 -109h-152l-34 -196h-107l35 198h-137l-36 -198h-105l34 196h-149l16 109h148l21 113h-156l18 109h156l32 197h105l-33 -197h138l34 197h104l-32 -197h149z" />
    <glyph glyph-name="dollar" unicode="$" horiz-adv-x="620" 
d="M461 248q0 45 -107 57v-128q18 2 37 7t34.5 13.5t25.5 21t10 29.5zM256 435v117q-16 -3 -33 -7.5t-30.5 -12.5t-22.5 -19.5t-9 -27.5q0 -11 8 -19t21 -14t30 -10t36 -7zM586 260q0 -45 -21.5 -77t-55 -54t-74.5 -34.5t-81 -16.5v-29q0 -15 6 -20t21 -10v-19h-151v19
q15 5 20.5 10t5.5 20v29q-86 9 -169 48q-11 5 -20.5 5.5t-17.5 -9.5l-22 10l59 129l22 -6q-7 -17 8 -29q24 -18 63 -30t77 -18v132q-45 3 -88.5 13t-75.5 36q-25 19 -37.5 50t-12.5 64q0 75 58.5 119t155.5 54v28q0 16 -5.5 22.5t-20.5 8.5v19h151v-19q-15 -2 -21 -9t-6 -22
v-29q37 -6 76 -17.5t80 -29.5q20 -9 31 -10.5t24 8.5l16 -9l-66 -128l-23 8q-1 9 -2.5 15.5t-8.5 13.5q-22 21 -57 34t-70 20v-122q14 -1 26 -3q100 -13 153 -54.5t53 -110.5z" />
    <glyph glyph-name="ampersand" unicode="&#x26;" horiz-adv-x="876" 
d="M539 171q-20 35 -44.5 64.5t-67.5 40.5l-90.5 25.5t-79.5 25.5q-38 -4 -61 -35t-17 -81q4 -35 24 -56t48 -32.5t60.5 -15.5t62.5 -4q53 0 94 18.5t71 49.5zM847 -24h-26q-4 19 -11.5 21.5t-26.5 3.5h-23q-56 0 -91.5 16.5t-59.5 42.5q-45 -34 -103.5 -55.5t-133.5 -21.5
q-53 0 -107.5 8.5t-101 31.5t-79 63.5t-41.5 103.5q-5 33 1 65t20.5 59.5t35.5 50t48 36.5q-25 23 -38.5 57t-13.5 81q0 46 23 81t60.5 58t84.5 35t94 12q12 0 20.5 -0.5t16 1t13 6.5t11.5 16h25v-193h-25q-8 20 -21 31t-35 11q-65 0 -91.5 -21.5t-26.5 -50.5q0 -26 14 -41
t38 -24.5t55.5 -16t65.5 -15t69 -21t67 -34.5q18 -13 32.5 -29.5t26.5 -34.5q8 27 12.5 55.5t3.5 57.5v33q0 20 -8 27t-28 12v26h200v-26q-20 -4 -27.5 -11.5t-7.5 -27.5v-33q-1 -70 -15 -135.5t-44 -120.5q13 -16 28.5 -25.5t35.5 -9.5h23q18 1 24 8.5t11 25.5h26v-189z
" />
    <glyph glyph-name="quotesingle" unicode="'" horiz-adv-x="285" 
d="M235 700q-20 -2 -25 -12.5t-7 -29.5l-14 -176h-92l-12 176q-2 20 -8.5 30t-26.5 12v24h185v-24z" />
    <glyph glyph-name="parenleft" unicode="(" horiz-adv-x="384" 
d="M458 -163q-80 18 -156.5 64t-137 114.5t-97.5 156t-37 187.5t37 187.5t97.5 156t137 114.5t156.5 64v-89q-50 -19 -95.5 -52t-80.5 -84.5t-56 -124.5t-21 -172t21 -172t56 -125t80.5 -84.5t95.5 -51.5v-89z" />
    <glyph glyph-name="parenright" unicode=")" horiz-adv-x="384" 
d="M354 359q0 -100 -37 -187.5t-97.5 -156t-137.5 -114.5t-156 -64v89q49 19 95 51.5t81 84.5t56 125t21 172t-21 172t-56 124.5t-81 84.5t-95 52v89q79 -18 156 -64t137.5 -114.5t97.5 -156t37 -187.5z" />
    <glyph glyph-name="asterisk" unicode="*" horiz-adv-x="505" 
d="M455 521l-68 -104l-100 96l34 -138h-136l34 138l-100 -96l-68 104l138 36v10l-138 36l68 104l100 -96l-34 148h136l-33 -148l99 96l68 -104l-140 -36v-10z" />
    <glyph glyph-name="plus" unicode="+" horiz-adv-x="610" 
d="M570 268h-25q-5 23 -15.5 31t-34.5 8h-133v-149q0 -26 8.5 -34.5t31.5 -15.5v-24h-196v25q23 6 31.5 15t8.5 34v149h-133q-26 0 -34.5 -8t-14.5 -31h-24v183h25q5 -23 14 -31.5t34 -8.5h133v149q0 25 -7.5 34.5t-32.5 14.5v26h196v-26q-23 -5 -31.5 -14.5t-8.5 -34.5
v-149h133q24 0 34.5 7.5t15.5 32.5h25v-183z" />
    <glyph glyph-name="comma" unicode="," horiz-adv-x="264" 
d="M227 95q6 -32 -8 -66t-38 -64.5t-52.5 -55t-51.5 -39.5l-29 32q35 24 55 64q5 9 1 17t-10 11q-19 11 -32.5 28t-18.5 40q-3 19 1 36.5t14.5 32.5t25.5 25t34 14q19 3 37 -1t33 -14.5t25 -25.5t14 -34z" />
    <glyph glyph-name="hyphen" unicode="-" horiz-adv-x="473" 
d="M423 184h-24q-5 18 -11.5 22t-26.5 4h-248q-21 0 -27 -4t-11 -22h-25v168h25q5 -18 11 -22t26 -4h248q10 0 16.5 0.5t10.5 3t6.5 8t4.5 14.5h25v-168z" />
    <glyph glyph-name="period" unicode="." horiz-adv-x="266" 
d="M226 69q0 -20 -7.5 -36.5t-20 -29.5t-29.5 -20t-36 -7t-36 7t-29.5 20t-20 29.5t-7.5 36.5q0 19 7.5 36t20 29.5t29.5 20t36 7.5t36 -7.5t29.5 -20t20 -29.5t7.5 -36z" />
    <glyph glyph-name="slash" unicode="/" horiz-adv-x="511" 
d="M511 764l-26 -23q-11 -10 -20.5 -21.5t-13.5 -21.5l-247 -668q-8 -23 -7 -37.5t19 -14.5l-7 -20h-209l28 27q11 11 21.5 23.5t13.5 21.5l250 668q7 19 6 31.5t-20 14.5l7 20h205z" />
    <glyph glyph-name="zero" unicode="0" horiz-adv-x="838" 
d="M642 365q0 47 -15.5 95.5t-44.5 88.5t-70.5 65t-93.5 25q-51 0 -92 -25.5t-70 -65t-44.5 -88.5t-15.5 -95q0 -47 15.5 -95t44.5 -88t70 -65t92 -25q52 0 93.5 25t70.5 64.5t44.5 88t15.5 95.5zM798 362q0 -83 -28 -154t-78.5 -122.5t-120.5 -80.5t-153 -29t-152 29
t-119.5 80.5t-78.5 122.5t-28 154t28.5 153.5t78.5 122.5t119.5 81t151.5 29q83 0 153 -29t120.5 -80.5t78.5 -122t28 -154.5z" />
    <glyph glyph-name="one" unicode="1" horiz-adv-x="398" 
d="M355 0h-237v25q23 6 32 13.5t9 26.5v440h-61q-20 0 -27 -6.5t-12 -26.5h-26v198h25q-1 -23 14.5 -33t34.5 -10q26 0 39.5 11t13.5 28q0 12 -9.5 22.5t-26.5 10.5v25h224v-25q-20 -5 -26.5 -12.5t-6.5 -27.5v-594q0 -23 10 -29t30 -11v-25z" />
    <glyph glyph-name="two" unicode="2" horiz-adv-x="737" 
d="M635 0h-529q-28 0 -28 -10h-18v10q1 69 20 123t54.5 96.5t86.5 76t116 62.5q91 41 141.5 80.5t50.5 77.5q0 28 -12 48.5t-31 33.5t-43 19t-49 6q-39 0 -78 -13t-72 -31q-32 -19 -45 -36.5t-13 -38.5q0 -7 3 -14l6 -14l-22 -19l-143 164l20 17l20 -9q8 -3 19.5 2
t23.5 13.5l24 17.5l20 15q60 38 126.5 53t136.5 15q52 0 101 -14.5t86.5 -43t60.5 -71.5t23 -100q0 -51 -18 -91.5t-49 -72.5t-72.5 -57.5t-88.5 -46.5l-50 -22t-54.5 -26.5t-48.5 -32t-32 -36.5h356q20 0 27.5 6.5t12.5 26.5h25v-188h-24q-3 13 -9.5 18.5t-30.5 5.5z" />
    <glyph glyph-name="three" unicode="3" horiz-adv-x="784" 
d="M744 215q0 -46 -15.5 -82t-42 -62.5t-61.5 -44.5t-74 -29t-79 -16t-77 -5q-67 0 -131 16t-133 48q-23 11 -35.5 15t-19.5 3t-11.5 -6t-11.5 -11l-23 11l85 201l23 -9q-5 -21 10.5 -47t66.5 -49q42 -20 90.5 -33t104.5 -13q25 0 56 6t58 19.5t45.5 36.5t18.5 56
q0 28 -14 47.5t-37 32t-51.5 18t-56.5 5.5q-46 0 -74 -8t-28 -34h-26v197h26q0 -23 29 -32.5t74 -9.5q22 0 46 4.5t44.5 15.5t33.5 29.5t13 45.5q0 29 -15 48t-37.5 30t-49 15.5t-48.5 4.5q-48 0 -89.5 -9t-76.5 -24q-17 -7 -30.5 -14.5t-21.5 -17.5t-10 -23t6 -31l-20 -15
l-122 152l19 15q11 -5 18 -7t13.5 -1t13 5t17.5 10q67 42 136 60.5t147 18.5q48 0 101 -10t96.5 -34t72 -63.5t28.5 -99.5q0 -51 -25 -87.5t-68 -62.5q58 -23 90 -67.5t32 -108.5z" />
    <glyph glyph-name="four" unicode="4" horiz-adv-x="760" 
d="M476 242v336l-308 -336h308zM714 89h-25q-5 20 -12.5 26.5t-27.5 6.5h-29v-57q0 -23 8 -29.5t25 -10.5v-25h-215v25q22 5 28 12.5t6 27.5v57h-334q-9 0 -7.5 -9t7.5 -22l-22 -13l-119 198l21 14q9 -9 16.5 -14t9.5 0l339 370q16 18 20 32.5t-23 20.5v25h273v-25
q-20 -4 -26.5 -12t-6.5 -28v-415h29q20 0 27.5 6t12.5 26h25v-187z" />
    <glyph glyph-name="five" unicode="5" horiz-adv-x="798" 
d="M760 242q0 -71 -30.5 -121.5t-79 -82.5t-110 -47t-122.5 -15q-56 0 -99 7.5t-79 20.5t-66.5 30.5l-61.5 36.5q-17 10 -30 4.5t-29 -16.5l-20 17l133 176l21 -16q-7 -14 -7.5 -25.5t10.5 -24.5q18 -20 45 -36.5t58 -28t63.5 -17.5t60.5 -6q30 0 62.5 8t59.5 25t44.5 43.5
t17.5 63.5t-16 63t-41 43t-56.5 25t-62.5 8q-21 0 -49.5 -3.5t-54 -10.5t-43.5 -17.5t-18 -24.5q0 -5 2.5 -10.5t4.5 -10.5l-17 -16l-189 177l16 17q12 -8 20 -2t8 20v163q0 20 -6.5 27.5t-26.5 12.5v25h568h16.5t11.5 2t8 7t5 15h24v-182h-24q-5 19 -13 26t-28 7h-406v-151
q51 23 106.5 32.5t111.5 9.5q57 0 112.5 -14.5t99 -44.5t70 -77t26.5 -112z" />
    <glyph glyph-name="six" unicode="6" horiz-adv-x="780" 
d="M578 237q0 34 -15 57.5t-38.5 38.5t-53 21.5t-58.5 6.5t-62 -5.5t-61.5 -20t-47.5 -38.5t-19 -60q0 -35 15.5 -59.5t39.5 -40t54.5 -22.5t60.5 -7q31 0 64 6t60 20.5t44 39.5t17 63zM748 690l-101 -184l-23 10q3 13 4.5 23.5t-7.5 21.5q-12 14 -34 26t-47.5 20.5
t-52.5 13.5t-50 5q-51 0 -92.5 -16t-71.5 -45.5t-47.5 -71t-20.5 -92.5q51 48 114.5 66t132.5 18q52 0 104 -15.5t93 -46t67 -75.5t26 -104q0 -69 -28.5 -119.5t-76 -83.5t-109 -49t-126.5 -16q-99 0 -172 35.5t-121 93.5q-36 45 -52.5 107.5t-16.5 134.5q0 84 27 157
t78 127.5t123.5 85.5t163.5 31q55 0 111.5 -12t114.5 -38q17 -7 25 -10t13 -3q8 0 15.5 5.5t12.5 11.5z" />
    <glyph glyph-name="eight" unicode="8" horiz-adv-x="816" 
d="M607 221q0 34 -22 55.5t-53 33.5t-65 16.5t-59 4.5t-59 -4.5t-65 -16.5t-53 -33.5t-22 -55.5q0 -27 17 -48t44.5 -35t63.5 -21t74 -7q41 0 77.5 7t63.5 21t42.5 35t15.5 48zM580 545q0 28 -19.5 46.5t-46.5 29t-56.5 14.5t-49.5 4t-49.5 -4t-56.5 -14.5t-46.5 -29
t-19.5 -46.5q0 -25 13.5 -43.5t37 -30.5t55 -17.5t66.5 -5.5q36 0 67.5 6t55 18t36.5 30.5t13 42.5zM776 213q0 -53 -21 -99.5t-69 -76.5q-48 -31 -120.5 -46t-157.5 -15t-157.5 15t-120.5 46q-48 30 -69 76.5t-21 99.5q0 39 13.5 69.5t37 52t54 35.5t65.5 20
q-60 14 -96.5 54.5t-36.5 103.5q0 60 34 98.5t84.5 61t108 31.5t104.5 9t104.5 -9t108 -31.5t84.5 -61t34 -98.5q0 -63 -36.5 -103.5t-96.5 -54.5q34 -6 65 -20t54.5 -35.5t37 -52t13.5 -69.5z" />
    <glyph glyph-name="nine" unicode="9" horiz-adv-x="775" 
d="M548 491q0 35 -15 60t-38.5 41.5t-52.5 24.5t-58 8q-30 0 -61 -6.5t-56.5 -22t-41.5 -41t-16 -62.5q0 -36 14 -60t36.5 -38.5t50.5 -20.5t57 -6q27 0 59 6t59 20t45 37.5t18 59.5zM735 380q0 -86 -26.5 -162t-77.5 -129q-51 -54 -125 -83.5t-162 -29.5q-39 0 -73.5 6.5
t-65 16t-57.5 20.5l-50 21q-14 6 -24.5 0t-17.5 -12l-22 13l98 182l22 -11q-2 -5 -3 -9t-1 -8q0 -25 23 -43.5t54.5 -30.5t63.5 -18t50 -6q51 0 92.5 16.5t72.5 46.5t49 72t21 93q-24 -22 -54 -37.5t-63 -25t-68 -14t-69 -4.5q-53 0 -102.5 14.5t-88 43.5t-62 72.5
t-23.5 101.5q0 68 28.5 119t75 85t105.5 51t119 17q84 0 150.5 -25.5t113.5 -73t72 -115.5t25 -154z" />
    <glyph glyph-name="colon" unicode=":" horiz-adv-x="266" 
d="M226 453q0 -20 -7.5 -36.5t-20 -29.5t-29.5 -20t-36 -7q-39 0 -66 27t-27 66q0 19 7 36t20 29.5t29.5 20t36.5 7.5q19 0 36 -7.5t29.5 -20t20 -29.5t7.5 -36zM226 69q0 -20 -7.5 -36.5t-20 -29.5t-29.5 -20t-36 -7t-36 7t-29.5 20t-20 29.5t-7.5 36.5q0 19 7.5 36
t20 29.5t29.5 20t36 7.5t36 -7.5t29.5 -20t20 -29.5t7.5 -36z" />
    <glyph glyph-name="semicolon" unicode=";" horiz-adv-x="257" 
d="M227 453q0 -20 -7.5 -36.5t-20 -29.5t-29.5 -20t-36 -7q-39 0 -66 27t-27 66q0 19 7 36t20 29.5t29.5 20t36.5 7.5q19 0 36 -7.5t29.5 -20t20 -29.5t7.5 -36zM227 95q6 -32 -8 -66t-38 -64.5t-52.5 -55t-51.5 -39.5l-29 32q35 24 55 64q5 9 1 17t-10 11q-19 11 -32.5 28
t-18.5 40q-3 19 1 36.5t14.5 32.5t25.5 25t34 14q19 3 37 -1t33 -14.5t25 -25.5t14 -34z" />
    <glyph glyph-name="less" unicode="&#x3c;" horiz-adv-x="570" 
d="M40 327v70l405 187q25 11 36 25t17 40h32v-155l-335 -132l335 -132v-155h-32q-6 26 -17.5 40t-35.5 25z" />
    <glyph glyph-name="equal" unicode="=" horiz-adv-x="547" 
d="M497 178h-28q-5 22 -13 29t-31 7h-304q-23 0 -30.5 -7.5t-12.5 -28.5h-28v136h447v-136zM497 411h-447v137h28q5 -21 12.5 -28.5t30.5 -7.5h304q23 0 31 7t13 29h28v-137z" />
    <glyph glyph-name="greater" unicode="&#x3e;" horiz-adv-x="570" 
d="M135 140q-24 -11 -35.5 -25t-17.5 -40h-32v155l335 132l-335 132v155h32q6 -26 17 -40t36 -25l405 -187v-70z" />
    <glyph glyph-name="B" unicode="B" horiz-adv-x="840" 
d="M621 219q1 33 -11.5 53t-33.5 31t-47.5 14.5t-52.5 3.5h-233v-198h211q27 0 56 3t53 13t40 29t18 51zM601 526q-1 47 -34 62t-95 15h-229v-164h257q49 0 76 20t25 67zM796 203q0 -61 -27.5 -100.5t-70.5 -62t-96 -31.5t-105 -9h-447v25q20 5 27 12.5t7 28.5v593
q0 20 -7 27.5t-27 12.5v25h452q45 0 91 -9.5t83.5 -31t61.5 -57.5t24 -90q0 -49 -21 -87t-67 -65v-6q25 -8 47.5 -24t39 -38.5t26 -51t9.5 -61.5z" />
    <glyph glyph-name="C" unicode="C" horiz-adv-x="922" 
d="M882 90l-20 -13q-8 6 -15.5 10t-13.5 0q-77 -49 -170.5 -79t-196.5 -30q-91 0 -169 29t-135 80t-89.5 121t-32.5 152q0 83 32 153.5t90 121.5t140 80t182 29q52 0 102.5 -9t92 -21t71 -23t41.5 -15q9 -3 22 -2.5t21 8.5l21 -14l-107 -172l-22 13l5 13q0 15 -22 31.5
t-58 31t-81 23.5t-90 9q-62 0 -113.5 -19t-88 -52t-57 -78.5t-20.5 -99.5q0 -57 20.5 -105.5t57.5 -84t89.5 -55t115.5 -19.5q44 0 88 11t81 27t63.5 34t37.5 31q6 8 4.5 18t-5.5 19l21 13z" />
    <glyph glyph-name="D" unicode="D" horiz-adv-x="898" 
d="M691 364q0 124 -69 183t-192 59h-187v-485h187q72 0 122 18.5t80.5 51.5t44.5 77.5t14 95.5zM855 364q0 -66 -19.5 -131.5t-68.5 -117t-132.5 -83.5t-210.5 -32h-374v25q19 5 26.5 12.5t7.5 28.5v592q0 21 -7 29t-27 12v25h384q121 0 202 -31.5t129.5 -82.5t69 -115.5
t20.5 -130.5z" />
    <glyph glyph-name="F" unicode="F" horiz-adv-x="760" 
d="M728 561h-25q-5 19 -11.5 26.5t-23.5 7.5h-424v-159h253q24 0 30 6.5t10 26.5h25v-183h-25q-3 19 -10.5 25.5t-29.5 6.5h-253v-253q0 -22 7.5 -29t26.5 -11v-25h-228v25q19 5 26.5 12.5t7.5 28.5v593q0 20 -7 27.5t-27 12.5v25h613q20 0 28 3t12 21h25v-187z" />
    <glyph glyph-name="G" unicode="G" horiz-adv-x="913" 
d="M672 281h-139q-20 0 -29.5 -2t-16.5 -21h-23v169h24q4 -18 14.5 -21t30.5 -3h335v-25q-20 -2 -33.5 -11t-13.5 -35v-174q0 -41 35 -41v-28q-38 -28 -85.5 -48.5t-99.5 -34.5t-105.5 -21t-103.5 -7q-84 0 -160 25.5t-134.5 74.5t-93 120.5t-34.5 163.5t36.5 163.5
t97.5 120t140 73.5t164 25q72 0 146.5 -17.5t141.5 -39.5q15 -5 23.5 -2t13.5 10l25 -11l-90 -175l-23 11q3 17 -10 30.5t-30 24.5q-48 27 -101.5 37t-106.5 10q-57 0 -105.5 -18.5t-84.5 -53t-56 -83t-20 -107.5q0 -60 24 -108t64 -81.5t91 -51.5t105 -18q52 0 99.5 12
t87.5 35v133z" />
    <glyph glyph-name="H" unicode="H" horiz-adv-x="881" 
d="M831 0h-226v25q19 5 26 12t7 29v235h-395v-235q0 -21 6.5 -28t27.5 -13v-25h-227v25q21 6 27.5 13t6.5 28v593q0 20 -6.5 27.5t-27.5 12.5v25h227v-25q-20 -5 -27 -13t-7 -27v-230h395v230q0 21 -6 28t-27 12v25h226v-25q-20 -5 -26.5 -12.5t-6.5 -27.5v-593
q0 -20 5.5 -28t27.5 -13v-25z" />
    <glyph glyph-name="I" unicode="I" horiz-adv-x="335" 
d="M281 0h-227v25q19 5 26.5 12.5t7.5 27.5v594q0 20 -7 27.5t-27 12.5v25h227v-25q-20 -5 -27.5 -12.5t-7.5 -27.5v-594q0 -20 7.5 -27.5t27.5 -12.5v-25z" />
    <glyph glyph-name="J" unicode="J" horiz-adv-x="686" 
d="M634 699q-22 -5 -27.5 -13t-5.5 -27v-410q0 -42 -4 -71.5t-12 -52t-22 -40t-33 -33.5q-81 -63 -215 -63q-56 0 -97 8.5t-72.5 16t-56 10t-48.5 -9.5l-23 11l72 178l23 -8q0 -25 19.5 -40t39.5 -25q62 -28 136 -28q71 0 102 31.5t31 106.5v419q0 20 -6 27.5t-27 12.5v25
h226v-25z" />
    <glyph glyph-name="K" unicode="K" horiz-adv-x="870" 
d="M855 0h-290v25q13 1 18 7t4.5 15t-6 20t-12.5 22l-208 271l-114 -88v-207q0 -20 7.5 -27.5t27.5 -12.5v-25h-232v25q19 5 26.5 12.5t7.5 27.5v594q0 20 -7 27.5t-27 12.5v25h232v-25q-20 -5 -27.5 -12.5t-7.5 -27.5v-216l268 201q10 8 17 15.5t7 16.5q0 11 -7.5 16
t-15.5 7v25h306v-25q-32 -11 -70 -35.5t-67 -47.5l-203 -159l273 -361q16 -22 43.5 -42.5t56.5 -28.5v-25z" />
    <glyph glyph-name="L" unicode="L" horiz-adv-x="681" 
d="M647 -24h-25q-4 15 -12 19.5t-28 4.5h-532v25q19 5 26.5 12.5t7.5 27.5v593q0 20 -8.5 28t-25.5 13v25h228v-25q-20 -5 -26 -12.5t-6 -28.5v-529h336q20 0 28 8t12 27h25v-188z" />
    <glyph glyph-name="M" unicode="M" horiz-adv-x="1033" 
d="M983 0h-223v25q20 5 27 12.5t7 27.5v442l-290 -488l-276 488v-442q0 -20 6.5 -27.5t26.5 -12.5v-25h-211v25q19 5 26.5 12.5t7.5 27.5v594q0 20 -7.5 27.5t-26.5 12.5v25h278v-25q-17 -2 -21.5 -16.5t3.5 -29.5l204 -366l212 359q10 17 6.5 32t-21.5 21v25h272v-25
q-24 -7 -29.5 -15t-5.5 -25v-594q0 -20 7.5 -27.5t27.5 -12.5v-25z" />
    <glyph glyph-name="N" unicode="N" horiz-adv-x="899" 
d="M847 0h-217v25q12 1 16.5 7t3 13.5t-7.5 16.5t-13 17l-405 420v-434q0 -19 5.5 -26t27.5 -14v-25h-207v25q23 5 28.5 13.5t5.5 26.5v594q0 20 -6.5 27.5t-27.5 12.5v25h241v-25q-18 -3 -18 -21q0 -10 5 -18t12 -14l385 -406v419q0 18 -4.5 25t-29.5 15v25h206v-25
q-23 -7 -28 -15t-5 -25v-594q0 -19 6.5 -27t26.5 -13v-25z" />
    <glyph glyph-name="O" unicode="O" horiz-adv-x="952" 
d="M912 362q0 -90 -36 -161.5t-97 -121.5t-140 -76.5t-165 -26.5q-85 0 -163.5 27t-138.5 77.5t-96 121.5t-36 160q0 91 37 163t99 121.5t142 75.5t167 26q84 0 161.5 -27.5t136.5 -78t94 -122t35 -158.5zM761 362q0 59 -22.5 108t-61.5 84t-91 54.5t-112 19.5
q-59 0 -110.5 -19.5t-90 -54.5t-60.5 -84t-22 -108t22 -107.5t60.5 -84t90 -55t110.5 -19.5q60 0 112 19.5t91 54.5t61.5 84t22.5 108z" />
    <glyph glyph-name="P" unicode="P" horiz-adv-x="820" 
d="M638 504q0 49 -43 74t-145 25h-207v-202h213q94 0 138 27t44 76zM790 505q0 -51 -19.5 -92.5t-55.5 -71.5t-87.5 -46.5t-115.5 -16.5h-269v-213q0 -21 7 -28t27 -12v-25h-227v25q17 4 25.5 10t8.5 31v593q0 19 -5.5 27t-28.5 13v25h443q71 0 126 -15.5t93 -44t58 -69
t20 -90.5z" />
    <glyph glyph-name="Q" unicode="Q" horiz-adv-x="953" 
d="M912 362q0 -86 -32.5 -154.5t-88.5 -118.5l74 -75q13 -13 25.5 -14.5t29.5 6.5l16 -16l-167 -151l-16 17q10 16 11.5 28.5t-11.5 28.5l-84 101q-91 -38 -195 -38q-85 0 -163.5 27t-138.5 77.5t-96 121.5t-36 160q0 88 36 159.5t96 122t138.5 77.5t163.5 27q86 0 165 -27
t140 -77t97 -121.5t36 -160.5zM761 362q0 59 -22.5 108t-61.5 84t-91 54t-112 19q-59 0 -110.5 -19t-90 -54t-60.5 -84t-22 -108t22 -107.5t60.5 -84t90 -55t110.5 -19.5q58 0 109 18q-29 32 -51.5 53t-37.5 32t-31 17t-30 10v15q38 23 71.5 29.5t78.5 -10.5q23 -9 51.5 -29
t58.5 -46q32 35 50 79t18 98z" />
    <glyph glyph-name="R" unicode="R" horiz-adv-x="865" 
d="M641 504q0 37 -19.5 56.5t-48.5 28.5t-62 10t-59 1h-209v-199h214q27 0 59.5 2t60 12t46 31t18.5 58zM835 0h-266v25q10 2 18 7t8 16q0 8 -5 17t-11 17l-148 199h-188v-216q0 -20 7.5 -27.5t27.5 -12.5v-25h-228v25q20 5 27 12.5t7 27.5v594q0 20 -7 27.5t-27 12.5v25
h443q51 0 104 -9t96.5 -32t71.5 -64t28 -104q0 -47 -14.5 -83.5t-40.5 -63.5t-62.5 -45t-79.5 -28l149 -201q19 -26 40 -43t50 -26v-25z" />
    <glyph glyph-name="S" unicode="S" horiz-adv-x="823" 
d="M780 227q0 -46 -17.5 -81.5t-47 -63t-67.5 -46.5t-79.5 -30.5t-83.5 -17t-78 -5.5q-77 0 -150.5 12t-143.5 45q-15 7 -27.5 7t-23.5 -14l-29 12l79 179l28 -10q-3 -10 -1 -20t12 -18q22 -17 55 -29t69.5 -19.5t72.5 -11.5t64 -4q21 0 54 3.5t64 13.5t53.5 29t22.5 49
q0 35 -45.5 57t-138.5 27q-37 1 -77.5 3t-81 8t-78 18.5t-67.5 35.5q-33 25 -48.5 61.5t-15.5 81.5q0 54 24.5 99t69.5 76.5t107.5 49t139.5 17.5q63 0 133 -12t145 -44q27 -13 41 -14.5t31 11.5l23 -12l-90 -173l-27 13q0 21 -15 37q-21 20 -51 33.5t-63 22t-66 12t-61 3.5
q-20 0 -50.5 -3.5t-58.5 -14t-48 -28.5t-20 -47q0 -27 15 -44t37 -26.5t46.5 -13t44.5 -4.5q73 -5 138 -8.5t127 -22.5q31 -11 59 -27.5t49 -39t33.5 -51t12.5 -61.5z" />
    <glyph glyph-name="T" unicode="T" horiz-adv-x="792" 
d="M762 559h-25q-4 19 -12 27t-28 8h-223v-528q0 -21 7 -28.5t27 -12.5v-25h-225v25q20 4 27.5 13t7.5 28v528h-223q-20 0 -27.5 -7t-12.5 -27h-25v188h25q5 -19 12.5 -21.5t27.5 -2.5h602h16.5t11 2t7.5 7t5 15h25v-189z" />
    <glyph glyph-name="U" unicode="U" horiz-adv-x="891" 
d="M846 699q-20 -5 -27 -12.5t-7 -27.5v-395q0 -78 -20.5 -133t-64.5 -89.5t-114.5 -50t-169.5 -15.5q-97 0 -166 16.5t-113.5 51.5t-65 89.5t-20.5 130.5v395q0 20 -6.5 28t-26.5 12v25h227v-25q-20 -4 -26.5 -12t-6.5 -28v-385q0 -50 11.5 -84t36.5 -55t64 -30.5t93 -9.5
q110 0 158.5 43t48.5 140v381q0 20 -6.5 28t-26.5 12v25h228v-25z" />
    <glyph glyph-name="V" unicode="V" horiz-adv-x="877" 
d="M857 699q-41 -11 -62 -57l-250 -560q-6 -14 -1.5 -32.5t30.5 -24.5v-25h-261v25q16 6 23.5 12.5t9 14t-1.5 15l-6 15.5l-249 548q-11 24 -26 42.5t-43 26.5v25h254v-25q-8 -2 -15.5 -5t-12 -8.5t-5 -14.5t6.5 -23l201 -439l195 449q2 6 3 12.5t-2 12.5t-10.5 10t-21.5 6
v25h244v-25z" />
    <glyph glyph-name="W" unicode="W" horiz-adv-x="1266" 
d="M1246 699q-24 -7 -37 -20t-26 -49l-197 -548q-5 -14 -2.5 -30t31.5 -27v-25h-240v25q18 6 25.5 12.5t9.5 14t0 15l-4 14.5l-165 471l-166 -470q-6 -14 -2.5 -31.5t32.5 -25.5v-25h-243v25q13 3 20 10t10 15t2.5 16.5t-3.5 15.5l-202 548q-11 28 -24 45t-45 24v25h262v-25
q-18 -6 -25 -12.5t-7.5 -13.5t2.5 -14.5t5 -14.5l133 -410l145 410q1 4 2.5 12t-0.5 16.5t-9.5 16t-22.5 10.5v25h278v-25q-17 -5 -24 -12t-8 -14t1.5 -14.5t5.5 -14.5l143 -399l129 399q2 6 3.5 14.5t-1 16.5t-11 14.5t-24.5 9.5v25h249v-25z" />
    <glyph glyph-name="X" unicode="X" horiz-adv-x="861" 
d="M430 499l115 145q17 21 8.5 35t-30.5 20v25h286v-25q-32 -6 -52.5 -24.5t-40.5 -44.5l-195 -247l227 -287q22 -28 42.5 -45.5t52.5 -25.5v-25h-287v25q22 6 30 21t-7 35l-148 188l-149 -188q-15 -19 -7 -34.5t30 -21.5v-25h-287v25q32 8 53.5 26.5t42.5 44.5l227 288
l-194 246q-20 26 -41.5 44.5t-53.5 24.5v25h287v-25q-23 -6 -31.5 -20t8.5 -35z" />
    <glyph glyph-name="Y" unicode="Y" horiz-adv-x="861" 
d="M841 699q-29 -8 -54 -27t-42 -42l-227 -365v-199q0 -21 6.5 -28.5t26.5 -12.5v-25h-240v25q19 5 26 13t7 28v183l-223 381q-18 26 -43.5 44t-57.5 25v25h303v-25q-26 -5 -31 -21t8 -34l142 -249l151 249q14 19 7 35t-29 20v25h270v-25z" />
    <glyph glyph-name="Z" unicode="Z" horiz-adv-x="750" 
d="M720 699l-417 -569h322q21 0 28 6.5t12 26.5h25v-187h-25q-5 15 -11 19.5t-24 4.5h-596v25l427 570h-332q-21 0 -28.5 -7t-12.5 -27h-25v186h25q5 -20 12.5 -21.5t28.5 -1.5h591v-25z" />
    <glyph glyph-name="underscore" unicode="_" horiz-adv-x="683" 
d="M633 -155h-25q-5 18 -13 22t-28 4h-452q-21 0 -28.5 -4t-12.5 -22h-24v125h583v-125z" />
    <glyph glyph-name="grave" unicode="`" horiz-adv-x="474" 
d="M372 467l-205 62q-16 5 -27 16.5t-16.5 25.5t-4 30t9.5 31t22 23.5t29.5 11t31 -2t27.5 -15.5l156 -145z" />
    <glyph glyph-name="asciitilde" unicode="~" horiz-adv-x="565" 
d="M140 275q-17 -3 -33 0t-28.5 10.5t-20.5 18.5t-8 24v135h34q10 -32 38.5 -48t68.5 -15l214 45q18 4 37.5 1.5t35.5 -9.5t26.5 -17t10.5 -22v-135h-33q-11 32 -43 47.5t-73 14.5l-226 -50v0z" />
    <glyph glyph-name="quoteleft" unicode="&#x2018;" horiz-adv-x="255" 
d="M195 578q3 -19 -1 -37t-14 -33t-25.5 -25t-34.5 -14q-19 -3 -37 1t-32.5 14.5t-25 26t-13.5 34.5q-6 32 8 65.5t38 64t52.5 55t51.5 39.5l28 -32q-35 -24 -55 -64q-5 -9 -1 -17t10 -11q19 -11 33 -27.5t18 -39.5z" />
    <glyph glyph-name="quoteright" unicode="&#x2019;" horiz-adv-x="254" 
d="M234 687q6 -32 -8 -65.5t-38 -64t-52.5 -55t-51.5 -39.5l-29 32q35 24 55 64q5 9 1 17t-10 11q-19 11 -32.5 27.5t-18.5 39.5q-3 19 1 37t14.5 33t25.5 25t34 14q19 3 37 -1t33 -14.5t25.5 -26t13.5 -34.5z" />
    <glyph glyph-name="quotedblleft" unicode="&#x201c;" horiz-adv-x="494" 
d="M434 578q3 -19 -1 -37t-14.5 -33t-25.5 -25t-34 -14q-19 -3 -37 1t-33 14.5t-25.5 26t-13.5 34.5q-6 32 8 65.5t38 64t52.5 55t51.5 39.5l29 -32q-35 -24 -55 -64q-5 -9 -1 -17t10 -11q19 -11 32.5 -27.5t18.5 -39.5zM195 578q3 -19 -1 -37t-14 -33t-25.5 -25t-34.5 -14
q-19 -3 -37 1t-32.5 14.5t-25 26t-13.5 34.5q-6 32 8 65.5t38 64t52.5 55t51.5 39.5l28 -32q-35 -24 -55 -64q-5 -9 -1 -17t10 -11q19 -11 33 -27.5t18 -39.5z" />
    <glyph glyph-name="quotedblright" unicode="&#x201d;" horiz-adv-x="494" 
d="M236 687q6 -32 -8 -65.5t-38 -64t-52.5 -55t-51.5 -39.5l-29 32q35 24 55 64q5 9 1 17t-10 11q-19 11 -32.5 27.5t-18.5 39.5q-3 19 1 37t14.5 33t25.5 25t34 14q19 3 37 -1t33 -14.5t25.5 -26t13.5 -34.5zM474 687q6 -32 -8 -65.5t-38 -64t-52.5 -55t-51.5 -39.5l-28 32
q35 24 55 64q5 9 1 17t-10 11q-19 11 -33 27.5t-18 39.5q-3 19 1 37t14 33t25.5 25t34.5 14q19 3 37 -1t32.5 -14.5t25 -26t13.5 -34.5z" />
    <glyph glyph-name="bullet" unicode="&#x2022;" horiz-adv-x="418" 
d="M368 361q0 -35 -12 -64t-33 -50t-50 -33t-64 -12t-64 12t-50 33t-33 50t-12 64t12 64t33 50t50 33t64 12t64 -12t50 -33t33 -50t12 -64z" />
    <glyph glyph-name="trademark" unicode="&#x2122;" horiz-adv-x="963" 
d="M406 654h-12q-2 9 -6 13t-14 4h-112v-264q0 -11 3.5 -14.5t13.5 -5.5v-13h-112v13q17 3 17 20v264h-111q-11 0 -14.5 -3.5t-5.5 -13.5h-13v82h366v-82zM923 374h-112v13q10 2 13.5 6t3.5 14v221l-145 -244l-138 244v-221q0 -11 3.5 -14.5t13.5 -5.5v-13h-106v13
q10 2 13.5 5.5t3.5 14.5v297q0 10 -3.5 14t-13.5 6v12h139v-12q-8 -2 -10.5 -8.5t1.5 -14.5l102 -183l106 179q5 9 3.5 16.5t-10.5 10.5v12h136v-12q-12 -4 -15 -8t-3 -12v-297q0 -10 4 -14t14 -6v-13z" />
    <glyph glyph-name="exclamdown" unicode="&#xa1;" horiz-adv-x="285" 
d="M33 24q20 2 25.5 12.5t6.5 29.5l24 385q1 18 -5.5 33t-29.5 15v24h180v-24q-21 0 -28 -15t-5 -33l22 -385q1 -20 8 -30t27 -12v-24h-225v24zM238 655q0 -19 -7 -36t-19.5 -29.5t-29.5 -19.5t-36 -7q-20 0 -36.5 7t-29.5 19.5t-20 29.5t-7 36q0 39 27 66t66 27q19 0 36 -7
t29.5 -20t19.5 -30t7 -36z" />
    <glyph glyph-name="cent" unicode="&#xa2;" horiz-adv-x="563" 
d="M257 220v292q-52 -13 -80.5 -53t-28.5 -91q0 -55 28 -94.5t81 -53.5zM546 206l-20 -10l-7.5 5.5t-5.5 0.5q-33 -29 -75 -48t-89 -25v-45q0 -10 4.5 -13.5t17.5 -6.5v-24h-134v24q12 3 16 6.5t4 13.5v43q-47 6 -87 26.5t-69.5 51.5t-46.5 71.5t-17 87.5q0 45 15.5 84.5
t44.5 70.5t69.5 51.5t90.5 26.5v46q0 9 -3.5 13t-16.5 6v25h134v-25q-13 -2 -17.5 -6t-4.5 -13v-44q48 -6 83.5 -19t56.5 -25q11 -4 26 5l18 -12l-66 -107l-19 10v8q0 6 -8 14t-21.5 15.5t-31.5 14.5t-38 11v-295q41 8 72 25t41 31q5 6 -2 22l20 13z" />
    <glyph glyph-name="sterling" unicode="&#xa3;" horiz-adv-x="830" 
d="M307 308q5 -19 7 -40.5t0 -43.5t-7.5 -43.5t-15.5 -39.5q25 -5 51.5 -12.5l55.5 -15t60 -13t65 -5.5q26 0 45 6t32.5 16.5t22.5 25t17 32.5q9 21 3 36t-20 23l9 22l193 -66l-8 -22q-17 0 -29 -10t-21 -29q-18 -39 -39 -67.5t-49.5 -47.5t-65.5 -28.5t-86 -9.5
q-59 0 -110 9t-96.5 19.5l-86.5 19.5t-81 9h-35q-17 0 -32 -7.5t-19 -25.5h-24v83q0 29 27 45.5t65 18.5q7 7 14.5 19t11 30.5t2.5 45.5t-11 66h-44q-35 0 -39 -32h-23l-2 109q0 11 13.5 24t33.5 13h39l-2 12q-12 67 5 125t56 101t98 67.5t131 24.5q38 0 69.5 -4.5t58 -13.5
t49.5 -22t46 -29q20 -13 41.5 -15.5t35.5 9.5l21 -13l-108 -171l-19 11q1 31 -21 56t-54 41.5t-67 25.5t-60 9q-44 0 -74 -18t-46 -48t-17.5 -68.5t12.5 -79.5h215q17 0 27.5 8.5t12.5 25.5h24v-109q0 -11 -13 -25t-33 -14h-211z" />
    <glyph glyph-name="currency" unicode="&#xa4;" horiz-adv-x="866" 
d="M34 238v88h52q-4 27 -1 57h-51v88h65q23 80 74 132.5t113 84t126.5 44t114.5 11.5q53 -1 104 -8t107 -32q11 -2 21 4.5t12 16.5h25v-192h-32v21q-36 33 -97 53t-129 20q-43 0 -85.5 -9t-79.5 -27.5t-66 -48t-45 -70.5h473l-40 -88h-452q-2 -14 -1.5 -28.5t2.5 -28.5h417
l-40 -88h-354q17 -36 46 -63t65 -45t77 -26.5t83 -8.5q67 0 128 18t98 56v21h32v-190h-25q-2 10 -12 15.5t-21 3.5q-48 -23 -103 -31.5t-108 -9.5q-49 -1 -112 11t-124 42t-112 80.5t-76 126.5h-69z" />
    <glyph glyph-name="yen" unicode="&#xa5;" horiz-adv-x="878" 
d="M311 25q19 5 26 13t7 28v92h-263l1 88h262v6l-30 51h-233v88h181l-141 239q-18 26 -43.5 44t-57.5 25v25h297v-25q-26 -5 -31 -21t8 -34l145 -270l145 270q13 18 8 34t-31 21v25h297v-25q-32 -7 -57.5 -25t-43.5 -44l-141 -239h181v-88h-233l-30 -51v-6h262l1 -88h-263
v-92q0 -20 7 -28t26 -13v-25h-256v25z" />
    <glyph glyph-name="dieresis" unicode="&#xa8;" horiz-adv-x="623" 
d="M100 545q0 18 6.5 33.5t18 27t27 18.5t33.5 7t33.5 -7t27 -18.5t18 -27t6.5 -33.5q0 -35 -25 -60t-60 -25t-60 25t-25 60zM352 545q0 18 7 33.5t18.5 27t27 18.5t33.5 7t33.5 -7t27 -18.5t18 -27t6.5 -33.5q0 -35 -25 -60t-60 -25q-18 0 -33.5 6.5t-27 18t-18.5 27
t-7 33.5z" />
    <glyph glyph-name="copyright" unicode="&#xa9;" horiz-adv-x="872" 
d="M658 173l-12 -8q-5 4 -12.5 5t-13.5 -1q-44 -19 -88 -32.5t-93 -13.5q-51 0 -99 16t-85 47t-59 75t-22 101t22 101t59 75t85 47t99 16q49 0 93 -13.5t88 -32.5q6 -2 13.5 -1t12.5 5l12 -8l-65 -107l-13 8q1 1 2 3t1 5q-4 15 -16.5 26t-28.5 18q-24 10 -50.5 14.5t-53 3
t-52 -9.5t-46.5 -24q-25 -18 -41 -52t-16 -74t16 -74t41 -52q21 -16 46.5 -24t52 -9.5t53 3t50.5 14.5q16 7 28.5 18t16.5 26q0 3 -1 5t-2 3l13 8zM757 362q0 66 -25.5 124.5t-69 102t-102 69t-124.5 25.5t-124.5 -25.5t-102 -69t-69 -102t-25.5 -124.5t25.5 -124.5t69 -102
t102 -69t124.5 -25.5t124.5 25.5t102 69t69 102t25.5 124.5zM822 362q0 -80 -30.5 -150t-83 -122.5t-122.5 -83t-150 -30.5t-150 30.5t-122.5 83t-83 122.5t-30.5 150t30.5 150t83 122.5t122.5 83t150 30.5t150 -30.5t122.5 -83t83 -122.5t30.5 -150z" />
    <glyph glyph-name="minus" unicode="&#x2212;" horiz-adv-x="600" 
d="M550 288h-25q-5 18 -13 22t-28 4h-369q-21 0 -28.5 -4t-12.5 -22h-24v168h25q5 -18 12.5 -22t27.5 -4h369q20 0 28 3.5t13 22.5h25v-168z" />
    <glyph glyph-name="registered" unicode="&#xae;" horiz-adv-x="872" 
d="M555 438q0 20 -11 31t-27 16t-34 5.5t-32 0.5h-113v-109h115q15 0 33 1t33 6.5t25.5 17t10.5 31.5zM665 161h-151v14q16 5 12 28t-18.5 49t-35.5 46.5t-39 20.5h-95v-122q0 -11 4.5 -15.5t15.5 -6.5v-14h-126v14q10 2 14.5 6.5t4.5 15.5v327q0 11 -4 15.5t-15 6.5v14h242
q28 0 57 -5t53 -18t39 -35.5t15 -56.5q0 -51 -30.5 -79t-75.5 -40q19 -5 31 -16.5t21 -27t16.5 -33.5t17.5 -36q8 -13 20.5 -23t26.5 -15v-14zM757 362q0 66 -25.5 124.5t-69 102t-102 69t-124.5 25.5t-124.5 -25.5t-102 -69t-69 -102t-25.5 -124.5t25.5 -124.5t69 -102
t102 -69t124.5 -25.5t124.5 25.5t102 69t69 102t25.5 124.5zM822 362q0 -80 -30.5 -150t-83 -122.5t-122.5 -83t-150 -30.5t-150 30.5t-122.5 83t-83 122.5t-30.5 150t30.5 150t83 122.5t122.5 83t150 30.5t150 -30.5t122.5 -83t83 -122.5t30.5 -150z" />
    <glyph glyph-name="degree" unicode="&#xb0;" horiz-adv-x="334" 
d="M214 658q0 22 -15 37t-37 15t-37 -15t-15 -37t15 -37t37 -15t37 15t15 37zM294 658q0 -27 -10.5 -51t-28.5 -42t-42 -28.5t-51 -10.5t-51 10.5t-42 28.5t-28.5 42t-10.5 51t10.5 51t28.5 42t42 28.5t51 10.5t51 -10.5t42 -28.5t28.5 -42t10.5 -51z" />
    <glyph glyph-name="plusminus" unicode="&#xb1;" horiz-adv-x="610" 
d="M362 193h142q20 0 28 6.5t13 26.5h25v-175h-25q-5 20 -13 26.5t-28 6.5h-404q-21 0 -28.5 -6.5t-12.5 -26.5h-19v175h24q5 -20 12.5 -26.5t27.5 -6.5h142v134h-133q-26 0 -34.5 -8t-14.5 -31h-24v183h25q5 -23 14 -31.5t34 -8.5h133v129q0 25 -7.5 34.5t-32.5 14.5v26
h196v-26q-23 -5 -31.5 -14.5t-8.5 -34.5v-129h133q24 0 34.5 7.5t15.5 32.5h25v-183h-25q-5 23 -15.5 31t-34.5 8h-133v-134z" />
    <glyph glyph-name="acute" unicode="&#xb4;" horiz-adv-x="474" 
d="M107 504l156 145q12 11 27.5 15.5t31 2t29.5 -11t22 -23.5t9.5 -31t-4 -30t-16.5 -25.5t-27 -16.5l-205 -62z" />
    <glyph glyph-name="onequarter" unicode="&#xbc;" horiz-adv-x="1266" 
d="M1024 206v285l-262 -285h262zM323 109h-201v21q19 5 27 11.5t8 22.5v374h-52q-17 0 -23 -5.5t-10 -22.5h-22v169h21q4 -17 10.5 -23t23.5 -6h52v19q0 16 -5 23t-22 11v21h187v-21q-17 -4 -22.5 -10.5t-5.5 -23.5v-505q0 -19 8.5 -24.5t25.5 -9.5v-21zM770 764l-26 -23
q-11 -10 -20.5 -21.5t-13.5 -21.5l-247 -668q-8 -18 -8 -32.5t23 -14.5l-10 -25h-174l28 27q11 11 21 23.5t14 21.5l250 668q7 20 4.5 29.5t-21.5 11.5l10 25h170zM1226 76h-21q-4 17 -10.5 22.5t-23.5 5.5h-25v-49q0 -20 7 -25t21 -9v-21h-183v21q19 4 24 10.5t5 23.5v49
h-284q-8 0 -6.5 -8t6.5 -19l-18 -11l-102 169l18 12q8 -8 14 -12t8 0l289 314q13 16 16.5 28t-19.5 17v21h232v-21q-17 -3 -22.5 -10t-5.5 -24v-353h25q17 0 23.5 5.5t10.5 22.5h21v-159z" />
    <glyph glyph-name="onehalf" unicode="&#xbd;" horiz-adv-x="1331" 
d="M323 109h-201v21q19 5 27 11.5t8 22.5v374h-52q-17 0 -23 -5.5t-10 -22.5h-22v169h21q4 -17 10.5 -23t23.5 -6h52v19q0 16 -5 23t-22 11v21h187v-21q-17 -4 -22.5 -10.5t-5.5 -23.5v-505q0 -19 8.5 -24.5t25.5 -9.5v-21zM770 764l-26 -23q-11 -10 -20.5 -21.5
t-13.5 -21.5l-247 -668q-8 -18 -8 -32.5t23 -14.5l-10 -25h-174l28 27q11 11 21 23.5t14 21.5l250 668q7 20 4.5 29.5t-21.5 11.5l10 25h170zM1291 -20h-21q-2 11 -7.5 15.5t-26.5 4.5h-493q1 59 17.5 104.5t46.5 81.5t73.5 64.5t98.5 53.5q77 35 119 69t42 66q0 24 -10 41
t-26 28.5t-36.5 16.5t-41.5 5q-34 0 -66.5 -10t-60.5 -25q-28 -17 -38.5 -31.5t-10.5 -32.5q0 -6 2.5 -12t4.5 -12l-18 -16l-121 137l17 14l17 -7q7 -3 16.5 1.5t20 11.5t20.5 14.5l17 12.5q51 32 106.5 45t115.5 13q44 0 85.5 -12t73 -36.5t50.5 -61t19 -84.5
q0 -43 -15 -77.5t-40.5 -62t-60 -49t-74.5 -39.5l-42.5 -18.5t-46 -23t-41 -27t-27.5 -31.5h307q17 0 23.5 5.5t10.5 22.5h21v-159z" />
    <glyph glyph-name="threequarters" unicode="&#xbe;" horiz-adv-x="1560" 
d="M1313 206v285l-262 -285h262zM632 282q0 -59 -28.5 -97.5t-72 -61.5t-96 -32t-99.5 -9q-57 0 -111.5 11.5t-113.5 39.5q-20 9 -30.5 12.5t-16.5 2.5t-9.5 -5t-9.5 -9l-19 9l72 171l19 -8q-5 -17 9 -39.5t57 -41.5q73 -34 166 -34q21 0 47.5 4t49.5 15t38.5 29t15.5 47
q0 24 -12 40.5t-31.5 27t-43.5 15.5t-48 5q-39 0 -63 -7t-24 -29h-22v167h22q0 -20 25 -27.5t63 -7.5q19 0 39.5 3.5t37.5 12t28 23.5t11 38q0 25 -13 41t-32 25.5t-41.5 13t-41.5 3.5q-41 0 -76.5 -7.5t-64.5 -20.5q-14 -6 -25.5 -12.5t-18.5 -14.5t-8 -19.5t5 -26.5
l-17 -13l-104 130l16 12q9 -5 15.5 -6.5t11.5 -0.5t11 4.5l15 8.5q57 36 115.5 51.5t124.5 15.5q41 0 86 -8.5t82.5 -28.5t61.5 -54t24 -85q0 -43 -21.5 -72.5t-57.5 -51.5q49 -19 76 -57t27 -92zM1054 764l-26 -23q-11 -10 -20.5 -21.5t-13.5 -21.5l-247 -668
q-8 -18 -8 -32.5t23 -14.5l-10 -25h-174l28 27q11 11 21 23.5t14 21.5l250 668q7 20 4.5 29.5t-21.5 11.5l10 25h170zM1515 76h-21q-4 17 -10.5 22.5t-23.5 5.5h-25v-49q0 -20 7 -25t21 -9v-21h-183v21q19 4 24 10.5t5 23.5v49h-284q-8 0 -6.5 -8t6.5 -19l-18 -11l-102 169
l18 12q8 -8 14 -12t8 0l289 314q13 16 16.5 28t-19.5 17v21h232v-21q-17 -3 -22.5 -10t-5.5 -24v-353h25q17 0 23.5 5.5t10.5 22.5h21v-159z" />
    <glyph glyph-name="Agrave" unicode="&#xc0;" horiz-adv-x="930" 
d="M558 790l-205 62q-16 5 -27 16.5t-16.5 25.5t-4 30t9.5 31t22 23.5t29.5 11t31 -2t27.5 -15.5l156 -145zM273 162l-29 -80q-23 -48 24 -57v-25h-248v25q28 7 43 27.5t26 43.5l228 548q4 8 5.5 16t-1 15.5t-10.5 13.5t-23 10v25h355v-25q-17 -4 -25 -10.5t-10 -14t0 -16
t6 -16.5l227 -546q11 -23 26 -43.5t43 -27.5v-25h-248v25q23 5 31 18.5t-4 38.5l-31 80h-385zM488 600h-46l-127 -328h301z" />
    <glyph glyph-name="Aacute" unicode="&#xc1;" horiz-adv-x="930" 
d="M353 827l156 145q12 11 27.5 15.5t31 2t29.5 -11t22 -23.5t9.5 -31t-4 -30t-16.5 -25.5t-27 -16.5l-205 -62zM273 162l-29 -80q-23 -48 24 -57v-25h-248v25q28 7 43 27.5t26 43.5l228 548q4 8 5.5 16t-1 15.5t-10.5 13.5t-23 10v25h355v-25q-17 -4 -25 -10.5t-10 -14
t0 -16t6 -16.5l227 -546q11 -23 26 -43.5t43 -27.5v-25h-248v25q23 5 31 18.5t-4 38.5l-31 80h-385zM488 600h-46l-127 -328h301z" />
    <glyph glyph-name="Acircumflex" unicode="&#xc2;" horiz-adv-x="930" 
d="M273 162l-29 -80q-23 -48 24 -57v-25h-248v25q28 7 43 27.5t26 43.5l228 548q4 8 5.5 16t-1 15.5t-10.5 13.5t-23 10v25h355v-25q-17 -4 -25 -10.5t-10 -14t0 -16t6 -16.5l227 -546q11 -23 26 -43.5t43 -27.5v-25h-248v25q23 5 31 18.5t-4 38.5l-31 80h-385zM488 600h-46
l-127 -328h301zM466 942l50 12l160 -146l-18 -23l-192 51l-192 -51l-18 23l159 146z" />
    <glyph glyph-name="Atilde" unicode="&#xc3;" horiz-adv-x="930" 
d="M273 162l-29 -80q-23 -48 24 -57v-25h-248v25q28 7 43 27.5t26 43.5l228 548q4 8 5.5 16t-1 15.5t-10.5 13.5t-23 10v25h355v-25q-17 -4 -25 -10.5t-10 -14t0 -16t6 -16.5l227 -546q11 -23 26 -43.5t43 -27.5v-25h-248v25q23 5 31 18.5t-4 38.5l-31 80h-385zM488 600h-46
l-127 -328h301zM703 846q0 -26 -33 -40.5t-78 -14.5q-46 0 -85.5 10t-74.5 21t-67 19t-62 5q-12 -2 -19.5 -8t-12 -14t-7 -17l-4.5 -16h-31v107q0 13 9 23.5t24.5 17.5t35.5 10.5t42 3.5q46 0 85.5 -10t75 -21t67 -19t61.5 -5q12 1 19.5 7t12 14t7.5 17t5 17h30v-107v0z" />
    <glyph glyph-name="Adieresis" unicode="&#xc4;" horiz-adv-x="930" 
d="M247 869q0 18 6.5 33.5t18 27t27 18.5t33.5 7t33.5 -7t27 -18.5t18 -27t6.5 -33.5q0 -35 -25 -60t-60 -25t-60 25t-25 60zM499 869q0 18 7 33.5t18.5 27t27 18.5t33.5 7t33.5 -7t27 -18.5t18 -27t6.5 -33.5q0 -35 -25 -60t-60 -25q-18 0 -33.5 6.5t-27 18t-18.5 27
t-7 33.5zM273 162l-29 -80q-23 -48 24 -57v-25h-248v25q28 7 43 27.5t26 43.5l228 548q4 8 5.5 16t-1 15.5t-10.5 13.5t-23 10v25h355v-25q-17 -4 -25 -10.5t-10 -14t0 -16t6 -16.5l227 -546q11 -23 26 -43.5t43 -27.5v-25h-248v25q23 5 31 18.5t-4 38.5l-31 80h-385z
M488 600h-46l-127 -328h301z" />
    <glyph glyph-name="Aring" unicode="&#xc5;" horiz-adv-x="930" 
d="M505 896q0 19 -14 33t-33 14t-33 -14t-14 -33t14 -33t33 -14t33 14t14 33zM346 896q0 23 9 43.5t24 35.5t35.5 24t43.5 9t43.5 -9t35.5 -24t24 -35.5t9 -43.5t-9 -43.5t-24 -35.5t-35.5 -24t-43.5 -9t-43.5 9t-35.5 24t-24 35.5t-9 43.5zM273 162l-29 -80q-23 -48 24 -57
v-25h-248v25q28 7 43 27.5t26 43.5l228 548q4 8 5.5 16t-1 15.5t-10.5 13.5t-23 10v25h355v-25q-17 -4 -25 -10.5t-10 -14t0 -16t6 -16.5l227 -546q11 -23 26 -43.5t43 -27.5v-25h-248v25q23 5 31 18.5t-4 38.5l-31 80h-385zM488 600h-46l-127 -328h301z" />
    <glyph glyph-name="Ccedilla" unicode="&#xc7;" horiz-adv-x="922" 
d="M882 87l-20 -13q-8 6 -15.5 10t-13.5 0q-69 -45 -152 -71t-174 -33l-44 -40q-5 -5 -4.5 -9.5t8.5 -6.5q38 -6 65.5 -25t29.5 -52q1 -33 -17.5 -53.5t-48.5 -32t-68.5 -15.5t-75.5 -4l-6 21l46 20q28 10 36 29.5t1.5 38t-25 31.5t-42.5 12l-16 27l94 58q-86 4 -159.5 34.5
t-127 81t-83.5 118.5t-30 147q0 83 32 153.5t90 121.5t140 80t182 29q52 0 102.5 -9t92 -21t71 -23t41.5 -15q9 -3 22 -2.5t21 8.5l21 -14l-107 -172l-22 13l5 13q0 15 -22 31.5t-58 31t-81 23.5t-90 9q-62 0 -113.5 -19t-88 -52t-57 -78.5t-20.5 -99.5q0 -57 20.5 -105.5
t57.5 -84t89.5 -55t115.5 -19.5q44 0 88 11t81 27t63.5 34t37.5 31q6 8 4.5 18t-5.5 19l21 13z" />
    <glyph glyph-name="Egrave" unicode="&#xc8;" horiz-adv-x="773" 
d="M492 790l-205 62q-16 5 -27 16.5t-16.5 25.5t-4 30t9.5 31t22 23.5t29.5 11t31 -2t27.5 -15.5l156 -145zM728 -24h-24q-3 13 -9.5 18.5t-30.5 5.5h-614v25q19 5 26.5 12.5t7.5 28.5v593q0 20 -7 27.5t-27 12.5v25h605q21 0 29 3t11 21h25v-187h-25q-4 17 -10.5 25.5
t-23.5 8.5h-419v-171h248q21 0 28 6.5t13 26.5h24v-184h-24q-5 20 -13 27t-28 7h-248v-177h421q21 0 28.5 6.5t12.5 26.5h24v-187z" />
    <glyph glyph-name="Eacute" unicode="&#xc9;" horiz-adv-x="773" 
d="M338 827l156 145q12 11 27.5 15.5t31 2t29.5 -11t22 -23.5t9.5 -31t-4 -30t-16.5 -25.5t-27 -16.5l-205 -62zM728 -24h-24q-3 13 -9.5 18.5t-30.5 5.5h-614v25q19 5 26.5 12.5t7.5 28.5v593q0 20 -7 27.5t-27 12.5v25h605q21 0 29 3t11 21h25v-187h-25q-4 17 -10.5 25.5
t-23.5 8.5h-419v-171h248q21 0 28 6.5t13 26.5h24v-184h-24q-5 20 -13 27t-28 7h-248v-177h421q21 0 28.5 6.5t12.5 26.5h24v-187z" />
    <glyph glyph-name="Ecircumflex" unicode="&#xca;" horiz-adv-x="773" 
d="M728 -24h-24q-3 13 -9.5 18.5t-30.5 5.5h-614v25q19 5 26.5 12.5t7.5 28.5v593q0 20 -7 27.5t-27 12.5v25h605q21 0 29 3t11 21h25v-187h-25q-4 17 -10.5 25.5t-23.5 8.5h-419v-171h248q21 0 28 6.5t13 26.5h24v-184h-24q-5 20 -13 27t-28 7h-248v-177h421q21 0 28.5 6.5
t12.5 26.5h24v-187zM413 942l50 12l160 -146l-18 -23l-192 51l-192 -51l-18 23l159 146z" />
    <glyph glyph-name="Edieresis" unicode="&#xcb;" horiz-adv-x="773" 
d="M194 869q0 18 6.5 33.5t18 27t27 18.5t33.5 7t33.5 -7t27 -18.5t18 -27t6.5 -33.5q0 -35 -25 -60t-60 -25t-60 25t-25 60zM446 869q0 18 7 33.5t18.5 27t27 18.5t33.5 7t33.5 -7t27 -18.5t18 -27t6.5 -33.5q0 -35 -25 -60t-60 -25q-18 0 -33.5 6.5t-27 18t-18.5 27
t-7 33.5zM728 -24h-24q-3 13 -9.5 18.5t-30.5 5.5h-614v25q19 5 26.5 12.5t7.5 28.5v593q0 20 -7 27.5t-27 12.5v25h605q21 0 29 3t11 21h25v-187h-25q-4 17 -10.5 25.5t-23.5 8.5h-419v-171h248q21 0 28 6.5t13 26.5h24v-184h-24q-5 20 -13 27t-28 7h-248v-177h421
q21 0 28.5 6.5t12.5 26.5h24v-187z" />
    <glyph glyph-name="Igrave" unicode="&#xcc;" horiz-adv-x="335" 
d="M281 0h-227v25q19 5 26.5 12.5t7.5 27.5v594q0 20 -7 27.5t-27 12.5v25h227v-25q-20 -5 -27.5 -12.5t-7.5 -27.5v-594q0 -20 7.5 -27.5t27.5 -12.5v-25zM213 790l-205 62q-16 5 -27 16.5t-16.5 25.5t-4 30t9.5 31t22 23.5t29.5 11t31 -2t27.5 -15.5l156 -145z" />
    <glyph glyph-name="Iacute" unicode="&#xcd;" horiz-adv-x="335" 
d="M281 0h-227v25q19 5 26.5 12.5t7.5 27.5v594q0 20 -7 27.5t-27 12.5v25h227v-25q-20 -5 -27.5 -12.5t-7.5 -27.5v-594q0 -20 7.5 -27.5t27.5 -12.5v-25zM105 827l156 145q12 11 27.5 15.5t31 2t29.5 -11t22 -23.5t9.5 -31t-4 -30t-16.5 -25.5t-27 -16.5l-205 -62z" />
    <glyph glyph-name="Icircumflex" unicode="&#xce;" horiz-adv-x="335" 
d="M281 0h-227v25q19 5 26.5 12.5t7.5 27.5v594q0 20 -7 27.5t-27 12.5v25h227v-25q-20 -5 -27.5 -12.5t-7.5 -27.5v-594q0 -20 7.5 -27.5t27.5 -12.5v-25zM169 942l50 12l160 -146l-18 -23l-192 51l-192 -51l-18 23l159 146z" />
    <glyph glyph-name="Idieresis" unicode="&#xcf;" horiz-adv-x="335" 
d="M281 0h-227v25q19 5 26.5 12.5t7.5 27.5v594q0 20 -7 27.5t-27 12.5v25h227v-25q-20 -5 -27.5 -12.5t-7.5 -27.5v-594q0 -20 7.5 -27.5t27.5 -12.5v-25zM-42 869q0 18 6.5 33.5t18 27t27 18.5t33.5 7t33.5 -7t27 -18.5t18 -27t6.5 -33.5q0 -35 -25 -60t-60 -25t-60 25
t-25 60zM210 869q0 18 7 33.5t18.5 27t27 18.5t33.5 7t33.5 -7t27 -18.5t18 -27t6.5 -33.5q0 -35 -25 -60t-60 -25q-18 0 -33.5 6.5t-27 18t-18.5 27t-7 33.5z" />
    <glyph glyph-name="Ntilde" unicode="&#xd1;" horiz-adv-x="899" 
d="M704 846q0 -26 -33 -40.5t-78 -14.5q-46 0 -85.5 10t-74.5 21t-67 19t-62 5q-12 -2 -19.5 -8t-12 -14t-7 -17l-4.5 -16h-31v107q0 13 9 23.5t24.5 17.5t35.5 10.5t42 3.5q46 0 85.5 -10t75 -21t67 -19t61.5 -5q12 1 19.5 7t12 14t7.5 17t5 17h30v-107v0zM847 0h-217v25
q12 1 16.5 7t3 13.5t-7.5 16.5t-13 17l-405 420v-434q0 -19 5.5 -26t27.5 -14v-25h-207v25q23 5 28.5 13.5t5.5 26.5v594q0 20 -6.5 27.5t-27.5 12.5v25h241v-25q-18 -3 -18 -21q0 -10 5 -18t12 -14l385 -406v419q0 18 -4.5 25t-29.5 15v25h206v-25q-23 -7 -28 -15t-5 -25
v-594q0 -19 6.5 -27t26.5 -13v-25z" />
    <glyph glyph-name="Ograve" unicode="&#xd2;" horiz-adv-x="952" 
d="M912 362q0 -90 -36 -161.5t-97 -121.5t-140 -76.5t-165 -26.5q-85 0 -163.5 27t-138.5 77.5t-96 121.5t-36 160q0 91 37 163t99 121.5t142 75.5t167 26q84 0 161.5 -27.5t136.5 -78t94 -122t35 -158.5zM761 362q0 59 -22.5 108t-61.5 84t-91 54.5t-112 19.5
q-59 0 -110.5 -19.5t-90 -54.5t-60.5 -84t-22 -108t22 -107.5t60.5 -84t90 -55t110.5 -19.5q60 0 112 19.5t91 54.5t61.5 84t22.5 108zM512 788l-205 62q-16 5 -27 16.5t-16.5 25.5t-4 30t9.5 31t22 23.5t29.5 11t31 -2t27.5 -15.5l156 -145z" />
    <glyph glyph-name="Oacute" unicode="&#xd3;" horiz-adv-x="952" 
d="M912 362q0 -90 -36 -161.5t-97 -121.5t-140 -76.5t-165 -26.5q-85 0 -163.5 27t-138.5 77.5t-96 121.5t-36 160q0 91 37 163t99 121.5t142 75.5t167 26q84 0 161.5 -27.5t136.5 -78t94 -122t35 -158.5zM761 362q0 59 -22.5 108t-61.5 84t-91 54.5t-112 19.5
q-59 0 -110.5 -19.5t-90 -54.5t-60.5 -84t-22 -108t22 -107.5t60.5 -84t90 -55t110.5 -19.5q60 0 112 19.5t91 54.5t61.5 84t22.5 108zM428 827l156 145q12 11 27.5 15.5t31 2t29.5 -11t22 -23.5t9.5 -31t-4 -30t-16.5 -25.5t-27 -16.5l-205 -62z" />
    <glyph glyph-name="Ocircumflex" unicode="&#xd4;" horiz-adv-x="952" 
d="M912 362q0 -90 -36 -161.5t-97 -121.5t-140 -76.5t-165 -26.5q-85 0 -163.5 27t-138.5 77.5t-96 121.5t-36 160q0 91 37 163t99 121.5t142 75.5t167 26q84 0 161.5 -27.5t136.5 -78t94 -122t35 -158.5zM761 362q0 59 -22.5 108t-61.5 84t-91 54.5t-112 19.5
q-59 0 -110.5 -19.5t-90 -54.5t-60.5 -84t-22 -108t22 -107.5t60.5 -84t90 -55t110.5 -19.5q60 0 112 19.5t91 54.5t61.5 84t22.5 108zM479 942l50 12l160 -146l-18 -23l-192 51l-192 -51l-18 23l159 146z" />
    <glyph glyph-name="Otilde" unicode="&#xd5;" horiz-adv-x="952" 
d="M719 846q0 -26 -33 -40.5t-78 -14.5q-46 0 -85.5 10t-74.5 21t-67 19t-62 5q-12 -2 -19.5 -8t-12 -14t-7 -17l-4.5 -16h-31v107q0 13 9 23.5t24.5 17.5t35.5 10.5t42 3.5q46 0 85.5 -10t75 -21t67 -19t61.5 -5q12 1 19.5 7t12 14t7.5 17t5 17h30v-107v0zM912 362
q0 -90 -36 -161.5t-97 -121.5t-140 -76.5t-165 -26.5q-85 0 -163.5 27t-138.5 77.5t-96 121.5t-36 160q0 91 37 163t99 121.5t142 75.5t167 26q84 0 161.5 -27.5t136.5 -78t94 -122t35 -158.5zM761 362q0 59 -22.5 108t-61.5 84t-91 54.5t-112 19.5q-59 0 -110.5 -19.5
t-90 -54.5t-60.5 -84t-22 -108t22 -107.5t60.5 -84t90 -55t110.5 -19.5q60 0 112 19.5t91 54.5t61.5 84t22.5 108z" />
    <glyph glyph-name="Odieresis" unicode="&#xd6;" horiz-adv-x="952" 
d="M912 362q0 -90 -36 -161.5t-97 -121.5t-140 -76.5t-165 -26.5q-85 0 -163.5 27t-138.5 77.5t-96 121.5t-36 160q0 91 37 163t99 121.5t142 75.5t167 26q84 0 161.5 -27.5t136.5 -78t94 -122t35 -158.5zM761 362q0 59 -22.5 108t-61.5 84t-91 54.5t-112 19.5
q-59 0 -110.5 -19.5t-90 -54.5t-60.5 -84t-22 -108t22 -107.5t60.5 -84t90 -55t110.5 -19.5q60 0 112 19.5t91 54.5t61.5 84t22.5 108zM264 869q0 18 6.5 33.5t18 27t27 18.5t33.5 7t33.5 -7t27 -18.5t18 -27t6.5 -33.5q0 -35 -25 -60t-60 -25t-60 25t-25 60zM516 869
q0 18 7 33.5t18.5 27t27 18.5t33.5 7t33.5 -7t27 -18.5t18 -27t6.5 -33.5q0 -35 -25 -60t-60 -25q-18 0 -33.5 6.5t-27 18t-18.5 27t-7 33.5z" />
    <glyph glyph-name="multiply" unicode="&#xd7;" horiz-adv-x="621" 
d="M188 170q-17 -16 -17.5 -26t10.5 -29l-15 -14l-121 121l15 15q18 -11 28.5 -10.5t25.5 17.5l124 122l-122 122q-16 16 -26.5 17t-29.5 -10l-15 15l121 123l15 -17q-11 -18 -10 -29t17 -26l121 -124l123 124q16 15 17 25.5t-10 29.5l15 17l123 -123l-17 -15
q-19 11 -29.5 10t-25.5 -17l-124 -123l126 -122q14 -16 25 -17t28 10l17 -14l-123 -121l-14 15q11 18 10.5 28t-16.5 26l-123 123z" />
    <glyph glyph-name="Ugrave" unicode="&#xd9;" horiz-adv-x="891" 
d="M846 699q-20 -5 -27 -12.5t-7 -27.5v-395q0 -78 -20.5 -133t-64.5 -89.5t-114.5 -50t-169.5 -15.5q-97 0 -166 16.5t-113.5 51.5t-65 89.5t-20.5 130.5v395q0 20 -6.5 28t-26.5 12v25h227v-25q-20 -4 -26.5 -12t-6.5 -28v-385q0 -50 11.5 -84t36.5 -55t64 -30.5t93 -9.5
q110 0 158.5 43t48.5 140v381q0 20 -6.5 28t-26.5 12v25h228v-25zM532 788l-205 62q-16 5 -27 16.5t-16.5 25.5t-4 30t9.5 31t22 23.5t29.5 11t31 -2t27.5 -15.5l156 -145z" />
    <glyph glyph-name="Uacute" unicode="&#xda;" horiz-adv-x="891" 
d="M846 699q-20 -5 -27 -12.5t-7 -27.5v-395q0 -78 -20.5 -133t-64.5 -89.5t-114.5 -50t-169.5 -15.5q-97 0 -166 16.5t-113.5 51.5t-65 89.5t-20.5 130.5v395q0 20 -6.5 28t-26.5 12v25h227v-25q-20 -4 -26.5 -12t-6.5 -28v-385q0 -50 11.5 -84t36.5 -55t64 -30.5t93 -9.5
q110 0 158.5 43t48.5 140v381q0 20 -6.5 28t-26.5 12v25h228v-25zM413 827l156 145q12 11 27.5 15.5t31 2t29.5 -11t22 -23.5t9.5 -31t-4 -30t-16.5 -25.5t-27 -16.5l-205 -62z" />
    <glyph glyph-name="Ucircumflex" unicode="&#xdb;" horiz-adv-x="891" 
d="M846 699q-20 -5 -27 -12.5t-7 -27.5v-395q0 -78 -20.5 -133t-64.5 -89.5t-114.5 -50t-169.5 -15.5q-97 0 -166 16.5t-113.5 51.5t-65 89.5t-20.5 130.5v395q0 20 -6.5 28t-26.5 12v25h227v-25q-20 -4 -26.5 -12t-6.5 -28v-385q0 -50 11.5 -84t36.5 -55t64 -30.5t93 -9.5
q110 0 158.5 43t48.5 140v381q0 20 -6.5 28t-26.5 12v25h228v-25zM447 942l50 12l160 -146l-18 -23l-192 51l-192 -51l-18 23l159 146z" />
    <glyph glyph-name="Udieresis" unicode="&#xdc;" horiz-adv-x="891" 
d="M846 699q-20 -5 -27 -12.5t-7 -27.5v-395q0 -78 -20.5 -133t-64.5 -89.5t-114.5 -50t-169.5 -15.5q-97 0 -166 16.5t-113.5 51.5t-65 89.5t-20.5 130.5v395q0 20 -6.5 28t-26.5 12v25h227v-25q-20 -4 -26.5 -12t-6.5 -28v-385q0 -50 11.5 -84t36.5 -55t64 -30.5t93 -9.5
q110 0 158.5 43t48.5 140v381q0 20 -6.5 28t-26.5 12v25h228v-25zM234 869q0 18 6.5 33.5t18 27t27 18.5t33.5 7t33.5 -7t27 -18.5t18 -27t6.5 -33.5q0 -35 -25 -60t-60 -25t-60 25t-25 60zM486 869q0 18 7 33.5t18.5 27t27 18.5t33.5 7t33.5 -7t27 -18.5t18 -27t6.5 -33.5
q0 -35 -25 -60t-60 -25q-18 0 -33.5 6.5t-27 18t-18.5 27t-7 33.5z" />
    <glyph glyph-name="Yacute" unicode="&#xdd;" horiz-adv-x="861" 
d="M841 699q-29 -8 -54 -27t-42 -42l-227 -365v-199q0 -21 6.5 -28.5t26.5 -12.5v-25h-240v25q19 5 26 13t7 28v183l-223 381q-18 26 -43.5 44t-57.5 25v25h303v-25q-26 -5 -31 -21t8 -34l142 -249l151 249q14 19 7 35t-29 20v25h270v-25zM423 827l156 145q12 11 27.5 15.5
t31 2t29.5 -11t22 -23.5t9.5 -31t-4 -30t-16.5 -25.5t-27 -16.5l-205 -62z" />
    <glyph glyph-name="germandbls" unicode="&#xdf;" horiz-adv-x="750" 
d="M486 393q-10 -2 -17.5 -4t-7.5 -10q-1 -4 6.5 -6.5t17.5 -6.5l35.5 -11.5t42.5 -15.5t44.5 -21t41.5 -28q25 -21 39.5 -48t18.5 -56t-1.5 -59t-21.5 -57q-15 -28 -39 -46t-52.5 -29t-60.5 -15.5t-62 -4.5q-23 -1 -51.5 2t-57 10.5t-53 20.5t-38.5 31q-9 14 -11.5 32
t8.5 35l55 90l22 -13q-8 -11 -4.5 -24t12.5 -24q22 -25 58.5 -35.5t68.5 -9.5q18 0 34.5 3.5t28.5 11.5t19.5 21.5t7.5 34.5q0 22 -14.5 38t-38.5 29t-55 24l-63 22q-44 17 -78.5 38.5t-41.5 56.5q-3 18 -1.5 37.5t11.5 35.5t29 26.5t49 9.5q22 0 47 2t45.5 10.5t34 24.5
t13.5 43q0 19 -12 33.5t-30 23.5t-39.5 13.5t-40.5 4.5q-29 0 -58.5 -9t-53.5 -25.5t-39 -40t-15 -53.5v-458q0 -18 -12 -32.5t-26 -14.5h-140v25q20 5 27 13t7 28v413q0 67 25 118.5t66 86t92.5 52t105.5 17.5q47 -1 96 -6.5t89 -26.5q46 -25 74.5 -66.5t28.5 -92.5
q0 -35 -9.5 -62.5t-23.5 -44.5q-26 -32 -61.5 -45t-70.5 -16z" />
    <glyph glyph-name="agrave" unicode="&#xe0;" 
d="M420 579l-205 62q-16 5 -27 16.5t-16.5 25.5t-4 30t9.5 31t22 23.5t29.5 11t31 -2t27.5 -15.5l156 -145zM490 246v38q0 33 -13 60t-33.5 46t-47 29.5t-54.5 10.5q-37 1 -67.5 -11.5t-52 -34.5t-33.5 -52.5t-12 -66.5t11.5 -66.5t32.5 -53t51 -35t67 -11.5q28 0 55 10.5
t48.5 29.5t34.5 46t13 61zM664 0h-174v46q-26 -25 -71.5 -41.5t-99.5 -16.5q-59 0 -110 19t-88.5 54.5t-59 87t-21.5 116.5t23.5 116t63.5 86t91.5 53.5t108.5 18.5q54 0 96 -16t71 -39v43h170v-25q-20 -5 -26.5 -12.5t-6.5 -27.5v-398q0 -20 6.5 -27t26.5 -12v-25z" />
    <glyph glyph-name="aacute" unicode="&#xe1;" 
d="M275 616l156 145q12 11 27.5 15.5t31 2t29.5 -11t22 -23.5t9.5 -31t-4 -30t-16.5 -25.5t-27 -16.5l-205 -62zM490 246v38q0 33 -13 60t-33.5 46t-47 29.5t-54.5 10.5q-37 1 -67.5 -11.5t-52 -34.5t-33.5 -52.5t-12 -66.5t11.5 -66.5t32.5 -53t51 -35t67 -11.5
q28 0 55 10.5t48.5 29.5t34.5 46t13 61zM664 0h-174v46q-26 -25 -71.5 -41.5t-99.5 -16.5q-59 0 -110 19t-88.5 54.5t-59 87t-21.5 116.5t23.5 116t63.5 86t91.5 53.5t108.5 18.5q54 0 96 -16t71 -39v43h170v-25q-20 -5 -26.5 -12.5t-6.5 -27.5v-398q0 -20 6.5 -27t26.5 -12
v-25z" />
    <glyph glyph-name="acircumflex" unicode="&#xe2;" 
d="M355 733l50 12l160 -146l-18 -23l-192 51l-192 -51l-18 23l159 146zM490 246v38q0 33 -13 60t-33.5 46t-47 29.5t-54.5 10.5q-37 1 -67.5 -11.5t-52 -34.5t-33.5 -52.5t-12 -66.5t11.5 -66.5t32.5 -53t51 -35t67 -11.5q28 0 55 10.5t48.5 29.5t34.5 46t13 61zM664 0h-174
v46q-26 -25 -71.5 -41.5t-99.5 -16.5q-59 0 -110 19t-88.5 54.5t-59 87t-21.5 116.5t23.5 116t63.5 86t91.5 53.5t108.5 18.5q54 0 96 -16t71 -39v43h170v-25q-20 -5 -26.5 -12.5t-6.5 -27.5v-398q0 -20 6.5 -27t26.5 -12v-25z" />
    <glyph glyph-name="atilde" unicode="&#xe3;" 
d="M591 638q0 -26 -33 -40.5t-78 -14.5q-46 0 -85.5 10t-74.5 21t-67 19t-62 5q-12 -2 -19.5 -8t-12 -14t-7 -17l-4.5 -16h-31v107q0 13 9 23.5t24.5 17.5t35.5 10.5t42 3.5q46 0 85.5 -10t75 -21t67 -19t61.5 -5q12 1 19.5 7t12 14t7.5 17t5 17h30v-107v0zM490 246v38
q0 33 -13 60t-33.5 46t-47 29.5t-54.5 10.5q-37 1 -67.5 -11.5t-52 -34.5t-33.5 -52.5t-12 -66.5t11.5 -66.5t32.5 -53t51 -35t67 -11.5q28 0 55 10.5t48.5 29.5t34.5 46t13 61zM664 0h-174v46q-26 -25 -71.5 -41.5t-99.5 -16.5q-59 0 -110 19t-88.5 54.5t-59 87
t-21.5 116.5t23.5 116t63.5 86t91.5 53.5t108.5 18.5q54 0 96 -16t71 -39v43h170v-25q-20 -5 -26.5 -12.5t-6.5 -27.5v-398q0 -20 6.5 -27t26.5 -12v-25z" />
    <glyph glyph-name="adieresis" unicode="&#xe4;" 
d="M135 660q0 18 6.5 33.5t18 27t27 18.5t33.5 7t33.5 -7t27 -18.5t18 -27t6.5 -33.5q0 -35 -25 -60t-60 -25t-60 25t-25 60zM387 660q0 18 7 33.5t18.5 27t27 18.5t33.5 7t33.5 -7t27 -18.5t18 -27t6.5 -33.5q0 -35 -25 -60t-60 -25q-18 0 -33.5 6.5t-27 18t-18.5 27
t-7 33.5zM490 246v38q0 33 -13 60t-33.5 46t-47 29.5t-54.5 10.5q-37 1 -67.5 -11.5t-52 -34.5t-33.5 -52.5t-12 -66.5t11.5 -66.5t32.5 -53t51 -35t67 -11.5q28 0 55 10.5t48.5 29.5t34.5 46t13 61zM664 0h-174v46q-26 -25 -71.5 -41.5t-99.5 -16.5q-59 0 -110 19
t-88.5 54.5t-59 87t-21.5 116.5t23.5 116t63.5 86t91.5 53.5t108.5 18.5q54 0 96 -16t71 -39v43h170v-25q-20 -5 -26.5 -12.5t-6.5 -27.5v-398q0 -20 6.5 -27t26.5 -12v-25z" />
    <glyph glyph-name="aring" unicode="&#xe5;" 
d="M399 699q0 19 -14 33t-33 14t-33 -14t-14 -33t14 -33t33 -14t33 14t14 33zM240 699q0 23 9 43.5t24 35.5t35.5 24t43.5 9t43.5 -9t35.5 -24t24 -35.5t9 -43.5t-9 -43.5t-24 -35.5t-35.5 -24t-43.5 -9t-43.5 9t-35.5 24t-24 35.5t-9 43.5zM490 246v38q0 33 -13 60
t-33.5 46t-47 29.5t-54.5 10.5q-37 1 -67.5 -11.5t-52 -34.5t-33.5 -52.5t-12 -66.5t11.5 -66.5t32.5 -53t51 -35t67 -11.5q28 0 55 10.5t48.5 29.5t34.5 46t13 61zM664 0h-174v46q-26 -25 -71.5 -41.5t-99.5 -16.5q-59 0 -110 19t-88.5 54.5t-59 87t-21.5 116.5t23.5 116
t63.5 86t91.5 53.5t108.5 18.5q54 0 96 -16t71 -39v43h170v-25q-20 -5 -26.5 -12.5t-6.5 -27.5v-398q0 -20 6.5 -27t26.5 -12v-25z" />
    <glyph glyph-name="ccedilla" unicode="&#xe7;" horiz-adv-x="662" 
d="M634 37l-21 -12q-15 9 -35.5 4t-40.5 -12q-58 -20 -119 -28l-55 -49q-5 -5 -4.5 -9.5t8.5 -6.5q38 -6 65.5 -25t29.5 -52q1 -33 -17.5 -53.5t-48.5 -32t-68.5 -15.5t-75.5 -4l-6 21l46 20q28 10 36 29.5t1.5 38t-25 31.5t-42.5 12l-16 27l106 65q-64 1 -121 18.5
t-99.5 51.5t-67 85.5t-24.5 121.5q0 71 25.5 123t70 86t103 50.5t124.5 16.5q46 0 88.5 -8t85.5 -23q20 -7 40.5 -11.5t35.5 3.5l21 -12l-79 -141l-22 11q2 21 -18 34.5t-47.5 21.5t-55 11t-40.5 3q-37 0 -70.5 -11.5t-59 -33t-40.5 -52t-15 -68.5t15 -69t40.5 -52.5t59 -33
t70.5 -11.5q31 0 66 7.5t67 21.5q9 4 20 16t8 24l22 12z" />
    <glyph glyph-name="egrave" unicode="&#xe8;" horiz-adv-x="678" 
d="M439 579l-205 62q-16 5 -27 16.5t-16.5 25.5t-4 30t9.5 31t22 23.5t29.5 11t31 -2t27.5 -15.5l156 -145zM487 316q-9 54 -47 83.5t-97 29.5q-58 0 -99.5 -29.5t-55.5 -83.5h299zM536 17q-22 -8 -42 -14t-41.5 -9.5t-46.5 -5.5t-56 -2q-66 0 -122.5 16.5t-98 51
t-65.5 86.5t-24 124q0 64 24.5 115.5t66 86.5t96.5 54t117 19q60 0 111 -17.5t88.5 -51t58.5 -83.5t21 -114q-1 -30 19 -39v-21h-451q3 -27 16.5 -49t36 -38t52 -24.5t64.5 -8.5q49 0 88.5 9t56.5 19q11 7 20.5 17t6.5 22l23 12l75 -138l-22 -11q-15 10 -33.5 5.5
t-38.5 -11.5z" />
    <glyph glyph-name="eacute" unicode="&#xe9;" horiz-adv-x="678" 
d="M280 616l156 145q12 11 27.5 15.5t31 2t29.5 -11t22 -23.5t9.5 -31t-4 -30t-16.5 -25.5t-27 -16.5l-205 -62zM487 316q-9 54 -47 83.5t-97 29.5q-58 0 -99.5 -29.5t-55.5 -83.5h299zM536 17q-22 -8 -42 -14t-41.5 -9.5t-46.5 -5.5t-56 -2q-66 0 -122.5 16.5t-98 51
t-65.5 86.5t-24 124q0 64 24.5 115.5t66 86.5t96.5 54t117 19q60 0 111 -17.5t88.5 -51t58.5 -83.5t21 -114q-1 -30 19 -39v-21h-451q3 -27 16.5 -49t36 -38t52 -24.5t64.5 -8.5q49 0 88.5 9t56.5 19q11 7 20.5 17t6.5 22l23 12l75 -138l-22 -11q-15 10 -33.5 5.5
t-38.5 -11.5z" />
    <glyph glyph-name="ecircumflex" unicode="&#xea;" horiz-adv-x="678" 
d="M345 733l50 12l160 -146l-18 -23l-192 51l-192 -51l-18 23l159 146zM487 316q-9 54 -47 83.5t-97 29.5q-58 0 -99.5 -29.5t-55.5 -83.5h299zM536 17q-22 -8 -42 -14t-41.5 -9.5t-46.5 -5.5t-56 -2q-66 0 -122.5 16.5t-98 51t-65.5 86.5t-24 124q0 64 24.5 115.5t66 86.5
t96.5 54t117 19q60 0 111 -17.5t88.5 -51t58.5 -83.5t21 -114q-1 -30 19 -39v-21h-451q3 -27 16.5 -49t36 -38t52 -24.5t64.5 -8.5q49 0 88.5 9t56.5 19q11 7 20.5 17t6.5 22l23 12l75 -138l-22 -11q-15 10 -33.5 5.5t-38.5 -11.5z" />
    <glyph glyph-name="edieresis" unicode="&#xeb;" horiz-adv-x="678" 
d="M135 660q0 18 6.5 33.5t18 27t27 18.5t33.5 7t33.5 -7t27 -18.5t18 -27t6.5 -33.5q0 -35 -25 -60t-60 -25t-60 25t-25 60zM387 660q0 18 7 33.5t18.5 27t27 18.5t33.5 7t33.5 -7t27 -18.5t18 -27t6.5 -33.5q0 -35 -25 -60t-60 -25q-18 0 -33.5 6.5t-27 18t-18.5 27
t-7 33.5zM487 316q-9 54 -47 83.5t-97 29.5q-58 0 -99.5 -29.5t-55.5 -83.5h299zM536 17q-22 -8 -42 -14t-41.5 -9.5t-46.5 -5.5t-56 -2q-66 0 -122.5 16.5t-98 51t-65.5 86.5t-24 124q0 64 24.5 115.5t66 86.5t96.5 54t117 19q60 0 111 -17.5t88.5 -51t58.5 -83.5t21 -114
q-1 -30 19 -39v-21h-451q3 -27 16.5 -49t36 -38t52 -24.5t64.5 -8.5q49 0 88.5 9t56.5 19q11 7 20.5 17t6.5 22l23 12l75 -138l-22 -11q-15 10 -33.5 5.5t-38.5 -11.5z" />
    <glyph glyph-name="igrave" unicode="&#xec;" horiz-adv-x="296" 
d="M230 579l-205 62q-16 5 -27 16.5t-16.5 25.5t-4 30t9.5 31t22 23.5t29.5 11t31 -2t27.5 -15.5l156 -145zM224 527v-462q0 -20 6.5 -27.5t25.5 -12.5v-25h-210v25q19 5 25.5 12t6.5 27v398q0 20 -6 27.5t-26 12.5v25h178z" />
    <glyph glyph-name="iacute" unicode="&#xed;" horiz-adv-x="296" 
d="M45 616l156 145q12 11 27.5 15.5t31 2t29.5 -11t22 -23.5t9.5 -31t-4 -30t-16.5 -25.5t-27 -16.5l-205 -62zM219 527v-462q0 -20 6.5 -27.5t25.5 -12.5v-25h-210v25q19 5 25.5 12t6.5 27v398q0 20 -6 27.5t-26 12.5v25h178z" />
    <glyph glyph-name="icircumflex" unicode="&#xee;" horiz-adv-x="296" 
d="M151 733l50 12l160 -146l-18 -23l-192 51l-192 -51l-18 23l159 146zM224 527v-462q0 -20 6.5 -27.5t25.5 -12.5v-25h-210v25q19 5 25.5 12t6.5 27v398q0 20 -6 27.5t-26 12.5v25h178z" />
    <glyph glyph-name="idieresis" unicode="&#xef;" horiz-adv-x="296" 
d="M-60 660q0 18 6.5 33.5t18 27t27 18.5t33.5 7t33.5 -7t27 -18.5t18 -27t6.5 -33.5q0 -35 -25 -60t-60 -25t-60 25t-25 60zM192 660q0 18 7 33.5t18.5 27t27 18.5t33.5 7t33.5 -7t27 -18.5t18 -27t6.5 -33.5q0 -35 -25 -60t-60 -25q-18 0 -33.5 6.5t-27 18t-18.5 27
t-7 33.5zM224 527v-462q0 -20 6.5 -27.5t25.5 -12.5v-25h-210v25q19 5 25.5 12t6.5 27v398q0 20 -6 27.5t-26 12.5v25h178z" />
    <glyph glyph-name="ntilde" unicode="&#xf1;" horiz-adv-x="671" 
d="M572 641q0 -26 -33 -40.5t-78 -14.5q-46 0 -85.5 10t-74.5 21t-67 19t-62 5q-12 -2 -19.5 -8t-12 -14t-7 -17l-4.5 -16h-31v107q0 13 9 23.5t24.5 17.5t35.5 10.5t42 3.5q46 0 85.5 -10t75 -21t67 -19t61.5 -5q12 1 19.5 7t12 14t7.5 17t5 17h30v-107v0zM254 25v-25h-208
v25q19 5 25.5 12t6.5 27v398q0 20 -6.5 27.5t-25.5 12.5v25h176v-47q33 28 77 42.5t81 14.5q61 0 104 -15.5t69 -42.5t38 -63.5t12 -79.5v-271q0 -20 7 -27.5t26 -12.5v-25h-209v25q19 5 25.5 12t6.5 27v258q0 52 -27.5 79t-82.5 26q-26 0 -49 -9.5t-40 -26.5t-27.5 -41
t-10.5 -52v-233q0 -20 6.5 -27.5t25.5 -12.5z" />
    <glyph glyph-name="ograve" unicode="&#xf2;" horiz-adv-x="676" 
d="M438 579l-205 62q-16 5 -27 16.5t-16.5 25.5t-4 30t9.5 31t22 23.5t29.5 11t31 -2t27.5 -15.5l156 -145zM497 262q0 75 -43.5 120t-115.5 45q-36 0 -65 -11.5t-50 -33.5t-32.5 -52.5t-11.5 -67.5q0 -38 11.5 -68t32.5 -51.5t50 -33t65 -11.5q72 0 115.5 44.5t43.5 119.5z
M636 262q0 -65 -23.5 -116t-64 -86.5t-94.5 -54.5t-116 -19t-116.5 19t-95 54.5t-63.5 86.5t-23 116q0 64 23 115.5t63.5 87.5t95 55t116.5 19t116 -19t94.5 -55t64 -87.5t23.5 -115.5z" />
    <glyph glyph-name="oacute" unicode="&#xf3;" horiz-adv-x="676" 
d="M231 616l156 145q12 11 27.5 15.5t31 2t29.5 -11t22 -23.5t9.5 -31t-4 -30t-16.5 -25.5t-27 -16.5l-205 -62zM497 262q0 75 -43.5 120t-115.5 45q-36 0 -65 -11.5t-50 -33.5t-32.5 -52.5t-11.5 -67.5q0 -38 11.5 -68t32.5 -51.5t50 -33t65 -11.5q72 0 115.5 44.5
t43.5 119.5zM636 262q0 -65 -23.5 -116t-64 -86.5t-94.5 -54.5t-116 -19t-116.5 19t-95 54.5t-63.5 86.5t-23 116q0 64 23 115.5t63.5 87.5t95 55t116.5 19t116 -19t94.5 -55t64 -87.5t23.5 -115.5z" />
    <glyph glyph-name="ocircumflex" unicode="&#xf4;" horiz-adv-x="676" 
d="M342 733l50 12l160 -146l-18 -23l-192 51l-192 -51l-18 23l159 146zM497 262q0 75 -43.5 120t-115.5 45q-36 0 -65 -11.5t-50 -33.5t-32.5 -52.5t-11.5 -67.5q0 -38 11.5 -68t32.5 -51.5t50 -33t65 -11.5q72 0 115.5 44.5t43.5 119.5zM636 262q0 -65 -23.5 -116
t-64 -86.5t-94.5 -54.5t-116 -19t-116.5 19t-95 54.5t-63.5 86.5t-23 116q0 64 23 115.5t63.5 87.5t95 55t116.5 19t116 -19t94.5 -55t64 -87.5t23.5 -115.5z" />
    <glyph glyph-name="otilde" unicode="&#xf5;" horiz-adv-x="676" 
d="M578 641q0 -26 -33 -40.5t-78 -14.5q-46 0 -85.5 10t-74.5 21t-67 19t-62 5q-12 -2 -19.5 -8t-12 -14t-7 -17l-4.5 -16h-31v107q0 13 9 23.5t24.5 17.5t35.5 10.5t42 3.5q46 0 85.5 -10t75 -21t67 -19t61.5 -5q12 1 19.5 7t12 14t7.5 17t5 17h30v-107v0zM497 262
q0 75 -43.5 120t-115.5 45q-36 0 -65 -11.5t-50 -33.5t-32.5 -52.5t-11.5 -67.5q0 -38 11.5 -68t32.5 -51.5t50 -33t65 -11.5q72 0 115.5 44.5t43.5 119.5zM636 262q0 -65 -23.5 -116t-64 -86.5t-94.5 -54.5t-116 -19t-116.5 19t-95 54.5t-63.5 86.5t-23 116q0 64 23 115.5
t63.5 87.5t95 55t116.5 19t116 -19t94.5 -55t64 -87.5t23.5 -115.5z" />
    <glyph glyph-name="odieresis" unicode="&#xf6;" horiz-adv-x="676" 
d="M128 660q0 18 6.5 33.5t18 27t27 18.5t33.5 7t33.5 -7t27 -18.5t18 -27t6.5 -33.5q0 -35 -25 -60t-60 -25t-60 25t-25 60zM380 660q0 18 7 33.5t18.5 27t27 18.5t33.5 7t33.5 -7t27 -18.5t18 -27t6.5 -33.5q0 -35 -25 -60t-60 -25q-18 0 -33.5 6.5t-27 18t-18.5 27
t-7 33.5zM497 262q0 75 -43.5 120t-115.5 45q-36 0 -65 -11.5t-50 -33.5t-32.5 -52.5t-11.5 -67.5q0 -38 11.5 -68t32.5 -51.5t50 -33t65 -11.5q72 0 115.5 44.5t43.5 119.5zM636 262q0 -65 -23.5 -116t-64 -86.5t-94.5 -54.5t-116 -19t-116.5 19t-95 54.5t-63.5 86.5
t-23 116q0 64 23 115.5t63.5 87.5t95 55t116.5 19t116 -19t94.5 -55t64 -87.5t23.5 -115.5z" />
    <glyph glyph-name="divide" unicode="&#xf7;" horiz-adv-x="603" 
d="M377 190q0 -32 -22 -54t-53 -22t-53 22t-22 54q0 30 22 52t53 22t53 -22t22 -52zM377 556q0 -32 -22 -54t-53 -22t-53 22t-22 54q0 30 22 52t53 22t53 -22t22 -52zM553 293h-25q-5 18 -13 22t-28 4h-372q-21 0 -28.5 -4t-12.5 -22h-24v158h25q5 -18 12.5 -22t27.5 -4h372
q20 0 28 3.5t13 22.5h25v-158z" />
    <glyph glyph-name="ugrave" unicode="&#xf9;" horiz-adv-x="670" 
d="M408 579l-205 62q-16 5 -27 16.5t-16.5 25.5t-4 30t9.5 31t22 23.5t29.5 11t31 -2t27.5 -15.5l156 -145zM449 227v235q0 20 -7 27.5t-26 12.5v25h209v-25q-19 -5 -25.5 -12t-6.5 -27v-398q0 -20 6 -27.5t26 -12.5v-25h-176v48q-14 -16 -34 -27t-41.5 -18.5t-43 -11
t-39.5 -3.5q-62 0 -104.5 16t-69 43.5t-38.5 64.5t-12 80v270q0 20 -6.5 27.5t-25.5 12.5v25h209v-25q-19 -5 -25.5 -12t-6.5 -27v-257q0 -52 27.5 -79t81.5 -26q25 0 48 9.5t41 26t28.5 39.5t10.5 51z" />
    <glyph glyph-name="uacute" unicode="&#xfa;" horiz-adv-x="670" 
d="M281 616l156 145q12 11 27.5 15.5t31 2t29.5 -11t22 -23.5t9.5 -31t-4 -30t-16.5 -25.5t-27 -16.5l-205 -62zM449 227v235q0 20 -7 27.5t-26 12.5v25h209v-25q-19 -5 -25.5 -12t-6.5 -27v-398q0 -20 6 -27.5t26 -12.5v-25h-176v48q-14 -16 -34 -27t-41.5 -18.5t-43 -11
t-39.5 -3.5q-62 0 -104.5 16t-69 43.5t-38.5 64.5t-12 80v270q0 20 -6.5 27.5t-25.5 12.5v25h209v-25q-19 -5 -25.5 -12t-6.5 -27v-257q0 -52 27.5 -79t81.5 -26q25 0 48 9.5t41 26t28.5 39.5t10.5 51z" />
    <glyph glyph-name="ucircumflex" unicode="&#xfb;" horiz-adv-x="670" 
d="M340 733l50 12l160 -146l-18 -23l-192 51l-192 -51l-18 23l159 146zM449 227v235q0 20 -7 27.5t-26 12.5v25h209v-25q-19 -5 -25.5 -12t-6.5 -27v-398q0 -20 6 -27.5t26 -12.5v-25h-176v48q-14 -16 -34 -27t-41.5 -18.5t-43 -11t-39.5 -3.5q-62 0 -104.5 16t-69 43.5
t-38.5 64.5t-12 80v270q0 20 -6.5 27.5t-25.5 12.5v25h209v-25q-19 -5 -25.5 -12t-6.5 -27v-257q0 -52 27.5 -79t81.5 -26q25 0 48 9.5t41 26t28.5 39.5t10.5 51z" />
    <glyph glyph-name="udieresis" unicode="&#xfc;" horiz-adv-x="670" 
d="M126 660q0 18 6.5 33.5t18 27t27 18.5t33.5 7t33.5 -7t27 -18.5t18 -27t6.5 -33.5q0 -35 -25 -60t-60 -25t-60 25t-25 60zM378 660q0 18 7 33.5t18.5 27t27 18.5t33.5 7t33.5 -7t27 -18.5t18 -27t6.5 -33.5q0 -35 -25 -60t-60 -25q-18 0 -33.5 6.5t-27 18t-18.5 27
t-7 33.5zM449 227v235q0 20 -7 27.5t-26 12.5v25h209v-25q-19 -5 -25.5 -12t-6.5 -27v-398q0 -20 6 -27.5t26 -12.5v-25h-176v48q-14 -16 -34 -27t-41.5 -18.5t-43 -11t-39.5 -3.5q-62 0 -104.5 16t-69 43.5t-38.5 64.5t-12 80v270q0 20 -6.5 27.5t-25.5 12.5v25h209v-25
q-19 -5 -25.5 -12t-6.5 -27v-257q0 -52 27.5 -79t81.5 -26q25 0 48 9.5t41 26t28.5 39.5t10.5 51z" />
    <glyph glyph-name="yacute" unicode="&#xfd;" horiz-adv-x="669" 
d="M301 616l156 145q12 11 27.5 15.5t31 2t29.5 -11t22 -23.5t9.5 -31t-4 -30t-16.5 -25.5t-27 -16.5l-205 -62zM297 -110q76 1 118 41t42 117q-15 -18 -35.5 -29.5t-42.5 -18.5t-44 -9.5t-40 -2.5q-62 0 -104.5 15.5t-68.5 43t-38 64.5t-12 80v272q0 21 -6 27.5t-26 11.5
v25h208v-25q-21 -5 -26.5 -12t-5.5 -27v-257q0 -52 27.5 -79t82.5 -26q25 0 48.5 9.5t40.5 26.5t27.5 40.5t10.5 52.5v233q0 23 -7 28.5t-25 10.5v25h208v-25q-20 -5 -26 -12t-6 -27v-408q0 -69 -21 -121t-59.5 -86.5t-92 -52t-118.5 -17.5q-35 0 -83 7.5t-92 23.5
q-10 4 -20.5 7.5t-20.5 5.5t-19.5 1t-16.5 -6l-19 11l80 143l21 -12q-4 -12 7 -24t20 -17q32 -14 68 -21t66 -7z" />
    <glyph glyph-name="uni00AD" unicode="&#xad;" horiz-adv-x="600" 
d="M550 288h-25q-5 18 -13 22t-28 4h-369q-21 0 -28.5 -4t-12.5 -22h-24v168h25q5 -18 12.5 -22t27.5 -4h369q20 0 28 3.5t13 22.5h25v-168z" />
    <glyph glyph-name="Euro" unicode="&#x20ac;" horiz-adv-x="866" 
d="M34 238v88h52q-4 27 -1 57h-51v88h65q23 80 74 132.5t113 84t126.5 44t114.5 11.5q53 -1 104 -8t107 -32q11 -2 21 4.5t12 16.5h25v-192h-32v21q-36 33 -97 53t-129 20q-43 0 -85.5 -9t-79.5 -27.5t-66 -48t-45 -70.5h473l-40 -88h-452q-2 -14 -1.5 -28.5t2.5 -28.5h417
l-40 -88h-354q17 -36 46 -63t65 -45t77 -26.5t83 -8.5q67 0 128 18t98 56v21h32v-190h-25q-2 10 -12 15.5t-21 3.5q-48 -23 -103 -31.5t-108 -9.5q-49 -1 -112 11t-124 42t-112 80.5t-76 126.5h-69z" />
    <glyph glyph-name="A" unicode="A" horiz-adv-x="930" 
d="M273 162l-29 -80q-23 -48 24 -57v-25h-248v25q28 7 43 27.5t26 43.5l228 548q4 8 5.5 16t-1 15.5t-10.5 13.5t-23 10v25h355v-25q-17 -4 -25 -10.5t-10 -14t0 -16t6 -16.5l227 -546q11 -23 26 -43.5t43 -27.5v-25h-248v25q23 5 31 18.5t-4 38.5l-31 80h-385zM488 600h-46
l-127 -328h301z" />
    <glyph glyph-name="ring" unicode="&#x2da;" horiz-adv-x="916" 
d="M505 896q0 19 -14 33t-33 14t-33 -14t-14 -33t14 -33t33 -14t33 14t14 33zM346 896q0 23 9 43.5t24 35.5t35.5 24t43.5 9t43.5 -9t35.5 -24t24 -35.5t9 -43.5t-9 -43.5t-24 -35.5t-35.5 -24t-43.5 -9t-43.5 9t-35.5 24t-24 35.5t-9 43.5z" />
    <glyph glyph-name="caron" unicode="&#x2c7;" horiz-adv-x="916" 
d="M403 788l-159 146l18 23l192 -51l192 51l18 -23l-160 -146l-50 12z" />
    <glyph glyph-name="question" unicode="?" horiz-adv-x="539" 
d="M196 69q0 19 7 36t19.5 29.5t29.5 19.5t36 7t36 -7t30 -19.5t20 -29.5t7 -36q0 -39 -27 -66t-66 -27q-19 0 -36 7t-29.5 20t-19.5 29.5t-7 36.5zM509 569q0 -47 -12 -79t-30.5 -56t-40 -42.5t-40 -37.5t-31 -42t-12.5 -55q-1 -8 7.5 -18t26.5 -13v-25h-180v25
q14 4 23.5 12t11.5 22q6 43 25.5 78.5t40.5 67t38 61t17 60.5q0 42 -20 67.5t-57 25.5q-27 0 -51.5 -8.5t-40.5 -30.5q-12 -15 -14.5 -32.5t1.5 -30.5l-18 -11l-113 154l20 12q7 -5 18.5 -8t18.5 4q44 40 94.5 60t120.5 20q36 0 71.5 -12t63 -35t45 -56.5t17.5 -76.5z" />
    <glyph glyph-name="questiondown" unicode="&#xbf;" horiz-adv-x="539" 
d="M343 655q0 -19 -7 -36t-19.5 -29.5t-29.5 -19.5t-36 -7q-20 0 -36.5 7t-29.5 19.5t-20 29.5t-7 36q0 39 27 66t66 27q19 0 36 -7t29.5 -20t19.5 -30t7 -36zM30 155q0 46 12 78.5t30.5 56t40 42.5t40 38t31 42t12.5 55q1 8 -7.5 18t-26.5 13v25h180v-25q-14 -4 -23.5 -12
t-11.5 -22q-6 -44 -25.5 -79t-40.5 -66.5t-38 -61t-17 -60.5q0 -42 20 -67.5t57 -25.5q27 0 51.5 8.5t40.5 30.5q12 15 14.5 32.5t-1.5 30.5l18 11l113 -154l-20 -12q-7 5 -18.5 8t-18.5 -4q-44 -40 -94.5 -60t-120.5 -20q-36 0 -71.5 12t-63 35t-45 56.5t-17.5 76.5z" />
    <glyph glyph-name="E" unicode="E" horiz-adv-x="773" 
d="M728 -24h-24q-3 13 -9.5 18.5t-30.5 5.5h-614v25q19 5 26.5 12.5t7.5 28.5v593q0 20 -7 27.5t-27 12.5v25h605q21 0 29 3t11 21h25v-187h-25q-4 17 -10.5 25.5t-23.5 8.5h-419v-171h248q21 0 28 6.5t13 26.5h24v-184h-24q-5 20 -13 27t-28 7h-248v-177h421q21 0 28.5 6.5
t12.5 26.5h24v-187z" />
    <glyph glyph-name="at" unicode="@" horiz-adv-x="846" 
d="M506 407q0 23 -4.5 37.5t-11.5 23t-15 12t-15 3.5q-17 0 -32 -12t-28 -31.5t-23.5 -44.5t-18.5 -52q-3 -9 -7 -25t-7.5 -35t-4.5 -38.5t2.5 -35.5t13 -26t27.5 -10q24 0 46.5 25t39.5 61.5t27.5 77t10.5 70.5zM793 417q0 -53 -13.5 -95.5t-35 -74.5t-47.5 -55t-52 -37.5
t-48 -21t-35 -6.5q-48 0 -65.5 27t-8.5 65q-11 -17 -24 -33.5t-28.5 -29t-35.5 -20t-44 -7.5q-21 0 -45 10t-44 29.5t-33 48.5t-13 67q0 52 20.5 95.5t52.5 75.5t71.5 50t77.5 18q32 0 54.5 -16t30.5 -51l14 57h119l-79 -294q-2 -6 -3.5 -14.5t-1 -15.5t4 -12t11.5 -5
q16 0 39.5 20.5t45 54.5t37 77.5t15.5 89.5q0 45 -19.5 87t-55 74t-85 51.5t-109.5 19.5q-74 0 -132 -24.5t-98 -66.5t-60.5 -97.5t-20.5 -117.5q0 -78 28 -136t73.5 -95.5t103 -56t115.5 -18.5q51 0 96 14.5t80.5 35.5t60 44t34.5 40h70q-32 -54 -76 -90.5t-93.5 -59
t-101.5 -32.5t-98 -10q-83 0 -155 23.5t-125 69.5t-83.5 113.5t-30.5 155.5q0 79 31 148t85.5 120t128 80.5t158.5 29.5q55 0 115 -14.5t110.5 -49t83.5 -92t33 -143.5z" />
    <glyph glyph-name="Ydieresis" unicode="&#x178;" horiz-adv-x="861" 
d="M841 699q-29 -8 -54 -27t-42 -42l-227 -365v-199q0 -21 6.5 -28.5t26.5 -12.5v-25h-240v25q19 5 26 13t7 28v183l-223 381q-18 26 -43.5 44t-57.5 25v25h303v-25q-26 -5 -31 -21t8 -34l142 -249l151 249q14 19 7 35t-29 20v25h270v-25zM242 869q0 18 6.5 33.5t18 27
t27 18.5t33.5 7t33.5 -7t27 -18.5t18 -27t6.5 -33.5q0 -35 -25 -60t-60 -25t-60 25t-25 60zM494 869q0 18 7 33.5t18.5 27t27 18.5t33.5 7t33.5 -7t27 -18.5t18 -27t6.5 -33.5q0 -35 -25 -60t-60 -25q-18 0 -33.5 6.5t-27 18t-18.5 27t-7 33.5z" />
    <glyph glyph-name="scaron" unicode="&#x161;" horiz-adv-x="616" 
d="M267 589l-159 146l18 23l192 -51l192 51l18 -23l-160 -146l-50 12zM317 541q51 -1 93.5 -11t78.5 -24q16 -6 27 -8.5t29 11.5l23 -11l-76 -159l-27 12q5 20 -16 40q-12 12 -30 20.5t-37.5 14t-39.5 8.5t-36 3q-23 0 -44.5 -3.5t-38 -10.5t-26.5 -17.5t-9 -24.5
q1 -26 28 -36.5t79 -15.5q17 -2 38.5 -4l43.5 -4q40 -3 76.5 -13t63.5 -29t43.5 -48t16.5 -69q0 -50 -23 -84t-60.5 -54.5t-86 -29t-98.5 -8.5q-44 0 -79.5 5.5t-62.5 13t-44 14.5l-24 10q-11 5 -21 3.5t-17 -12.5l-27 12l73 163l25 -11q-5 -9 -2.5 -18.5t10 -17.5t18 -14.5
t21.5 -10.5q39 -15 73 -22t61 -7q15 0 35.5 2t38.5 8.5t30.5 18t11.5 30.5q-1 23 -25.5 35t-83.5 15q-25 2 -47 3.5t-36 3.5q-35 3 -68.5 12t-60 27t-43.5 46.5t-17 69.5q-1 57 27.5 93.5t73.5 55.5q35 15 77.5 21t90.5 6z" />
    <glyph glyph-name="Scaron" unicode="&#x160;" horiz-adv-x="823" 
d="M780 227q0 -46 -17.5 -81.5t-47 -63t-67.5 -46.5t-79.5 -30.5t-83.5 -17t-78 -5.5q-77 0 -150.5 12t-143.5 45q-15 7 -27.5 7t-23.5 -14l-29 12l79 179l28 -10q-3 -10 -1 -20t12 -18q22 -17 55 -29t69.5 -19.5t72.5 -11.5t64 -4q21 0 54 3.5t64 13.5t53.5 29t22.5 49
q0 35 -45.5 57t-138.5 27q-37 1 -77.5 3t-81 8t-78 18.5t-67.5 35.5q-33 25 -48.5 61.5t-15.5 81.5q0 54 24.5 99t69.5 76.5t107.5 49t139.5 17.5q63 0 133 -12t145 -44q27 -13 41 -14.5t31 11.5l23 -12l-90 -173l-27 13q0 21 -15 37q-21 20 -51 33.5t-63 22t-66 12t-61 3.5
q-20 0 -50.5 -3.5t-58.5 -14t-48 -28.5t-20 -47q0 -27 15 -44t37 -26.5t46.5 -13t44.5 -4.5q73 -5 138 -8.5t127 -22.5q31 -11 59 -27.5t49 -39t33.5 -51t12.5 -61.5zM359 788l-159 146l18 23l192 -51l192 51l18 -23l-160 -146l-50 12z" />
    <glyph glyph-name="ydieresis" unicode="&#xff;" horiz-adv-x="669" 
d="M127 660q0 18 6.5 33.5t18 27t27 18.5t33.5 7t33.5 -7t27 -18.5t18 -27t6.5 -33.5q0 -35 -25 -60t-60 -25t-60 25t-25 60zM379 660q0 18 7 33.5t18.5 27t27 18.5t33.5 7t33.5 -7t27 -18.5t18 -27t6.5 -33.5q0 -35 -25 -60t-60 -25q-18 0 -33.5 6.5t-27 18t-18.5 27
t-7 33.5zM297 -110q76 1 118 41t42 117q-15 -18 -35.5 -29.5t-42.5 -18.5t-44 -9.5t-40 -2.5q-62 0 -104.5 15.5t-68.5 43t-38 64.5t-12 80v272q0 21 -6 27.5t-26 11.5v25h208v-25q-21 -5 -26.5 -12t-5.5 -27v-257q0 -52 27.5 -79t82.5 -26q25 0 48.5 9.5t40.5 26.5
t27.5 40.5t10.5 52.5v233q0 23 -7 28.5t-25 10.5v25h208v-25q-20 -5 -26 -12t-6 -27v-408q0 -69 -21 -121t-59.5 -86.5t-92 -52t-118.5 -17.5q-35 0 -83 7.5t-92 23.5q-10 4 -20.5 7.5t-20.5 5.5t-19.5 1t-16.5 -6l-19 11l80 143l21 -12q-4 -12 7 -24t20 -17q32 -14 68 -21
t66 -7z" />
    <glyph glyph-name="seven" unicode="7" horiz-adv-x="719" 
d="M684 621l-334 -545q-11 -17 -9.5 -31.5t24.5 -19.5v-25h-257v25q15 3 33.5 14.5t28.5 28.5l331 528h-405q-19 0 -28 -7.5t-14 -26.5h-24v186h24q5 -15 10.5 -19.5t25.5 -4.5h594v-103z" />
    <glyph glyph-name="Eth" unicode="&#xd0;" horiz-adv-x="958" 
d="M915 364q0 -66 -19.5 -131.5t-68.5 -117t-132.5 -83.5t-210.5 -32h-374v25q19 5 26.5 12.5t7.5 28.5v241h-31q-21 0 -27 -4t-11 -22h-25v168h25q5 -18 11 -22t26 -4h32v235q0 21 -7.5 28.5t-26.5 12.5v25h384q121 0 202 -31.5t129.5 -82.5t69 -115.5t20.5 -130.5z
M543 281h-24q-5 18 -11.5 22t-26.5 4h-178v-186h187q72 0 122 18.5t80.5 51.5t44.5 77.5t14 95.5q0 124 -69 183t-192 59h-187v-183h177q10 0 16.5 0.5t10.5 3t6.5 8t4.5 14.5h25v-168z" />
    <glyph glyph-name="Zcaron" horiz-adv-x="750" 
d="M720 699l-417 -569h322q21 0 28 6.5t12 26.5h25v-187h-25q-5 15 -11 19.5t-24 4.5h-596v25l427 570h-332q-21 0 -28.5 -7t-12.5 -27h-25v186h25q5 -20 12.5 -21.5t28.5 -1.5h591v-25zM349 788l-159 146l18 23l192 -51l192 51l18 -23l-160 -146l-50 12z" />
    <glyph glyph-name="Zcaron" unicode="&#x17d;" horiz-adv-x="750" 
d="M720 699l-417 -569h322q21 0 28 6.5t12 26.5h25v-187h-25q-5 15 -11 19.5t-24 4.5h-596v25l427 570h-332q-21 0 -28.5 -7t-12.5 -27h-25v186h25q5 -20 12.5 -21.5t28.5 -1.5h591v-25zM349 788l-159 146l18 23l192 -51l192 51l18 -23l-160 -146l-50 12z" />
    <glyph glyph-name="zcaron" horiz-adv-x="628" 
d="M281 592l-159 146l18 23l192 -51l192 51l18 -23l-160 -146l-50 12zM283 118h234q20 0 27 6t12 26h25v-175h-25q-5 15 -11 20t-23 5h-473v58l304 352h-231q-20 0 -27 -6t-12 -26h-25v174h25q4 -20 11.5 -22.5t27.5 -2.5h473v-46z" />
    <glyph glyph-name="zcaron" unicode="&#x17e;" horiz-adv-x="628" 
d="M281 592l-159 146l18 23l192 -51l192 51l18 -23l-160 -146l-50 12zM283 118h234q20 0 27 6t12 26h25v-175h-25q-5 15 -11 20t-23 5h-473v58l304 352h-231q-20 0 -27 -6t-12 -26h-25v174h25q4 -20 11.5 -22.5t27.5 -2.5h473v-46z" />
    <glyph glyph-name="eth" unicode="&#xf0;" horiz-adv-x="693" 
d="M251 625q-27 22 -53.5 38.5t-49.5 25.5q-12 5 -21.5 7.5t-26.5 2.5v25h197l45 -24t44 -26l131 47q9 3 18 -1.5t12 -12.5l11 -32q4 -8 -0.5 -17t-13.5 -13l-80 -28q38 -32 70.5 -68t57 -76t40 -84t19.5 -92q6 -72 -14.5 -129.5t-62 -97t-101.5 -61t-133 -21.5
q-68 0 -123.5 18.5t-94.5 52t-60.5 80.5t-21.5 104t19.5 103t56.5 79t90.5 51t121.5 18q15 0 30 -1t29 -6l-31.5 39t-36.5 38l-122 -45q-9 -3 -17.5 1.5t-13.5 12.5l-11 32q-3 8 1.5 17t14.5 14zM186 249q0 -31 12 -58t33 -47.5t50 -32t62 -11.5t62 11.5t50.5 32t34 47.5
t12.5 58t-12.5 59t-34 48t-50.5 32t-62 12t-62 -12t-50 -32t-33 -48t-12 -59z" />
    <glyph glyph-name="tilde" unicode="&#x2dc;" horiz-adv-x="634" 
d="M554 846q0 -26 -33 -40.5t-78 -14.5q-46 0 -85.5 10t-74.5 21t-67 19t-62 5q-12 -2 -19.5 -8t-12 -14t-7 -17l-4.5 -16h-31v107q0 13 9 23.5t24.5 17.5t35.5 10.5t42 3.5q46 0 85.5 -10t75 -21t67 -19t61.5 -5q12 1 19.5 7t12 14t7.5 17t5 17h30v-107v0z" />
    <glyph glyph-name="endash" unicode="&#x2013;" horiz-adv-x="623" 
d="M573 184h-24q-5 18 -11.5 22t-26.5 4h-398q-21 0 -27 -4t-11 -22h-25v168h25q5 -18 11 -22t26 -4h398q10 0 16.5 0.5t10.5 3t6.5 8t4.5 14.5h25v-168z" />
    <glyph glyph-name="emdash" unicode="&#x2014;" horiz-adv-x="973" 
d="M923 184h-24q-5 18 -11.5 22t-26.5 4h-748q-21 0 -27 -4t-11 -22h-25v168h25q5 -18 11 -22t26 -4h748q10 0 16.5 0.5t10.5 3t6.5 8t4.5 14.5h25v-168z" />
    <glyph glyph-name="florin" unicode="&#x192;" horiz-adv-x="672" 
d="M252 635q5 35 23 65.5t45.5 53t64 35t77.5 12.5q27 0 53.5 -4t49.5 -12q14 -5 28.5 -5.5t30.5 13.5l23 -7l-53 -173l-23 7q-2 20 -10 32.5t-20 19.5t-25.5 10t-26.5 3q-42 2 -74.5 -18.5t-38.5 -65.5l-16 -119h108q12 0 16.5 5.5t9.5 13.5h25l-21 -135h-24
q-2 8 -6.5 13.5t-16.5 5.5h-103l-36 -296q-7 -57 -34.5 -93.5t-67 -54.5t-86.5 -18.5t-92 14.5q-12 5 -29 5t-31 -14l-21 8l53 162l23 -7l-2 -14q0 -17 21 -29t48 -12.5t51 13t29 48.5l41 288h-91q-12 0 -16.5 -5.5t-9.5 -13.5h-24l21 135h23q2 -8 5.5 -13.5t15.5 -5.5h91z
" />
    <glyph glyph-name="OE" unicode="&#x152;" horiz-adv-x="1342" 
d="M40 362q0 91 35.5 163t95.5 121.5t139 75.5t166 26q38 0 79.5 -5t74.5 -19h594q21 0 29 3t11 21h25v-187h-25q-4 17 -10.5 25.5t-23.5 8.5h-419v-171h248q21 0 28 6.5t13 26.5h24v-184h-24q-5 20 -13 27t-28 7h-248v-177h421q21 0 28.5 6.5t12.5 26.5h24v-187h-24
q-3 13 -9.5 18.5t-30.5 5.5h-603q-33 -14 -74.5 -18.5t-79.5 -5.5q-87 0 -166 26t-139 75.5t-95.5 121.5t-35.5 163zM653 140v443q-37 26 -82.5 35.5t-96.5 9.5q-59 0 -110.5 -19.5t-90 -54.5t-60.5 -84t-22 -108t22 -108t60.5 -84t90 -54.5t110.5 -19.5q51 0 96.5 9.5
t82.5 35.5v-1z" />
    <glyph glyph-name="Thorn" unicode="&#xde;" horiz-adv-x="827" 
d="M245 65q0 -20 6.5 -27.5t25.5 -12.5v-25h-227v25q19 5 26.5 12.5t7.5 27.5v594q0 20 -7 28.5t-27 11.5v25h227v-25q-19 -3 -25.5 -11.5t-6.5 -28.5v-82h245q58 0 111.5 -10t94.5 -34t66 -64.5t25 -101.5q0 -60 -22 -101.5t-60 -67.5t-88.5 -37.5t-106.5 -11.5h-265v-84z
M450 271q33 0 66 2t59.5 11t42.5 28t16 53q0 35 -16.5 53.5t-43 26.5t-60.5 8.5t-69 0.5h-200v-183h205z" />
    <glyph glyph-name="quotedblbase" unicode="&#x201e;" horiz-adv-x="516" 
d="M231 94q6 -32 -8 -65.5t-38 -64t-52.5 -55t-51.5 -39.5l-29 32q35 24 55 64q5 9 1 17t-10 11q-19 11 -32.5 27.5t-18.5 39.5q-3 19 1 37t14.5 33t25.5 25t34 14q19 3 37 -1t33 -14.5t25.5 -26t13.5 -34.5zM469 94q6 -32 -8 -65.5t-38 -64t-52.5 -55t-51.5 -39.5l-28 32
q35 24 55 64q5 9 1 17t-10 11q-19 11 -33 27.5t-18 39.5q-3 19 1 37t14 33t25.5 25t34.5 14q19 3 37 -1t32.5 -14.5t25 -26t13.5 -34.5z" />
    <glyph glyph-name="quotesinglbase" unicode="&#x201a;" horiz-adv-x="278" 
d="M231 94q6 -32 -8 -65.5t-38 -64t-52.5 -55t-51.5 -39.5l-29 32q35 24 55 64q5 9 1 17t-10 11q-19 11 -32.5 27.5t-18.5 39.5q-3 19 1 37t14.5 33t25.5 25t34 14q19 3 37 -1t33 -14.5t25.5 -26t13.5 -34.5z" />
    <glyph glyph-name="ellipsis" unicode="&#x2026;" horiz-adv-x="838" 
d="M236 69q0 -20 -7.5 -36.5t-20 -29.5t-29.5 -20t-36 -7t-36 7t-29.5 20t-20 29.5t-7.5 36.5q0 19 7.5 36t20 29.5t29.5 20t36 7.5t36 -7.5t29.5 -20t20 -29.5t7.5 -36zM512 69q0 -20 -7.5 -36.5t-20 -29.5t-29.5 -20t-36 -7t-36 7t-29.5 20t-20 29.5t-7.5 36.5
q0 19 7.5 36t20 29.5t29.5 20t36 7.5t36 -7.5t29.5 -20t20 -29.5t7.5 -36zM788 69q0 -20 -7.5 -36.5t-20 -29.5t-29.5 -20t-36 -7t-36 7t-29.5 20t-20 29.5t-7.5 36.5q0 19 7.5 36t20 29.5t29.5 20t36 7.5t36 -7.5t29.5 -20t20 -29.5t7.5 -36z" />
    <glyph glyph-name="thorn" unicode="&#xfe;" horiz-adv-x="707" 
d="M219 252q1 -39 16.5 -68t38.5 -48t48.5 -28.5t45.5 -9.5q37 0 67 12.5t51.5 35t33 53.5t11.5 68q0 74 -44 119t-119 45q-23 0 -49 -9.5t-48 -29t-36.5 -48.5t-15.5 -68v-24zM215 -146q0 -20 7 -27.5t26 -12.5v-24h-207v25q19 5 25.5 12.5t6.5 26.5v805q0 20 -7 28t-26 12
v26h175v-248q29 26 71.5 44t100.5 18q64 0 116 -19t88.5 -54t56 -85.5t19.5 -113.5t-19.5 -114.5t-56 -88t-88.5 -56.5t-116 -20t-103.5 15.5t-68.5 45.5v-195z" />
    <glyph glyph-name="section" unicode="&#xa7;" horiz-adv-x="704" 
d="M428 270q20 17 33 38t13 45q0 18 -18 32.5t-42 25t-48 17t-36 10.5l-27 8l-27 8q-19 -17 -31.5 -37.5t-14.5 -44.5q0 -18 18 -32t42.5 -24.5t48.5 -18l36 -11.5q13 -3 26 -7t27 -9zM588 756q9 -5 21 -1t23 12l22 -11l-99 -191l-29 14q7 32 -14 58q-13 16 -33.5 27
t-43 18.5t-44.5 11t-38 4.5q-11 0 -31.5 -1.5t-41 -7t-36 -16.5t-15.5 -30q0 -17 17.5 -30t41 -22.5t47 -16.5t34.5 -10q40 -12 82 -28t76 -40.5t55 -59t19 -84.5q0 -40 -21.5 -71t-53.5 -56q39 -23 65 -57.5t27 -85.5q0 -50 -24 -84t-61 -56t-81.5 -31.5t-86.5 -9.5
q-39 0 -73 6t-64 15.5t-57 21.5l-53 24q-19 8 -46 -11l-22 12l99 191l30 -15q-5 -13 0.5 -32t16.5 -27q16 -14 31.5 -24.5t33.5 -18t40.5 -11.5t51.5 -4q10 -1 30.5 0.5t41 7t36 16.5t15.5 30q0 16 -17.5 29t-41 23t-46.5 16.5t-35 10.5q-40 13 -82 28.5t-76 39.5t-55 58.5
t-20 84.5q1 40 22.5 71t53.5 56q-40 24 -66 58.5t-26 85.5q0 49 24 83.5t61 56t81.5 31t86.5 9.5q39 0 72.5 -6t63.5 -15.5t57.5 -21.5z" />
    <glyph glyph-name="paragraph" unicode="&#xb6;" horiz-adv-x="652" 
d="M602 724v-25h-23q-14 0 -27 -11.5t-13 -28.5v-594q0 -20 7 -27.5t26 -12.5v-25h-121l-1 664q0 18 -9.5 26.5t-22.5 8.5q-14 0 -24 -9t-10 -26v-664h-121v25q19 5 26.5 12.5t7.5 27.5v245h-50q-43 0 -80.5 16.5t-65.5 44.5t-44.5 65.5t-16.5 80.5q0 38 13 72t36 61
t54 45.5t68 25.5q27 5 55.5 4t55.5 -1h280z" />
    <glyph glyph-name="periodcentered" unicode="&#xb7;" horiz-adv-x="266" 
d="M226 362q0 -20 -7.5 -36.5t-20 -29.5t-29.5 -20t-36 -7t-36 7t-29.5 20t-20 29.5t-7.5 36.5q0 19 7.5 36t20 29.5t29.5 20t36 7.5t36 -7.5t29.5 -20t20 -29.5t7.5 -36z" />
    <glyph glyph-name="dagger" unicode="&#x2020;" horiz-adv-x="685" 
d="M74 614q2 -20 12 -25.5t30 -7.5l154 -20l-4 135q-2 20 -8.5 30t-26.5 13v26h225v-26q-20 -3 -26 -13.5t-7 -29.5l-6 -135l153 20q19 2 29.5 7.5t13.5 25.5h22v-215h-22q-3 20 -13 26.5t-30 8.5l-156 18l-15 -417q0 -19 6.5 -34t28.5 -15v-25h-179v25q23 1 28 15.5t4 33.5
l-13 417l-158 -18q-20 -2 -30 -8.5t-12 -26.5h-24v215h24z" />
    <glyph glyph-name="daggerdbl" unicode="&#x2021;" horiz-adv-x="706" 
d="M462 762v-26q-20 -2 -25.5 -13.5t-7.5 -30.5l-9 -115l180 27q15 2 22.5 8t9.5 26h24v-210h-24q-2 20 -10 26.5t-22 8.5l-185 28l-9 -128l9 -130l185 28q14 2 22 8.5t10 26.5h24v-210h-24q-2 20 -10 26t-22 8l-180 29l9 -117q2 -19 7.5 -31t25.5 -14v-26h-218v26
q20 1 26.5 13t8.5 32l8 117l-181 -29q-14 -2 -22 -8t-10 -26h-24v210h24q2 -20 10 -26.5t22 -8.5l187 -28l8 130l-8 128l-187 -28q-14 -2 -22 -8.5t-10 -26.5h-24v210h24q2 -20 9.5 -26t22.5 -8l181 -29l-8 117q-2 21 -8.5 31.5t-26.5 12.5v26h218z" />
    <glyph glyph-name="perthousand" unicode="&#x2030;" horiz-adv-x="1653" 
d="M1392 335q-21 0 -39.5 -9t-32.5 -25t-22 -36.5t-8 -43.5q0 -24 8 -45t22 -36.5t32.5 -25t39.5 -9.5t39 9.5t32 25t22 36.5t8 45q0 23 -8 43.5t-22 36.5t-32 25t-39 9zM1392 442q43 0 81.5 -17.5t67 -47.5t45.5 -70.5t17 -85.5q0 -46 -17 -86t-45.5 -70t-67 -47.5
t-81.5 -17.5q-44 0 -82.5 17.5t-67 47.5t-45.5 70t-17 86q0 45 17 85.5t45.5 70.5t67 47.5t82.5 17.5zM454 58q-18 -24 10 -32l-17 -26h-220l19 26q11 0 26.5 7.5t28.5 24.5l420 609q7 11 5 20t-15 12l17 25h219l-18 -25q-11 0 -26 -7t-29 -26zM910 335q-21 0 -40 -9
t-33 -25t-22 -36.5t-8 -43.5q0 -24 8 -45t22 -36.5t33 -25t40 -9.5t39.5 9.5t32.5 25t22 36.5t8 45q0 23 -8 43.5t-22 36.5t-32.5 25t-39.5 9zM910 442q43 0 81.5 -17.5t67 -47.5t45 -70.5t16.5 -85.5q0 -46 -16.5 -86t-45 -70t-67 -47.5t-81.5 -17.5q-44 0 -82 17.5
t-67 47.5t-45.5 70t-16.5 86q0 45 16.5 85.5t45.5 70.5t67 47.5t82 17.5zM262 619q-21 0 -40 -9.5t-33 -25t-22 -36.5t-8 -45q0 -23 8 -43.5t22 -36.5t33 -25t40 -9t39 9t32 25t22 36.5t8 43.5q0 24 -8 45t-22 36.5t-32 25t-39 9.5zM262 724q43 0 81 -17.5t66.5 -47.5
t45 -70t16.5 -86q0 -45 -16.5 -85t-45 -70t-66.5 -47.5t-81 -17.5q-44 0 -82.5 17.5t-67.5 47.5t-45.5 70t-16.5 85q0 46 16.5 86t45.5 70t67.5 47.5t82.5 17.5z" />
    <glyph glyph-name="percent" unicode="%" horiz-adv-x="1170" 
d="M454 58q-18 -24 10 -32l-17 -26h-220l19 26q11 0 26.5 7.5t28.5 24.5l420 609q7 11 5 20t-15 12l17 25h219l-18 -25q-11 0 -26 -7t-29 -26zM910 335q-21 0 -40 -9t-33 -25t-22 -36.5t-8 -43.5q0 -24 8 -45t22 -36.5t33 -25t40 -9.5t39.5 9.5t32.5 25t22 36.5t8 45
q0 23 -8 43.5t-22 36.5t-32.5 25t-39.5 9zM910 442q43 0 81.5 -17.5t67 -47.5t45 -70.5t16.5 -85.5q0 -46 -16.5 -86t-45 -70t-67 -47.5t-81.5 -17.5q-44 0 -82 17.5t-67 47.5t-45.5 70t-16.5 86q0 45 16.5 85.5t45.5 70.5t67 47.5t82 17.5zM262 619q-21 0 -40 -9.5t-33 -25
t-22 -36.5t-8 -45q0 -23 8 -43.5t22 -36.5t33 -25t40 -9t39 9t32 25t22 36.5t8 43.5q0 24 -8 45t-22 36.5t-32 25t-39 9.5zM262 724q43 0 81 -17.5t66.5 -47.5t45 -70t16.5 -86q0 -45 -16.5 -85t-45 -70t-66.5 -47.5t-81 -17.5q-44 0 -82.5 17.5t-67.5 47.5t-45.5 70
t-16.5 85q0 46 16.5 86t45.5 70t67.5 47.5t82.5 17.5z" />
    <glyph glyph-name="onesuperior" unicode="&#xb9;" horiz-adv-x="241" 
d="M201 362h-119v12q11 3 16 7t5 13v220h-31q-10 0 -13.5 -3t-5.5 -13h-13v99h12q0 -11 7.5 -16.5t17.5 -5.5q26 0 26 20q0 6 -4.5 11t-13.5 5v13h112v-13q-10 -2 -13 -5.5t-3 -14.5v-297q0 -11 5 -14.5t15 -5.5v-12z" />
    <glyph glyph-name="ordmasculine" unicode="&#xba;" horiz-adv-x="446" 
d="M406 572q0 -38 -15.5 -68t-41 -51t-58.5 -32t-69 -11t-68.5 11.5t-58 32.5t-40.5 51t-15 67q0 38 15.5 68t41.5 51t60 32t70 11q35 -1 67.5 -12.5t57 -32.5t39.5 -50.5t15 -66.5zM341 572q0 24 -9.5 44.5t-25.5 35t-37.5 22.5t-46.5 8q-49 0 -83 -30.5t-34 -79.5
t34 -79.5t83 -30.5q50 0 84.5 30t34.5 80z" />
    <glyph glyph-name="twosuperior" unicode="&#xb2;" horiz-adv-x="414" 
d="M342 365h-264q-14 0 -14 -5h-9v5q1 69 37 109.5t101 69.5q45 20 70.5 40t25.5 39q0 29 -21 41t-46 12q-20 0 -39 -6.5t-36 -15.5t-23 -17.5t-6 -19.5q0 -6 4 -14l-11 -10l-71 82l10 9l10 -5q4 -2 9.5 1t11.5 7t12 8.5l10 7.5q30 19 63.5 26.5t68.5 7.5q26 0 50.5 -7
t43 -21.5t30 -36t11.5 -49.5q0 -26 -9 -46t-24.5 -36.5t-36 -29t-44.5 -22.5l-25 -11t-27 -13.5t-24 -16t-16 -18.5h178q10 0 14 3t6 14h12v-94h-12q-2 6 -5 9t-15 3z" />
    <glyph glyph-name="threesuperior" unicode="&#xb3;" horiz-adv-x="437" 
d="M397 470q0 -35 -17 -57.5t-43 -36.5t-56.5 -19.5t-58.5 -5.5q-65 0 -132 32q-23 10 -27.5 8.5t-11.5 -8.5l-11 6l42 100l12 -4q-3 -11 5 -24t33 -24q21 -10 45.5 -16.5t52.5 -6.5q13 0 28.5 3t29 9.5t22.5 18t9 28.5q0 14 -7 23.5t-18.5 15.5t-26 9t-28.5 3q-23 0 -37 -4
t-14 -17h-13v99h13q0 -12 14.5 -16.5t37.5 -4.5q11 0 23 2.5t22 7.5t16.5 14t6.5 23q0 15 -7.5 24.5t-19 15t-24.5 7.5t-24 2q-46 0 -83 -16q-17 -8 -26.5 -16.5t-1.5 -26.5l-10 -8l-61 76l10 8q11 -5 15.5 -4t15.5 7q33 21 68 30.5t73 9.5q24 0 50.5 -5t48.5 -17t36 -32
t14 -50q0 -26 -12.5 -44t-33.5 -31q29 -11 45 -33.5t16 -54.5z" />
    <glyph glyph-name="ordfeminine" unicode="&#xaa;" horiz-adv-x="456" 
d="M147 487l-12 -33q-5 -18 12 -22v-12h-107v12q10 3 17 12t11 17l96 229q2 7 1 12.5t-14 9.5v12h153v-12q-14 -4 -14.5 -10t2.5 -13l95 -228q5 -8 11.5 -17.5t17.5 -11.5v-12h-107v12q19 5 12 22l-13 33h-161zM237 670h-19l-53 -135h125z" />
    <glyph glyph-name="mu" unicode="&#xb5;" 
d="M477 479q0 20 -7 28.5t-27 12.5v23h216v-25q-19 -4 -26.5 -12t-7.5 -27v-414q0 -20 7 -27.5t27 -12.5v-25h-182v50q-35 -29 -80 -44.5t-83 -15.5q-46 0 -82 9v-112q0 -20 7 -27.5t26 -12.5v-25h-215v25q19 5 26 12.5t7 27.5v592q0 20 -7 28.5t-26 12.5v23h215v-25
q-19 -4 -26 -12t-7 -27v-266q0 -54 28 -82t85 -27q27 0 51 9.5t42 27.5t28.5 42.5t10.5 54.5v241v0z" />
    <glyph glyph-name="mu" unicode="&#x3bc;" 
d="M477 479q0 20 -7 28.5t-27 12.5v23h216v-25q-19 -4 -26.5 -12t-7.5 -27v-414q0 -20 7 -27.5t27 -12.5v-25h-182v50q-35 -29 -80 -44.5t-83 -15.5q-46 0 -82 9v-112q0 -20 7 -27.5t26 -12.5v-25h-215v25q19 5 26 12.5t7 27.5v592q0 20 -7 28.5t-26 12.5v23h215v-25
q-19 -4 -26 -12t-7 -27v-266q0 -54 28 -82t85 -27q27 0 51 9.5t42 27.5t28.5 42.5t10.5 54.5v241v0z" />
    <glyph glyph-name="cedilla" unicode="&#xb8;" horiz-adv-x="383" 
d="M208 -75q24 -5 44 -15t33.5 -25.5t19 -35.5t-0.5 -45q-6 -32 25 -41v-25h-243v25l44 16q29 11 38 31.5t3 40t-25 33t-44 11.5l-16 28l130 78l31 -22l-45 -39q-5 -5 -4.5 -9.5t10.5 -5.5z" />
    <glyph glyph-name="Oslash" unicode="&#xd8;" horiz-adv-x="952" 
d="M626 814h97q27 0 40 -7.5t16 -18t-0.5 -22t-7.5 -18.5l-41 -70q81 -50 131.5 -130t50.5 -186q0 -90 -36 -161.5t-97 -121.5t-140 -76.5t-165 -26.5q-72 0 -141 20l-9 -16q-13 -22 -9.5 -37t21.5 -15l-7 -20h-92q-31 0 -45 8t-17.5 19.5t0 24t8.5 20.5l38 65
q-81 50 -131 130.5t-50 186.5q0 91 37 163t99 121.5t142 75.5t167 26q35 0 69 -5.5t66 -15.5l13 21q11 18 8 31t-22 15zM474 628q-59 0 -110.5 -19.5t-90 -54.5t-60.5 -84t-22 -108q0 -64 25.5 -116t70.5 -88l269 460q-20 5 -40.5 7.5t-41.5 2.5zM761 362q0 64 -26 116
t-71 87l-267 -460q36 -9 77 -9q60 0 112 19.5t91 54.5t61.5 84t22.5 108z" />
    <glyph glyph-name="oslash" unicode="&#xf8;" horiz-adv-x="676" 
d="M636 262q0 -65 -23.5 -116t-64 -86.5t-94.5 -54.5t-116 -19q-50 0 -93 12l-8 -14q-10 -17 -7 -28.5t19 -11.5l-7 -21h-79q-33 0 -44.5 10.5t-11.5 23.5q0 8 2.5 15t6.5 14l33 56q-51 35 -80 91t-29 129q0 64 23 115.5t63.5 87.5t95 55t116.5 19q25 0 48 -3.5t46 -9.5
l12 21q8 14 5 23.5t-18 11.5l7 21h83q24 0 35 -6.5t14 -15.5t0 -19t-7 -17l-37 -63q51 -35 80.5 -91t29.5 -129zM338 427q-36 0 -65 -11.5t-50 -33.5t-32.5 -52.5t-11.5 -67.5q0 -34 9 -61.5t26 -47.5l158 271q-17 3 -34 3zM497 262q0 33 -9 61t-26 49l-157 -271
q15 -3 33 -3q72 0 115.5 44.5t43.5 119.5z" />
    <glyph glyph-name="circumflex" unicode="&#x2c6;" horiz-adv-x="582" 
d="M291 619l50 12l160 -146l-18 -23l-192 51l-192 -51l-18 23l159 146z" />
    <glyph glyph-name="asciicircum" unicode="^" horiz-adv-x="582" 
d="M291 942l50 12l160 -146l-18 -23l-192 51l-192 -51l-18 23l159 146z" />
    <glyph glyph-name="backslash" unicode="\" horiz-adv-x="511" 
d="M205 764l7 -20q-19 -2 -20 -14.5t6 -31.5l250 -668q3 -9 13 -21.5t21 -23.5q13 -13 29 -27h-209l-7 20q18 0 19 14.5t-7 37.5l-247 668q-4 10 -13.5 21.5t-20.5 21.5l-26 23h205z" />
    <glyph glyph-name="braceleft" unicode="{" horiz-adv-x="320" 
d="M223 429q0 -17 -6 -28t-13.5 -18.5t-13.5 -12t-6 -7.5q0 -4 6 -9t13.5 -12.5t13.5 -18.5t6 -27v-350q0 -13 7.5 -21.5t19.5 -10.5l50 -8v-26h-86q-40 0 -63.5 11.5t-35.5 27.5t-15.5 33.5t-3.5 30.5v323q0 14 -11.5 29t-31.5 15h-13v25h13q20 0 31.5 15t11.5 30v321
q0 13 3.5 30.5t15.5 33.5t35.5 27t63.5 11h86v-25l-50 -8q-12 -2 -19.5 -10.5t-7.5 -21.5v-349z" />
    <glyph glyph-name="braceright" unicode="}" horiz-adv-x="320" 
d="M97 778q0 13 -7.5 21.5t-19.5 10.5l-50 8v25h86q40 0 63.5 -11t35.5 -27t15.5 -33.5t3.5 -30.5v-321q0 -15 11.5 -30t31.5 -15h13v-25h-13q-20 0 -31.5 -15t-11.5 -29v-323q0 -13 -3.5 -30.5t-15.5 -33.5t-35.5 -27.5t-63.5 -11.5h-86v26l50 8q12 2 19.5 10.5t7.5 21.5
v350q0 16 6 27t13.5 18.5t13.5 12.5t6 9q0 3 -6 7.5t-13.5 12t-13.5 18.5t-6 28v349z" />
    <glyph glyph-name="bracketleft" unicode="[" horiz-adv-x="320" 
d="M223 -54q0 -13 7.5 -21.5t19.5 -10.5l50 -8v-26h-86q-40 0 -63.5 11.5t-35.5 27.5t-15.5 33.5t-3.5 30.5v758q0 13 3.5 30.5t15.5 33.5t35.5 27t63.5 11h86v-25l-50 -8q-12 -2 -19.5 -10.5t-7.5 -21.5v-832z" />
    <glyph glyph-name="bracketright" unicode="]" horiz-adv-x="320" 
d="M97 778q0 13 -7.5 21.5t-19.5 10.5l-50 8v25h86q40 0 63.5 -11t35.5 -27t15.5 -33.5t3.5 -30.5v-758q0 -13 -3.5 -30.5t-15.5 -33.5t-35.5 -27.5t-63.5 -11.5h-86v26l50 8q12 2 19.5 10.5t7.5 21.5v832z" />
    <glyph glyph-name="guillemotleft" unicode="&#xab;" horiz-adv-x="464" 
d="M40 352v22l162 225l25 -10l-49 -226l49 -228l-25 -10zM236 352v22l161 225l27 -10l-50 -226l50 -228l-27 -10z" />
    <glyph glyph-name="guillemotright" unicode="&#xbb;" horiz-adv-x="464" 
d="M424 352l-162 -227l-25 10l49 228l-49 226l25 10l162 -225v-22zM228 352l-161 -227l-27 10l50 228l-50 226l27 10l161 -225v-22z" />
    <glyph glyph-name="guilsinglright" unicode="&#x203a;" horiz-adv-x="267" 
d="M227 352l-162 -227l-25 10l49 228l-49 226l25 10l162 -225v-22z" />
    <glyph glyph-name="guilsinglleft" unicode="&#x2039;" horiz-adv-x="267" 
d="M40 374l162 225l25 -10l-49 -226l49 -228l-25 -10l-162 227v22z" />
    <glyph glyph-name="bar" unicode="|" horiz-adv-x="288" 
d="M208 -200h-128v1043h128v-1043z" />
    <glyph glyph-name="brokenbar" unicode="&#xa6;" horiz-adv-x="288" 
d="M80 843h128v-471h-128v471zM208 -200h-128v472h128v-472z" />
    <glyph glyph-name="d" unicode="d" horiz-adv-x="703" 
d="M489 284q0 33 -12.5 60t-33 46t-47 29.5t-54.5 10.5q-37 1 -67.5 -11.5t-52.5 -34.5t-34 -52.5t-12 -66.5t12 -66.5t34 -53t52.5 -35t67.5 -11.5q28 0 54.5 10.5t47 29.5t33 46t12.5 61v38zM663 0h-174v46q-26 -26 -69.5 -42t-97.5 -16q-59 0 -110.5 19t-89.5 54.5
t-60 87t-22 116.5t22 116t60 86t89.5 53.5t110.5 18.5q54 0 96 -16t71 -39v176q0 20 -6.5 27.5t-25.5 11.5v25h174v-660q0 -20 6.5 -27t25.5 -12v-25z" />
    <glyph glyph-name="e" unicode="e" horiz-adv-x="678" 
d="M487 316q-9 54 -47 83.5t-97 29.5q-58 0 -99.5 -29.5t-55.5 -83.5h299zM536 17q-22 -8 -42 -14t-41.5 -9.5t-46.5 -5.5t-56 -2q-66 0 -122.5 16.5t-98 51t-65.5 86.5t-24 124q0 64 24.5 115.5t66 86.5t96.5 54t117 19q60 0 111 -17.5t88.5 -51t58.5 -83.5t21 -114
q-1 -30 19 -39v-21h-451q3 -27 16.5 -49t36 -38t52 -24.5t64.5 -8.5q49 0 88.5 9t56.5 19q11 7 20.5 17t6.5 22l23 12l75 -138l-22 -11q-15 10 -33.5 5.5t-38.5 -11.5z" />
    <glyph glyph-name="f" unicode="f" horiz-adv-x="587" 
d="M593 672l-82 -145l-21 11v11q1 14 -12.5 25t-34 18.5t-44.5 10.5t-45 2q-29 -2 -54 -11t-43 -28.5t-28.5 -50t-10.5 -73.5v-11h173q20 0 27 7t12 26h25v-182h-25q-4 19 -11.5 26.5t-27.5 7.5h-173v-252q0 -20 6.5 -27.5t25.5 -12.5v-24h-210v25q19 5 25.5 12t6.5 27v307
q0 17 -8.5 24t-25.5 11v25h34v11q0 146 70 211t210 65q30 0 54 -2.5t44.5 -7t39 -11.5l38.5 -15q25 -11 46 1z" />
    <glyph glyph-name="g" unicode="g" horiz-adv-x="703" 
d="M177 265q0 -36 11.5 -66.5t32.5 -52.5t50.5 -34.5t66.5 -12.5q27 0 54 9.5t48.5 27.5t35 45.5t13.5 63.5v39q0 36 -13.5 63.5t-34.5 46t-47 28t-51 9.5q-38 0 -68.5 -12t-52 -34.5t-33.5 -53t-12 -66.5zM328 -222q-47 0 -89 7.5t-86 23.5q-10 4 -20.5 7.5t-20.5 5.5
t-19.5 1t-16.5 -6l-19 11l80 142l21 -11q-4 -12 7 -24t20 -17q32 -14 67.5 -21.5t65.5 -7.5q36 0 67 11t54 31.5t37 49t14 64.5q-30 -26 -73 -41.5t-96 -15.5q-62 0 -113.5 20t-89 57t-58 87.5t-20.5 112.5q0 61 20.5 111.5t57 86.5t88 56t113.5 20q57 0 99 -15.5t71 -40.5
v44h174v-25q-19 -5 -25.5 -12.5t-6.5 -27.5v-393q0 -70 -23 -124.5t-63.5 -91.5t-96 -56t-120.5 -19z" />
    <glyph glyph-name="h" unicode="h" horiz-adv-x="665" 
d="M217 298v-233q0 -20 6.5 -27.5t25.5 -12.5v-25h-209v25q19 5 25.5 12t6.5 27v596q0 20 -6 27.5t-26 11.5v25h177v-244q33 28 77 42.5t80 14.5q61 0 104 -15.5t69.5 -42.5t38.5 -63.5t12 -79.5v-271q0 -20 7.5 -27.5t26.5 -12.5v-25h-210v25q19 5 25.5 12t6.5 27v258
q0 52 -28 79t-82 26q-26 0 -49 -9.5t-40 -26.5t-27.5 -41t-10.5 -52z" />
    <glyph glyph-name="i" unicode="i" horiz-adv-x="296" 
d="M224 527v-462q0 -20 6.5 -27.5t25.5 -12.5v-25h-210v25q19 5 25.5 12t6.5 27v398q0 20 -6 27.5t-26 12.5v25h178zM71 651q0 32 23.5 55.5t55.5 23.5t55.5 -23.5t23.5 -55.5t-23.5 -55.5t-55.5 -23.5t-55.5 23.5t-23.5 55.5z" />
    <glyph glyph-name="j" unicode="j" horiz-adv-x="297" 
d="M80 651q0 32 23.5 55.5t55.5 23.5t55.5 -23.5t23.5 -55.5t-23.5 -55.5t-55.5 -23.5t-55.5 23.5t-23.5 55.5zM87 462q0 20 -6.5 27.5t-25.5 12.5v25h177v-531q0 -14 -1.5 -35.5t-8 -45.5t-19.5 -48.5t-36.5 -44t-58.5 -32t-86 -12.5q-25 0 -46.5 4t-38 8.5t-27.5 8.5
t-14 5q-8 2 -17.5 -2.5t-12.5 -15.5l-27 8l54 183l25 -6l-1 -10q-2 -13 4 -25.5t17 -22.5t26.5 -16.5t32.5 -6.5q26 0 43.5 7.5t28 20.5t14.5 29t4 33v482z" />
    <glyph glyph-name="k" unicode="k" horiz-adv-x="628" 
d="M242 242h-22v-178q0 -20 7.5 -28.5t24.5 -10.5v-25h-212v25q19 5 25.5 12t6.5 27v596q0 20 -6 27.5t-26 11.5v25h180v-375h22l106 101q21 19 21 30t-7.5 16.5t-16.5 5.5v25h263v-25q-29 -5 -60.5 -23.5t-57.5 -43.5l-135 -132l180 -210q17 -19 39.5 -39.5t46.5 -28.5v-25
h-254v25q16 4 23 10t7 13.5t-5.5 16.5t-13.5 18z" />
    <glyph glyph-name="l" unicode="l" horiz-adv-x="288" 
d="M216 724v-659q0 -20 6.5 -27.5t25.5 -12.5v-25h-208v25q19 5 25.5 12t6.5 27v595q0 20 -6.5 27.5t-25.5 12.5v25h176z" />
    <glyph glyph-name="m" unicode="m" horiz-adv-x="943" 
d="M222 298v-233q0 -20 6.5 -27.5t25.5 -12.5v-25h-208v25q19 5 25.5 12t6.5 27v398q0 20 -6.5 27.5t-25.5 12.5v25h176v-41q29 26 64.5 38.5t70.5 12.5q60 0 98.5 -17.5t60.5 -49.5q32 35 79.5 51t88.5 16q54 0 90.5 -14.5t59 -41t32.5 -63.5t10 -82v-271q0 -20 6.5 -27.5
t25.5 -12.5v-25h-208v25q19 5 25.5 12t6.5 27v258q0 47 -20 76.5t-65 28.5q-48 -1 -73 -33t-25 -86v-243q0 -20 6.5 -27.5t25.5 -12.5v-25h-208v25q19 5 25.5 12t6.5 27v258q0 47 -20 76.5t-65 28.5q-51 -1 -74.5 -36.5t-23.5 -92.5z" />
    <glyph glyph-name="n" unicode="n" horiz-adv-x="671" 
d="M254 25v-25h-208v25q19 5 25.5 12t6.5 27v398q0 20 -6.5 27.5t-25.5 12.5v25h176v-47q33 28 77 42.5t81 14.5q61 0 104 -15.5t69 -42.5t38 -63.5t12 -79.5v-271q0 -20 7 -27.5t26 -12.5v-25h-209v25q19 5 25.5 12t6.5 27v258q0 52 -27.5 79t-82.5 26q-26 0 -49 -9.5
t-40 -26.5t-27.5 -41t-10.5 -52v-233q0 -20 6.5 -27.5t25.5 -12.5z" />
    <glyph glyph-name="o" unicode="o" horiz-adv-x="676" 
d="M497 262q0 75 -43.5 120t-115.5 45q-36 0 -65 -11.5t-50 -33.5t-32.5 -52.5t-11.5 -67.5q0 -38 11.5 -68t32.5 -51.5t50 -33t65 -11.5q72 0 115.5 44.5t43.5 119.5zM636 262q0 -65 -23.5 -116t-64 -86.5t-94.5 -54.5t-116 -19t-116.5 19t-95 54.5t-63.5 86.5t-23 116
q0 64 23 115.5t63.5 87.5t95 55t116.5 19t116 -19t94.5 -55t64 -87.5t23.5 -115.5z" />
    <glyph glyph-name="p" unicode="p" horiz-adv-x="703" 
d="M214 284v-38q0 -34 12.5 -61t33 -46t47 -29.5t54.5 -10.5q37 -1 67.5 11.5t52.5 35t34 53t12 66.5t-12 66.5t-34 52.5t-52.5 34.5t-67.5 11.5q-28 0 -54.5 -10.5t-47 -29.5t-33 -46t-12.5 -60zM381 539q59 0 110.5 -18.5t89.5 -53.5t60 -86t22 -116t-22 -116.5t-60 -87
t-89.5 -54.5t-110.5 -19q-54 0 -96.5 14.5t-70.5 43.5v-191q0 -20 6.5 -27.5t25.5 -12.5v-25h-206v25q19 5 25.5 12t6.5 27v608q0 20 -6.5 27.5t-25.5 12.5v25h174v-43q29 23 71 39t96 16z" />
    <glyph glyph-name="q" unicode="q" horiz-adv-x="699" 
d="M490 46q-26 -26 -69.5 -42t-97.5 -16q-59 0 -111 19t-90 54.5t-60 87t-22 116.5t22 116t60 86t90 53.5t111 18.5q54 0 96 -16t71 -39v43h174v-25q-20 -5 -26.5 -12.5t-6.5 -27.5v-598q0 -28 10 -35.5t30 -13.5v-25h-199l18 36v220zM489 284q0 33 -12.5 60t-33 46
t-47 29.5t-54.5 10.5q-37 1 -67.5 -11.5t-52 -34.5t-33.5 -52.5t-12 -66.5t12 -66.5t33.5 -53t52 -35t67.5 -11.5q28 0 54.5 10.5t47 29.5t33 46t12.5 61v38z" />
    <glyph glyph-name="r" unicode="r" horiz-adv-x="547" 
d="M225 65q0 -20 7 -26.5t28 -13.5v-25h-212v25q21 5 27 12t6 27v398q0 20 -6.5 28t-26.5 12v25h177v-62q12 20 31 36.5t39 24.5q17 8 41 10.5t44 1.5q38 -1 75 -15t64 -38l-76 -161l-24 11l6 13q1 17 -3 29q-6 16 -20 25.5t-31 13t-35 2t-32 -8.5q-23 -11 -38 -30t-24 -42
t-13 -48t-4 -47v-177v0z" />
    <glyph glyph-name="s" unicode="s" horiz-adv-x="616" 
d="M317 541q51 -1 93.5 -11t78.5 -24q16 -6 27 -8.5t29 11.5l23 -11l-76 -159l-27 12q5 20 -16 40q-12 12 -30 20.5t-37.5 14t-39.5 8.5t-36 3q-23 0 -44.5 -3.5t-38 -10.5t-26.5 -17.5t-9 -24.5q1 -26 28 -36.5t79 -15.5q17 -2 38.5 -4l43.5 -4q40 -3 76.5 -13t63.5 -29
t43.5 -48t16.5 -69q0 -50 -23 -84t-60.5 -54.5t-86 -29t-98.5 -8.5q-44 0 -79.5 5.5t-62.5 13t-44 14.5l-24 10q-11 5 -21 3.5t-17 -12.5l-27 12l73 163l25 -11q-5 -9 -2.5 -18.5t10 -17.5t18 -14.5t21.5 -10.5q39 -15 73 -22t61 -7q15 0 35.5 2t38.5 8.5t30.5 18t11.5 30.5
q-1 23 -25.5 35t-83.5 15q-25 2 -47 3.5t-36 3.5q-35 3 -68.5 12t-60 27t-43.5 46.5t-17 69.5q-1 57 27.5 93.5t73.5 55.5q35 15 77.5 21t90.5 6z" />
    <glyph glyph-name="t" unicode="t" horiz-adv-x="506" 
d="M68 187v266q0 20 -11 34.5t-37 14.5v25q34 12 61 32t47.5 44t35 49.5t22.5 47.5h26v-173h143h12t13 2.5t10.5 7.5t4.5 15h24v-174h-24q0 11 -4.5 18t-10.5 10.5t-13 4.5t-12 1h-143v-211q0 -26 7.5 -43t20 -27.5t28.5 -14.5t33 -3q14 1 30.5 5.5t29 13t19.5 21t3 27.5
l-4 13l25 8l57 -194l-24 -7q-5 8 -14.5 13t-18.5 0q-20 -9 -47.5 -16.5t-54.5 -8.5q-36 -1 -69 4.5t-59 16.5q-49 20 -77.5 64.5t-28.5 113.5z" />
    <glyph glyph-name="u" unicode="u" horiz-adv-x="670" 
d="M449 227v235q0 20 -7 27.5t-26 12.5v25h209v-25q-19 -5 -25.5 -12t-6.5 -27v-398q0 -20 6 -27.5t26 -12.5v-25h-176v48q-14 -16 -34 -27t-41.5 -18.5t-43 -11t-39.5 -3.5q-62 0 -104.5 16t-69 43.5t-38.5 64.5t-12 80v270q0 20 -6.5 27.5t-25.5 12.5v25h209v-25
q-19 -5 -25.5 -12t-6.5 -27v-257q0 -52 27.5 -79t81.5 -26q25 0 48 9.5t41 26t28.5 39.5t10.5 51z" />
    <glyph glyph-name="v" unicode="v" horiz-adv-x="680" 
d="M258 63l-182 389q-8 18 -22.5 33t-33.5 17v25h224v-25q-17 -2 -25.5 -14t-1.5 -27l122 -277l127 277q7 16 5 26t-23 15v25h212v-25q-19 -3 -34 -17t-23 -32l-182 -390q-6 -12 -2.5 -24t22.5 -14v-25h-203v25q22 3 23.5 15t-3.5 23z" />
    <glyph glyph-name="w" unicode="w" horiz-adv-x="967" 
d="M581 79l-96 266v-2l-96 -263q-2 -6 -4 -14t0.5 -16.5t10 -15t23.5 -9.5v-25h-223v25q12 2 19.5 8.5t10.5 14.5t2.5 16.5t-3.5 15.5l-141 354q-7 17 -12.5 28.5t-12.5 19.5t-16.5 12.5t-22.5 7.5v25h232v-25q-24 -5 -29 -15.5t-1 -23.5l92 -238l80 223q2 6 3 15t-1 17
t-9 14t-21 8v25h235v-25q-16 -4 -22.5 -10t-8 -13.5t1 -15.5t5.5 -15l80 -226l86 226q2 6 4 14t0 16t-9 14.5t-23 9.5v25h232v-25q-13 -5 -22 -9.5t-15.5 -11.5t-12.5 -18t-13 -28l-137 -355q-3 -6 -4.5 -14t1 -15.5t9.5 -14.5t22 -11v-25h-223v25q15 4 22 11t9.5 14.5t1 15
t-3.5 13.5z" />
    <glyph glyph-name="x" unicode="x" horiz-adv-x="712" 
d="M370 358l76 98q12 14 4.5 27t-32.5 19v25h249v-25q-25 -7 -48.5 -24t-39.5 -37l-131 -165l147 -190q25 -32 44.5 -43.5t42.5 -17.5v-25h-280v25q16 4 24 9t10.5 11.5t0 13t-7.5 13.5l-87 116l-91 -116q-11 -13 -5 -26t33 -21v-25h-249v25q26 5 49 23t40 39l144 183
l-133 172q-13 16 -23.5 26.5t-20.5 17t-20.5 10t-22.5 6.5v25h280v-25q-16 -4 -24 -9t-10.5 -11t0 -13t7.5 -13z" />
    <glyph glyph-name="y" unicode="y" horiz-adv-x="669" 
d="M297 -110q76 1 118 41t42 117q-15 -18 -35.5 -29.5t-42.5 -18.5t-44 -9.5t-40 -2.5q-62 0 -104.5 15.5t-68.5 43t-38 64.5t-12 80v272q0 21 -6 27.5t-26 11.5v25h208v-25q-21 -5 -26.5 -12t-5.5 -27v-257q0 -52 27.5 -79t82.5 -26q25 0 48.5 9.5t40.5 26.5t27.5 40.5
t10.5 52.5v233q0 23 -7 28.5t-25 10.5v25h208v-25q-20 -5 -26 -12t-6 -27v-408q0 -69 -21 -121t-59.5 -86.5t-92 -52t-118.5 -17.5q-35 0 -83 7.5t-92 23.5q-10 4 -20.5 7.5t-20.5 5.5t-19.5 1t-16.5 -6l-19 11l80 143l21 -12q-4 -12 7 -24t20 -17q32 -14 68 -21t66 -7z" />
    <glyph glyph-name="z" unicode="z" horiz-adv-x="628" 
d="M283 118h234q20 0 27 6t12 26h25v-175h-25q-5 15 -11 20t-23 5h-473v58l304 352h-231q-20 0 -27 -6t-12 -26h-25v174h25q4 -20 11.5 -22.5t27.5 -2.5h473v-46z" />
    <glyph glyph-name="logicalnot" unicode="&#xac;" horiz-adv-x="892" 
d="M209 298q10 -47 34 -84t56 -61q35 -26 79 -39.5t90.5 -16t92.5 5t85 24.5q27 11 48 29.5t28 43.5q1 2 -2.5 7.5t-3.5 6.5l22 13l109 -178l-20 -14q-8 7 -20.5 9t-22.5 -2q-74 -32 -147.5 -50.5t-155.5 -18.5q-86 0 -165.5 24.5t-140.5 72.5t-98 119.5t-37 166.5
q0 94 37 166.5t98 122t140.5 74.5t165.5 25q82 0 155.5 -18.5t147.5 -50.5q10 -4 22.5 -2t20.5 9l20 -14l-109 -178l-22 13q0 1 3.5 6.5t2.5 7.5q-7 25 -28 43.5t-48 29.5q-39 16 -85 24t-92.5 5.5t-90.5 -16t-79 -39.5q-32 -24 -56 -62.5t-34 -86.5h342q21 0 28 6.5
t13 26.5h24v-184h-24q-5 20 -13 27t-28 7h-342v0z" />
    <glyph glyph-name="macron" unicode="&#xaf;" horiz-adv-x="661" 
d="M633 37l-21 -12q-15 9 -35.5 4t-40.5 -12q-44 -15 -86 -23t-89 -8q-66 0 -124 16.5t-102 50.5t-69.5 86t-25.5 124q0 71 25.5 123t69.5 86t102 50.5t124 16.5q47 0 89 -8t86 -23q20 -7 40.5 -11.5t35.5 3.5l21 -12l-79 -140l-23 11q4 13 -7 24.5t-20 15.5
q-32 14 -67.5 21.5t-65.5 7.5q-61 0 -111.5 -29.5t-70.5 -82.5h179q20 0 27 6t12 26h24v-171h-24q-4 19 -11.5 26t-27.5 7h-179q20 -54 70.5 -83.5t111.5 -29.5q30 0 65.5 7.5t67.5 21.5q9 4 20 16t7 24l23 12z" />
    <glyph glyph-name="a" unicode="a" 
d="M490 246v38q0 33 -13 60t-33.5 46t-47 29.5t-54.5 10.5q-37 1 -67.5 -11.5t-52 -34.5t-33.5 -52.5t-12 -66.5t11.5 -66.5t32.5 -53t51 -35t67 -11.5q28 0 55 10.5t48.5 29.5t34.5 46t13 61zM664 0h-174v46q-26 -25 -71.5 -41.5t-99.5 -16.5q-59 0 -110 19t-88.5 54.5
t-59 87t-21.5 116.5t23.5 116t63.5 86t91.5 53.5t108.5 18.5q54 0 96 -16t71 -39v43h170v-25q-20 -5 -26.5 -12.5t-6.5 -27.5v-398q0 -20 6.5 -27t26.5 -12v-25z" />
    <glyph glyph-name="b" unicode="b" horiz-adv-x="703" 
d="M527 265q0 36 -12 66.5t-34 52.5t-52.5 34.5t-67.5 11.5q-28 0 -54.5 -10.5t-47 -29.5t-33 -46t-12.5 -60v-38q0 -34 12.5 -61t33 -46t47 -29.5t54.5 -10.5q37 -1 67.5 11.5t52.5 35t34 53t12 66.5zM663 265q0 -65 -22 -116.5t-60 -87t-89.5 -54.5t-110.5 -19
q-54 0 -97 16.5t-70 41.5v-46h-174v25q19 5 25.5 12t6.5 27v660h174v-25q-20 -4 -26 -11.5t-6 -27.5v-176q29 23 71 39t96 16q59 0 110.5 -18.5t89.5 -53.5t60 -86t22 -116z" />
    <glyph glyph-name="c" unicode="c" horiz-adv-x="662" 
d="M634 37l-21 -12q-15 9 -35.5 4t-40.5 -12q-43 -15 -85.5 -23t-88.5 -8q-66 0 -124.5 16.5t-103 50.5t-70 86t-25.5 124q0 71 25.5 123t70 86t103 50.5t124.5 16.5q46 0 88.5 -8t85.5 -23q20 -7 40.5 -11.5t35.5 3.5l21 -12l-79 -141l-22 11q2 21 -18 34.5t-47.5 21.5
t-55 11t-40.5 3q-37 0 -70.5 -11.5t-59 -33t-40.5 -52t-15 -68.5t15 -69t40.5 -52.5t59 -33t70.5 -11.5q31 0 66 7.5t67 21.5q9 4 20 16t8 24l22 12z" />
    <glyph glyph-name="oe" unicode="&#x153;" horiz-adv-x="1143" 
d="M1001 17q-22 -8 -42 -14t-41.5 -9.5t-46.5 -5.5t-56 -2q-77 0 -140.5 21t-105.5 67q-42 -43 -103.5 -64t-139.5 -21q-65 0 -118 21.5t-90.5 59t-57.5 88t-20 107.5t20 107t57 87.5t90 59.5t120 22q79 0 142 -20t109 -74q42 43 102 67.5t129 24.5q60 0 111 -18t88.5 -52
t58.5 -84.5t21 -114.5q-1 -30 19 -39v-21h-451q3 -27 16.5 -48.5t36 -37t52 -23.5t64.5 -8q49 0 88.5 9t56.5 19q11 7 20.5 17t6.5 22l23 12l75 -138l-22 -11q-15 10 -33.5 5.5t-38.5 -11.5zM342 99q37 0 67 12.5t51 35t32.5 52.5t11.5 66t-12 66t-33.5 52t-52 34.5
t-67.5 12.5q-34 0 -63.5 -12.5t-51.5 -34.5t-34.5 -52t-12.5 -66t11.5 -66t33 -52.5t52 -35t68.5 -12.5zM952 313q-9 54 -47 83.5t-97 29.5q-58 0 -99.5 -29.5t-55.5 -83.5h299z" />
    <glyph glyph-name="AE" unicode="&#xc6;" horiz-adv-x="1263" 
d="M587 600h-103l-160 -350h263v350zM276 140l-26 -58q-12 -25 -5 -38.5t30 -18.5v-25h-255v25q28 7 44 26t28 45l255 548q4 8 5.5 17t-0.5 16.5t-10 13t-24 8.5v25h827q21 0 29 3t11 21h25v-187h-25q-4 17 -10.5 25.5t-23.5 8.5h-406v-171h235q21 0 28 6.5t13 26.5h24v-184
h-24q-5 20 -13 27t-28 7h-235v-177h408q21 0 28.5 6.5t12.5 26.5h24v-187h-24q-3 13 -9.5 18.5t-30.5 5.5h-601v25q19 5 26.5 12.5t7.5 28.5v74h-311z" />
    <glyph glyph-name="ae" unicode="&#xe6;" horiz-adv-x="1173" 
d="M1031 17q-22 -8 -42 -14t-41.5 -9.5t-46.5 -5.5t-56 -2q-63 0 -117.5 14.5t-96.5 45.5v-46h-141v46q-29 -23 -73 -39.5t-98 -16.5q-59 0 -110 18.5t-88.5 53.5t-59 86.5t-21.5 116.5t23.5 116t63.5 86t91.5 53.5t108.5 18.5q54 0 96 -16t71 -39v43h137v-59q42 34 95 52.5
t113 18.5t111 -18t88.5 -52t58.5 -84.5t21 -114.5q-1 -30 19 -39v-21h-451q3 -27 16.5 -48.5t36 -37t52 -23.5t64.5 -8q49 0 88.5 9t56.5 19q11 7 20.5 17t6.5 22l23 12l75 -138l-22 -11q-15 10 -33.5 5.5t-38.5 -11.5zM490 284q0 33 -13 60t-33.5 46t-47 29.5t-54.5 10.5
q-37 1 -67.5 -11.5t-52 -34.5t-33.5 -52.5t-12 -66.5t11.5 -66.5t32.5 -53t51 -35t67 -11.5q28 0 55 10.5t48.5 29.5t34.5 46t13 61v38zM982 313q-9 54 -47 83.5t-97 29.5q-58 0 -99.5 -29.5t-55.5 -83.5h299z" />
    </font>
</defs>
</svg>
