<svg width="33" height="33" viewBox="0 0 33 33" fill="none" xmlns="http://www.w3.org/2000/svg">
<path d="M28.3974 24.1458C28.3063 24.1457 28.2166 24.1676 28.1358 24.2094C28.055 24.2513 27.9854 24.3121 27.933 24.3865C27.933 24.3865 27.4368 24.9542 27.1688 25.221C25.4823 26.91 23.3423 28.0738 21.0079 28.5714C18.6736 29.069 16.245 28.8792 14.0163 28.0249C11.7876 27.1706 9.85442 25.6885 8.4508 23.758C7.04718 21.8276 6.23335 19.5316 6.10788 17.148C5.98241 14.7645 6.55067 12.3958 7.74385 10.3286C8.93703 8.26141 10.7039 6.58451 12.8306 5.50094C14.9573 4.41738 17.3525 3.97363 19.7262 4.22344C22.0999 4.47325 24.3503 5.4059 26.2048 6.90844C26.1012 7.20939 26.104 7.53677 26.2126 7.83593C26.3213 8.1351 26.5292 8.38795 26.8018 8.5523C27.0743 8.71665 27.395 8.78255 27.7103 8.73901C28.0256 8.69546 28.3164 8.5451 28.5342 8.31302C28.752 8.08095 28.8837 7.78119 28.9072 7.46377C28.9306 7.14636 28.8446 6.8305 28.6633 6.56889C28.482 6.30729 28.2164 6.11578 27.911 6.02631C27.6056 5.93684 27.2787 5.95484 26.9849 6.07729C24.9269 4.3911 22.4158 3.3519 19.7681 3.09068C17.1204 2.82947 14.4546 3.35793 12.1068 4.60946C9.75894 5.86099 7.83418 7.77956 6.57509 10.1233C5.316 12.4671 4.77894 15.1312 5.03162 17.7797C5.28429 20.4282 6.31539 22.9427 7.99494 25.0061C9.67449 27.0695 11.9273 28.5895 14.4694 29.3746C17.0115 30.1596 19.7291 30.1744 22.2797 29.4173C24.8302 28.6602 27.0996 27.1649 28.8016 25.12C28.8821 25.0406 28.937 24.9391 28.9594 24.8283C28.9818 24.7176 28.9707 24.6026 28.9274 24.4983C28.8841 24.3939 28.8106 24.3048 28.7164 24.2424C28.6222 24.18 28.5115 24.1471 28.3985 24.148L28.3974 24.1458Z" fill="#04061F"/>
<path d="M24.502 21.6356H21.6999L18.4813 12.5033L16.674 17.4987H19.4557L20.2199 19.6728H15.9951L15.264 21.6381H12.4619L16.9325 10.0349H20.0288L24.502 21.6356Z" fill="#2276FF"/>
</svg>
