<svg width="33" height="33" viewBox="0 0 33 33" fill="none" xmlns="http://www.w3.org/2000/svg">
<path d="M20.1716 1.34216L23.6701 3.35404L9.89235 11.2771L6.3938 9.26522L20.1716 1.34216Z" fill="#2276FF"/>
<path d="M23.8114 3.77643L10.1203 11.646L10.1199 15.6277L23.8109 7.75807L23.8114 3.77643Z" fill="#2276FF"/>
<path d="M18.3055 11.5469L10.1489 16.2354L10.1484 20.2171L18.3051 15.5286L18.3055 11.5469Z" fill="#2276FF"/>
<path d="M15.1785 17.8415L10.1294 20.7439L10.1289 24.7257L15.1781 21.8233L15.1785 17.8415Z" fill="#2276FF"/>
<path d="M6.14516 9.64911L9.66429 11.6718L9.66293 15.6544L6.1438 13.6317L6.14516 9.64911Z" fill="#2276FF"/>
<path d="M6.1786 14.2109L9.65504 16.2091L9.65369 20.1917L6.17725 18.1935L6.1786 14.2109Z" fill="#2276FF"/>
<path d="M6.17723 18.7452L9.65484 20.7441L9.65339 24.9894L6.17578 22.9905L6.17723 18.7452Z" fill="#2276FF"/>
<path d="M13.9265 31.6578L10.428 29.6459L24.0494 21.8127L27.5479 23.8246L13.9265 31.6578Z" fill="#04061F"/>
<path d="M10.1504 29.3016L23.8209 21.4438L23.8213 17.4622L10.1508 25.32L10.1504 29.3016Z" fill="#04061F"/>
<path d="M15.6355 21.543L23.7921 16.8544L23.7926 12.8727L15.6359 17.5613L15.6355 21.543Z" fill="#2276FF"/>
<path d="M18.7625 15.2484L23.8116 12.346L23.8121 8.3642L18.7629 11.2666L18.7625 15.2484Z" fill="#2276FF"/>
<path d="M27.7964 23.4675L24.2773 21.4448L24.2787 17.4622L27.7978 19.4849L27.7964 23.4675Z" fill="#04061F"/>
<path d="M27.7633 18.88L24.2869 16.8818L24.2882 12.8992L27.7646 14.8974L27.7633 18.88Z" fill="#04061F"/>
<path d="M27.7645 14.3456L24.2869 12.3468L24.2883 8.1778L27.7659 10.1766L27.7645 14.3456Z" fill="#04061F"/>
</svg>
