<svg width="25" height="25" viewBox="0 0 25 25" fill="none" xmlns="http://www.w3.org/2000/svg">
<path d="M15.3714 1.13165L17.9953 2.64056L7.662 8.58288L5.03809 7.07394L15.3714 1.13165Z" fill="#2276FF"/>
<path d="M18.1011 2.9574L7.83287 8.85961L7.83252 11.8458L18.1008 5.94363L18.1011 2.9574Z" fill="#2276FF"/>
<path d="M13.9718 8.78516L7.85433 12.3015L7.854 15.2879L13.9715 11.7714L13.9718 8.78516Z" fill="#2276FF"/>
<path d="M11.6268 13.5061L7.83995 15.6829L7.8396 18.6693L11.6265 16.4925L11.6268 13.5061Z" fill="#2276FF"/>
<path d="M4.8516 7.36182L7.49095 8.87887L7.48994 11.8658L4.85059 10.3488L4.8516 7.36182Z" fill="#2276FF"/>
<path d="M4.87675 10.7832L7.48408 12.2818L7.48306 15.2688L4.87573 13.7702L4.87675 10.7832Z" fill="#2276FF"/>
<path d="M4.8756 14.184L7.4838 15.6831L7.48272 18.8671L4.87451 17.3679L4.8756 14.184Z" fill="#2276FF"/>
<path d="M10.6876 23.8684L8.06372 22.3595L18.2798 16.4846L20.9037 17.9935L10.6876 23.8684Z" fill="#04061F"/>
<path d="M7.85571 22.1012L18.1086 16.2078L18.1089 13.2216L7.85604 19.115L7.85571 22.1012Z" fill="#04061F"/>
<path d="M11.9692 16.2823L18.0867 12.7659L18.0871 9.7796L11.9696 13.296L11.9692 16.2823Z" fill="#2276FF"/>
<path d="M14.3145 11.5613L18.1013 9.38446L18.1017 6.39813L14.3148 8.57493L14.3145 11.5613Z" fill="#2276FF"/>
<path d="M21.09 17.7256L18.4507 16.2086L18.4517 13.2216L21.091 14.7386L21.09 17.7256Z" fill="#04061F"/>
<path d="M21.0651 14.285L18.4578 12.7864L18.4588 9.79944L21.0661 11.2981L21.0651 14.285Z" fill="#04061F"/>
<path d="M21.066 10.8843L18.4578 9.38509L18.4588 6.25836L21.067 7.7575L21.066 10.8843Z" fill="#04061F"/>
</svg>
