<svg width="24" height="24" viewBox="0 0 24 24" fill="none" xmlns="http://www.w3.org/2000/svg">
<path fill-rule="evenodd" clip-rule="evenodd" d="M12.0575 0.251715C9.19512 0.248806 6.42524 1.26534 4.24425 3.11916C2.06326 4.97298 0.61373 7.5429 0.155424 10.3684C-0.302881 13.1938 0.259995 16.0902 1.74318 18.5384C3.22637 20.9865 5.53292 22.8265 8.24948 23.7285C8.85581 23.8394 9.07024 23.4623 9.07024 23.1444C9.07024 22.8264 9.07024 22.1018 9.07024 21.0961C5.70585 21.8282 4.996 19.4768 4.996 19.4768C4.77281 18.748 4.29863 18.1219 3.65764 17.7096C2.57068 16.9701 3.74637 16.9701 3.74637 16.9701C4.1274 17.024 4.49118 17.1638 4.81017 17.379C5.12916 17.5942 5.395 17.8792 5.58754 18.2124C5.75115 18.509 5.97172 18.7705 6.23661 18.9817C6.5015 19.1929 6.80549 19.3497 7.13113 19.4431C7.45677 19.5366 7.79765 19.5648 8.13422 19.5261C8.47079 19.4875 8.79642 19.3828 9.09242 19.218C9.13883 18.6097 9.40107 18.038 9.83185 17.6061C7.15513 17.3029 4.34531 16.2677 4.34531 11.6906C4.32693 10.495 4.76906 9.33803 5.58015 8.45935C5.21891 7.41974 5.26113 6.28239 5.69846 5.27242C5.69846 5.27242 6.71147 4.94707 9.01109 6.50726C10.9858 5.96509 13.0701 5.96509 15.0448 6.50726C17.3444 4.94707 18.35 5.27242 18.35 5.27242C18.7935 6.2717 18.8462 7.40089 18.4979 8.43717C19.309 9.31585 19.7511 10.4728 19.7328 11.6685C19.7328 16.2973 16.9156 17.3103 14.2314 17.5839C14.5192 17.8732 14.7415 18.221 14.8831 18.6037C15.0247 18.9865 15.0824 19.3952 15.0522 19.8021C15.0522 21.4141 15.0522 22.7155 15.0522 23.1074C15.0522 23.4993 15.2666 23.8024 15.8804 23.6841C18.566 22.7583 20.838 20.9131 22.295 18.4745C23.752 16.0358 24.3002 13.1607 23.8428 10.3571C23.3854 7.55341 21.9518 5.00162 19.7953 3.15251C17.6388 1.30339 14.8982 0.27596 12.0575 0.251715Z" fill="#F4F4F5"/>
</svg>
