<svg width="24" height="24" viewBox="0 0 24 24" fill="none" xmlns="http://www.w3.org/2000/svg">
<path fill-rule="evenodd" clip-rule="evenodd" d="M12 24C18.6274 24 24 18.6274 24 12C24 5.37258 18.6274 0 12 0C5.37258 0 0 5.37258 0 12C0 18.6274 5.37258 24 12 24ZM6.98317 8.83921C5.93254 8.83921 5.08081 7.98748 5.08081 6.93685C5.08081 5.88621 5.93254 5.03448 6.98317 5.03448C8.03381 5.03448 8.88554 5.88621 8.88554 6.93685C8.88554 7.98748 8.03386 8.83921 6.98317 8.83921ZM8.45483 18.4952C8.45483 18.755 8.24423 18.9656 7.98441 18.9656H5.98194C5.72212 18.9656 5.51152 18.755 5.51152 18.4952V10.1009C5.51152 9.8411 5.72212 9.6305 5.98194 9.6305H7.98441C8.24423 9.6305 8.45483 9.8411 8.45483 10.1009V18.4952ZM18.4872 18.9656C18.726 18.9656 18.9197 18.772 18.9197 18.5331V14.4704L18.9197 14.4404C18.9198 12.6681 18.92 9.48964 15.4986 9.48964C13.9448 9.48964 13.215 10.0584 12.724 10.7954V10.063C12.724 9.82417 12.5303 9.6305 12.2915 9.6305H10.2132C9.97435 9.6305 9.78068 9.82417 9.78068 10.063V18.5331C9.78068 18.772 9.97435 18.9656 10.2132 18.9656H12.2915C12.5304 18.9656 12.724 18.772 12.724 18.5331V13.9917C12.7779 13.3815 13.0465 12.0218 14.3708 12.0218C15.9524 12.0218 15.921 13.7264 15.9078 14.4445C15.9068 14.5016 15.9058 14.5524 15.9058 14.5957V18.5331C15.9058 18.772 16.0995 18.9656 16.3384 18.9656H18.4872Z" fill="#F4F4F5"/>
</svg>
