<svg width="24" height="24" viewBox="0 0 24 24" fill="none" xmlns="http://www.w3.org/2000/svg">
<path fill-rule="evenodd" clip-rule="evenodd" d="M12 24C18.6274 24 24 18.6274 24 12C24 5.37258 18.6274 0 12 0C5.37258 0 0 5.37258 0 12C0 18.6274 5.37258 24 12 24ZM12.0002 11.8819L3.9969 7.88073C4.02653 7.37077 4.25001 6.89144 4.62157 6.5409C4.99314 6.19036 5.48466 5.99515 5.99548 5.99524H18.005C18.5158 5.99515 19.0074 6.19036 19.3789 6.5409C19.7505 6.89144 19.974 7.37077 20.0036 7.88073L12.0002 11.8819ZM12.0002 14.1197L20.0066 10.1165V16.0032C20.0066 16.534 19.7957 17.0431 19.4203 17.4185C19.045 17.7939 18.5359 18.0048 18.005 18.0048H5.99548C5.46463 18.0048 4.95552 17.7939 4.58015 17.4185C4.20478 17.0431 3.9939 16.534 3.9939 16.0032V10.1165L12.0002 14.1197Z" fill="#F4F4F5"/>
</svg>
