<svg width="33" height="33" viewBox="0 0 33 33" fill="none" xmlns="http://www.w3.org/2000/svg">
<g clip-path="url(#clip0_201_261)">
<path d="M17.0784 24.4794C16.9197 26.4295 16.806 27.5625 16.4031 28.6769C16.4031 28.6769 16.6676 30.5334 16.8533 32.5H17.5107C17.6675 31.1151 17.9069 29.7404 18.2277 28.3829C17.3767 27.9733 17.1111 26.1905 17.0784 24.4794Z" fill="#04061F"/>
<path d="M24.0505 13.2346C22.3272 5.79754 18.7354 3.81771 17.8192 2.41817C17.4414 1.80164 17.1067 1.16078 16.8174 0.5C16.769 1.16068 16.6801 1.57691 16.106 2.07792C14.9534 3.08326 10.0582 6.98567 9.64621 15.4358C9.26238 23.3144 15.5669 28.1725 16.3998 28.6747C17.0403 28.983 17.8203 28.6813 18.2008 28.3983C21.2399 26.3579 25.3923 20.9183 24.0539 13.2346" fill="#2276FF"/>
<path opacity="0.3" d="M18.2266 28.3839C17.3666 27.9952 17.1179 26.1751 17.0796 24.4793C17.2923 21.6821 17.3543 18.8758 17.2653 16.0722C17.2203 14.6011 17.2867 2.44679 16.895 0.667358C17.163 1.27003 17.4717 1.85456 17.8191 2.41706C18.7354 3.81769 22.3283 5.79753 24.0505 13.2346C25.3922 20.905 21.2624 26.3303 18.2266 28.3839Z" fill="#04061F"/>
</g>
<defs>
<clipPath id="clip0_201_261">
<rect width="32" height="32" fill="white" transform="translate(0.970703 0.5)"/>
</clipPath>
</defs>
</svg>
