<svg width="33" height="33" viewBox="0 0 33 33" fill="none" xmlns="http://www.w3.org/2000/svg">
<path d="M31.9705 16.503C31.9705 14.5303 29.4817 12.6607 25.6659 11.5013C26.5465 7.6408 26.1551 4.56938 24.4307 3.58604C24.0332 3.35538 23.5685 3.24612 23.061 3.24612V4.59973C23.3422 4.59973 23.5685 4.65436 23.7581 4.75755C24.5897 5.23101 24.9505 7.0338 24.6692 9.35254C24.6019 9.92312 24.4919 10.5241 24.3573 11.1371C23.1588 10.8458 21.8502 10.6212 20.4743 10.4755C19.6488 9.35254 18.7927 8.33278 17.9305 7.44049C19.924 5.60128 21.7952 4.59366 23.0671 4.59366V3.24005C21.3855 3.24005 19.1841 4.42977 16.9582 6.49357C14.7324 4.44191 12.531 3.26433 10.8494 3.26433V4.61794C12.1152 4.61794 13.9925 5.61949 15.986 7.44656C15.1299 8.33885 14.2738 9.35254 13.4605 10.4755C12.0785 10.6212 10.7699 10.8458 9.57136 11.1432C9.43071 10.5362 9.32676 9.9474 9.25338 9.38289C8.96597 7.06415 9.32064 5.26136 10.1462 4.78183C10.3296 4.67257 10.5681 4.62401 10.8494 4.62401V3.2704C10.3357 3.2704 9.87099 3.37966 9.4674 3.61032C7.7491 4.59366 7.36385 7.65901 8.25052 11.5074C4.44702 12.6728 1.97046 14.5363 1.97046 16.503C1.97046 18.4758 4.45925 20.3453 8.27498 21.5047C7.39443 25.3652 7.78579 28.4366 9.51021 29.42C9.90768 29.6506 10.3724 29.7599 10.8861 29.7599C12.5677 29.7599 14.7691 28.5702 16.9949 26.5064C19.2208 28.558 21.4222 29.7356 23.1038 29.7356C23.6174 29.7356 24.0822 29.6263 24.4857 29.3957C26.2041 28.4123 26.5893 25.347 25.7026 21.4986C29.4939 20.3392 31.9705 18.4697 31.9705 16.503ZM24.0088 12.4543C23.7825 13.2373 23.5012 14.0446 23.1833 14.852C22.9325 14.3664 22.6696 13.8808 22.3822 13.3952C22.1009 12.9096 21.8013 12.4361 21.5016 11.9748C22.37 12.1022 23.2077 12.2601 24.0088 12.4543ZM21.2081 18.9189C20.7312 19.7383 20.242 20.5153 19.7344 21.2376C18.8233 21.3165 17.8999 21.359 16.9705 21.359C16.0471 21.359 15.1237 21.3165 14.2187 21.2437C13.7112 20.5213 13.2159 19.7504 12.7389 18.9371C12.2742 18.1419 11.8522 17.3346 11.467 16.5212C11.8461 15.7078 12.2742 14.8944 12.7328 14.0993C13.2098 13.2798 13.699 12.5029 14.2065 11.7805C15.1176 11.7016 16.041 11.6591 16.9705 11.6591C17.8938 11.6591 18.8172 11.7016 19.7222 11.7745C20.2297 12.4968 20.725 13.2677 21.202 14.0811C21.6668 14.8762 22.0887 15.6836 22.4739 16.4969C22.0887 17.3103 21.6667 18.1237 21.2081 18.9189ZM23.1833 18.1298C23.5135 18.9431 23.7948 19.7565 24.0271 20.5456C23.2261 20.7399 22.3822 20.9037 21.5078 21.0312C21.8074 20.5638 22.107 20.0843 22.3883 19.5926C22.6696 19.107 22.9325 18.6154 23.1833 18.1298ZM16.9827 24.6064C16.414 24.0237 15.8453 23.3742 15.2827 22.664C15.8331 22.6883 16.3957 22.7065 16.9643 22.7065C17.5392 22.7065 18.1078 22.6944 18.6643 22.664C18.114 23.3742 17.5453 24.0237 16.9827 24.6064ZM12.4332 21.0312C11.5648 20.9037 10.7271 20.7459 9.92602 20.5517C10.1523 19.7687 10.4336 18.9614 10.7515 18.154C11.0023 18.6396 11.2652 19.1252 11.5526 19.6108C11.84 20.0964 12.1335 20.5699 12.4332 21.0312ZM16.9521 8.39955C17.5208 8.98227 18.0895 9.63176 18.6521 10.342C18.1017 10.3177 17.5392 10.2995 16.9705 10.2995C16.3957 10.2995 15.827 10.3116 15.2705 10.342C15.8208 9.63176 16.3895 8.98227 16.9521 8.39955ZM12.427 11.9748C12.1274 12.4422 11.8278 12.9217 11.5465 13.4134C11.2652 13.899 11.0023 14.3846 10.7515 14.8702C10.4213 14.0568 10.14 13.2434 9.90768 12.4543C10.7087 12.2661 11.5526 12.1022 12.427 11.9748ZM6.893 19.5744C4.72831 18.6578 3.32798 17.456 3.32798 16.503C3.32798 15.55 4.72831 14.3421 6.893 13.4316C7.41889 13.207 7.9937 13.0067 8.58685 12.8185C8.9354 14.0082 9.39402 15.2465 9.96271 16.5151C9.40014 17.7777 8.94763 19.0099 8.60519 20.1936C7.99981 20.0054 7.42501 19.799 6.893 19.5744ZM10.1829 28.2484C9.35122 27.775 8.99044 25.9722 9.27172 23.6535C9.33899 23.0829 9.44906 22.4819 9.58359 21.8689C10.7821 22.1602 12.0907 22.3848 13.4666 22.5305C14.2921 23.6535 15.1482 24.6732 16.0104 25.5655C14.0169 27.4047 12.1458 28.4123 10.8738 28.4123C10.5987 28.4063 10.3663 28.3516 10.1829 28.2484ZM24.6875 23.6231C24.9749 25.9418 24.6203 27.7446 23.7948 28.2242C23.6113 28.3334 23.3728 28.382 23.0915 28.382C21.8257 28.382 19.9484 27.3804 17.955 25.5534C18.8111 24.6611 19.6672 23.6474 20.4804 22.5244C21.8624 22.3788 23.171 22.1542 24.3696 21.8567C24.5102 22.4698 24.6203 23.0586 24.6875 23.6231ZM27.0418 19.5744C26.5159 19.799 25.9411 19.9993 25.348 20.1875C24.9994 18.9978 24.5408 17.7595 23.9721 16.4909C24.5347 15.2283 24.9872 13.9961 25.3296 12.8124C25.935 13.0006 26.5098 13.207 27.0479 13.4316C29.2126 14.3482 30.6129 15.55 30.6129 16.503C30.6068 17.456 29.2065 18.6639 27.0418 19.5744Z" fill="#2276FF"/>
<path d="M16.9644 19.277C18.5078 19.277 19.7589 18.035 19.7589 16.503C19.7589 14.971 18.5078 13.729 16.9644 13.729C15.421 13.729 14.1698 14.971 14.1698 16.503C14.1698 18.035 15.421 19.277 16.9644 19.277Z" fill="#2276FF"/>
<ellipse cx="16.9704" cy="16.5" rx="2.81931" ry="2.81931" fill="#04061F"/>
</svg>
