<svg width="25" height="25" viewBox="0 0 25 25" fill="none" xmlns="http://www.w3.org/2000/svg">
<g clip-path="url(#clip0_201_229)">
<path d="M24.2207 12.5023C24.2207 11.0227 22.3541 9.62053 19.4923 8.75101C20.1527 5.85562 19.8592 3.55205 18.5659 2.81455C18.2678 2.64155 17.9192 2.55961 17.5386 2.55961V3.57481C17.7495 3.57481 17.9192 3.61579 18.0614 3.69318C18.6851 4.04827 18.9557 5.40037 18.7448 7.13942C18.6943 7.56736 18.6118 8.01805 18.5109 8.47786C17.612 8.25934 16.6305 8.09089 15.5986 7.98163C14.9795 7.13942 14.3374 6.3746 13.6907 5.70538C15.1858 4.32598 16.5892 3.57026 17.5432 3.57026V2.55505C16.282 2.55505 14.6309 3.44734 12.9615 4.99519C11.2921 3.45645 9.64111 2.57326 8.3799 2.57326V3.58847C9.32924 3.58847 10.7372 4.33963 12.2323 5.70994C11.5903 6.37915 10.9482 7.13942 10.3382 7.98163C9.30173 8.09089 8.32028 8.25934 7.42138 8.48241C7.31589 8.02716 7.23793 7.58557 7.18289 7.16218C6.96734 5.42313 7.23334 4.07104 7.85248 3.71139C7.99007 3.62944 8.16893 3.59302 8.3799 3.59302V2.57782C7.99465 2.57782 7.6461 2.65976 7.34341 2.83276C6.05468 3.57026 5.76575 5.86927 6.43075 8.75556C3.57812 9.62964 1.7207 11.0273 1.7207 12.5023C1.7207 13.9818 3.58729 15.384 6.4491 16.2535C5.78868 19.1489 6.0822 21.4525 7.37551 22.19C7.67362 22.363 8.02217 22.4449 8.40741 22.4449C9.66862 22.4449 11.3197 21.5526 12.989 20.0048C14.6584 21.5435 16.3095 22.4267 17.5707 22.4267C17.9559 22.4267 18.3045 22.3448 18.6072 22.1718C19.8959 21.4343 20.1848 19.1353 19.5198 16.249C22.3633 15.3794 24.2207 13.9773 24.2207 12.5023ZM18.2494 9.46575C18.0798 10.053 17.8688 10.6585 17.6303 11.264C17.4423 10.8998 17.2451 10.5356 17.0295 10.1714C16.8185 9.80719 16.5938 9.45209 16.3691 9.1061C17.0203 9.2017 17.6486 9.32007 18.2494 9.46575ZM16.149 14.3142C15.7912 14.9287 15.4243 15.5115 15.0437 16.0532C14.3603 16.1124 13.6678 16.1443 12.9707 16.1443C12.2782 16.1443 11.5857 16.1124 10.9069 16.0578C10.5262 15.516 10.1548 14.9379 9.79704 14.3278C9.44849 13.7314 9.13204 13.126 8.8431 12.5159C9.12745 11.9059 9.44849 11.2959 9.79245 10.6995C10.1502 10.0849 10.5171 9.50217 10.8977 8.96042C11.5811 8.90124 12.2736 8.86937 12.9707 8.86937C13.6632 8.86937 14.3557 8.90124 15.0345 8.95587C15.4152 9.49762 15.7866 10.0758 16.1444 10.6858C16.4929 11.2822 16.8094 11.8877 17.0983 12.4977C16.8094 13.1077 16.4929 13.7178 16.149 14.3142ZM17.6303 13.7223C17.878 14.3324 18.0889 14.9424 18.2632 15.5342C17.6624 15.6799 17.0295 15.8028 16.3737 15.8984C16.5984 15.5479 16.8231 15.1882 17.0341 14.8195C17.2451 14.4553 17.4423 14.0865 17.6303 13.7223ZM12.9799 18.5799C12.5534 18.1428 12.1268 17.6557 11.7049 17.1231C12.1177 17.1413 12.5396 17.1549 12.9661 17.1549C13.3972 17.1549 13.8237 17.1458 14.2411 17.1231C13.8283 17.6557 13.4018 18.1428 12.9799 18.5799ZM9.56773 15.8984C8.91648 15.8028 8.28817 15.6845 7.68738 15.5388C7.85707 14.9515 8.06803 14.346 8.30652 13.7405C8.49455 14.1047 8.69176 14.4689 8.90731 14.8331C9.12286 15.1973 9.343 15.5524 9.56773 15.8984ZM12.9569 6.42468C13.3835 6.86172 13.81 7.34884 14.2319 7.88148C13.8192 7.86327 13.3972 7.84961 12.9707 7.84961C12.5396 7.84961 12.1131 7.85872 11.6957 7.88148C12.1085 7.34884 12.535 6.86172 12.9569 6.42468ZM9.56314 9.1061C9.33842 9.45664 9.11369 9.81629 8.90273 10.185C8.69176 10.5492 8.49455 10.9134 8.30652 11.2776C8.05886 10.6676 7.84789 10.0576 7.67362 9.46575C8.27441 9.32462 8.90731 9.2017 9.56314 9.1061ZM5.41261 14.8058C3.78909 14.1184 2.73884 13.217 2.73884 12.5023C2.73884 11.7875 3.78909 10.8816 5.41261 10.1987C5.80703 10.0303 6.23813 9.88003 6.68299 9.7389C6.94441 10.6312 7.28838 11.5599 7.71489 12.5114C7.29296 13.4583 6.95358 14.3824 6.69675 15.2702C6.24272 15.1291 5.81161 14.9743 5.41261 14.8058ZM7.88 21.3114C7.25627 20.9563 6.98569 19.6042 7.19665 17.8651C7.2471 17.4372 7.32965 16.9865 7.43055 16.5267C8.32945 16.7452 9.3109 16.9136 10.3428 17.0229C10.9619 17.8651 11.604 18.6299 12.2507 19.2991C10.7556 20.6786 9.35217 21.4343 8.39824 21.4343C8.19186 21.4297 8.01759 21.3887 7.88 21.3114ZM18.7585 17.8423C18.9741 19.5814 18.7081 20.9335 18.0889 21.2931C17.9513 21.3751 17.7725 21.4115 17.5615 21.4115C16.6122 21.4115 15.2042 20.6603 13.7091 19.29C14.3512 18.6208 14.9932 17.8606 15.6032 17.0183C16.6397 16.9091 17.6211 16.7406 18.52 16.5176C18.6255 16.9774 18.7081 17.419 18.7585 17.8423ZM20.5242 14.8058C20.1298 14.9743 19.6987 15.1245 19.2538 15.2656C18.9924 14.3733 18.6484 13.4446 18.2219 12.4932C18.6439 11.5462 18.9832 10.6221 19.2401 9.73435C19.6941 9.87547 20.1252 10.0303 20.5288 10.1987C22.1523 10.8861 23.2026 11.7875 23.2026 12.5023C23.198 13.217 22.1477 14.123 20.5242 14.8058Z" fill="#2276FF"/>
<path d="M12.9661 14.5828C14.1237 14.5828 15.062 13.6513 15.062 12.5023C15.062 11.3532 14.1237 10.4218 12.9661 10.4218C11.8086 10.4218 10.8702 11.3532 10.8702 12.5023C10.8702 13.6513 11.8086 14.5828 12.9661 14.5828Z" fill="#2276FF"/>
<ellipse cx="12.9707" cy="12.5" rx="2.11448" ry="2.11448" fill="#04061F"/>
</g>
<defs>
<clipPath id="clip0_201_229">
<rect width="24" height="24" fill="white" transform="translate(0.970703 0.5)"/>
</clipPath>
</defs>
</svg>
