<svg width="33" height="33" viewBox="0 0 33 33" fill="none" xmlns="http://www.w3.org/2000/svg">
<g clip-path="url(#clip0_201_284)">
<path d="M23.0978 22.4825C24.2701 22.3612 25.1593 21.3507 25.1189 20.138C25.0785 18.9253 24.0679 17.9552 22.8553 17.9552H22.7744C21.5213 17.9956 20.5512 19.0466 20.5916 20.2997C20.632 20.906 20.8746 21.4315 21.2384 21.7953C19.864 24.5036 17.762 26.4843 14.6091 28.1416C12.4667 29.2735 10.2434 29.6777 8.0202 29.3947C6.20119 29.1522 4.7864 28.3438 3.8971 27.0098C2.60358 25.0291 2.48232 22.8867 3.57372 20.7443C4.34175 19.2083 5.55443 18.0764 6.32245 17.5105C6.16076 16.985 5.91823 16.0957 5.79696 15.449C-0.0643034 19.6933 0.542035 25.4333 2.32063 28.1416C3.65457 30.1628 6.36288 31.4159 9.35414 31.4159C10.1626 31.4159 10.971 31.335 11.7795 31.1329C16.9536 30.1223 20.8746 27.0502 23.0978 22.4825Z" fill="#04061F"/>
<path d="M30.2122 17.4701C27.1401 13.8725 22.6128 11.8918 17.4387 11.8918H16.792C16.4282 11.1641 15.6601 10.6791 14.8113 10.6791H14.7304C13.4773 10.7195 12.5072 11.7705 12.5476 13.0236C12.588 14.2363 13.5986 15.2064 14.8113 15.2064H14.8921C15.7814 15.166 16.5494 14.6001 16.8728 13.832H17.6004C20.6725 13.832 23.583 14.7213 26.2104 16.4595C28.2315 17.7934 29.6867 19.5316 30.4952 21.6336C31.1824 23.3313 31.142 24.9886 30.4144 26.4034C29.2825 28.5458 27.3827 29.7181 24.8765 29.7181C23.2596 29.7181 21.7235 29.233 20.9151 28.8692C20.4704 29.2734 19.662 29.9202 19.0961 30.3244C20.8342 31.1329 22.6128 31.5775 24.3106 31.5775C28.1911 31.5775 31.0611 29.4351 32.1525 27.2927C33.3248 24.9482 33.2439 20.906 30.2122 17.4701Z" fill="#2276FF"/>
<path d="M9.67746 23.1697C9.71789 24.3823 10.7284 25.3525 11.9411 25.3525H12.022C13.2751 25.3121 14.2452 24.2611 14.2048 23.008C14.1644 21.7953 13.1538 20.8252 11.9411 20.8252H11.8603C11.7794 20.8252 11.6582 20.8252 11.5773 20.8656C9.92 18.1169 9.23282 15.1256 9.47535 11.8918C9.63704 9.46644 10.4455 7.36447 11.8603 5.6263C13.0325 4.13067 15.2962 3.40307 16.8322 3.36264C21.117 3.2818 22.936 8.61757 23.0573 10.76C23.5828 10.8812 24.4721 11.1642 25.0784 11.3663C24.5934 4.81785 20.5511 1.42236 16.6706 1.42236C13.0325 1.42236 9.67746 4.04983 8.34352 7.93039C6.48409 13.1045 7.69676 18.0764 9.96042 21.9974C9.75831 22.2804 9.63704 22.725 9.67746 23.1697V23.1697Z" fill="#17193B"/>
</g>
<defs>
<clipPath id="clip0_201_284">
<rect width="32" height="32" fill="white" transform="translate(0.970703 0.5)"/>
</clipPath>
</defs>
</svg>
