<svg width="33" height="33" viewBox="0 0 33 33" fill="none" xmlns="http://www.w3.org/2000/svg">
<path d="M20.8725 4.5H20.5918V4.7807V7.39117V7.67188H20.8725H23.4831H23.7638V7.39117V4.7807V4.5H23.4831H20.8725Z" fill="#04061F"/>
<path d="M12.4795 4.5C11.4689 4.5 10.4865 4.69652 9.5602 5.0895C8.66196 5.46845 7.86196 6.01582 7.17424 6.70354C6.48652 7.39126 5.93915 8.19126 5.5602 9.0895C5.16722 10.0158 4.9707 10.9982 4.9707 12.0088V23.0123V23.293H5.2514H7.86188H8.14258V23.0123V11.9667C8.19872 10.8299 8.67591 9.76321 9.47591 8.97725C10.2899 8.17725 11.3566 7.71398 12.4935 7.67188H18.2759H18.5566V7.39117V4.7807V4.5H18.2759H12.4795Z" fill="#2276FF"/>
<path d="M26.0795 14.9141H25.7988V15.1948V17.8052V18.0859H26.0795H28.69H28.9707V17.8052V15.1948V14.9141H28.69H26.0795Z" fill="#04061F"/>
<path d="M26.0795 9.70697H25.7988V9.98767V12.5983V12.879H26.0795H28.69H28.9707V12.5983V9.98767V9.70697H28.69H26.0795Z" fill="#04061F"/>
<path d="M28.69 4.5H26.0795H25.7988V4.7807V7.39117V7.67188H26.0795H28.69H28.9707V7.39117V4.7807V4.5H28.69Z" fill="#04061F"/>
<path d="M26.0795 20.121H25.7988V20.4017V23.0123V23.293H26.0795H28.69H28.9707V23.0123V20.4017V20.121H28.69H26.0795Z" fill="#04061F"/>
<path d="M26.0795 25.3281H25.7988V25.6088V28.2193V28.5H26.0795H28.69H28.9707V28.2193V25.6088V25.3281H28.69H26.0795Z" fill="#04061F"/>
<path d="M20.8725 25.3281H20.5918V25.6088V28.2193V28.5H20.8725H23.4831H23.7638V28.2193V25.6088V25.3281H23.4831H20.8725Z" fill="#04061F"/>
<path d="M15.6655 25.3281H15.3848V25.6088V28.2193V28.5H15.6655H18.2759H18.5566V28.2193V25.6088V25.3281H18.2759H15.6655Z" fill="#04061F"/>
<path d="M10.4584 25.3281H10.1777V25.6088V28.2193V28.5H10.4584H13.069H13.3497V28.2193V25.6088V25.3281H13.069H10.4584Z" fill="#04061F"/>
<path d="M5.2514 25.3281H4.9707V25.6088V28.2193V28.5H5.2514H7.86188H8.14258V28.2193V25.6088V25.3281H7.86188H5.2514Z" fill="#04061F"/>
</svg>
