<svg width="25" height="25" viewBox="0 0 25 25" fill="none" xmlns="http://www.w3.org/2000/svg">
<g clip-path="url(#clip0_201_289)">
<path d="M8.36126 14.6096C9.54599 14.6096 10.5041 13.6515 10.5041 12.4667C10.5041 11.282 9.54599 10.3239 8.36126 10.3239C7.17653 10.3239 6.21839 11.282 6.21839 12.4667C6.21839 13.6515 7.17653 14.6096 8.36126 14.6096ZM3.29864 18.8954C4.48337 18.8954 5.44151 17.9372 5.44151 16.7525C5.44151 15.5677 4.48337 14.6096 3.29864 14.6096C2.11391 14.6096 1.15576 15.5677 1.15576 16.7525C1.15576 17.9372 2.11391 18.8954 3.29864 18.8954ZM22.6428 18.8954C23.8275 18.8954 24.7857 17.9372 24.7857 16.7525C24.7857 15.5677 23.8275 14.6096 22.6428 14.6096C21.4581 14.6096 20.4999 15.5677 20.4999 16.7525C20.4999 17.9372 21.4581 18.8954 22.6428 18.8954Z" fill="#04061F"/>
<path d="M15.6055 12.5574C15.5343 11.8388 15.5019 11.2432 14.9517 10.8288C14.2589 10.298 13.4691 10.6411 12.5045 10.2915C11.5528 10.0584 10.8472 9.21684 10.8472 8.2069C10.8472 7.02217 11.8247 6.06403 13.0289 6.06403C13.9223 6.06403 14.6862 6.58841 15.0229 7.34587C15.5408 8.32991 15.2041 9.32689 15.8515 9.83186C16.6219 10.4275 17.6578 9.99371 18.8166 10.5569C19.1856 10.7253 19.5028 10.9972 19.7229 11.3338C19.9431 11.6705 20.0725 12.0718 20.0725 12.4991C20.0725 13.5091 19.3669 14.3507 18.4152 14.5837C17.4441 14.9333 16.6608 14.5902 15.9681 15.1211C15.1847 15.7167 15.6055 16.7137 14.9711 17.7689C14.6085 18.4616 13.877 18.9407 13.0289 18.9407C11.8247 18.9407 10.8472 17.9826 10.8472 16.7978C10.8472 15.9368 11.3651 15.1923 12.1031 14.8556C13.262 14.2924 14.2978 14.7262 15.0682 14.1306C15.5149 13.7745 15.6055 13.2436 15.6055 12.5574Z" fill="#2276FF"/>
</g>
<defs>
<clipPath id="clip0_201_289">
<rect width="24" height="24" fill="white" transform="translate(0.970703 0.5)"/>
</clipPath>
</defs>
</svg>
