<svg width="33" height="33" viewBox="0 0 33 33" fill="none" xmlns="http://www.w3.org/2000/svg">
<g clip-path="url(#clip0_201_289)">
<path d="M10.8249 19.3129C12.4045 19.3129 13.682 18.0354 13.682 16.4557C13.682 14.8761 12.4045 13.5986 10.8249 13.5986C9.24522 13.5986 7.9677 14.8761 7.9677 16.4557C7.9677 18.0354 9.24522 19.3129 10.8249 19.3129ZM4.0747 25.0272C5.65434 25.0272 6.93186 23.7497 6.93186 22.1701C6.93186 20.5904 5.65434 19.3129 4.0747 19.3129C2.49505 19.3129 1.21753 20.5904 1.21753 22.1701C1.21753 23.7497 2.49505 25.0272 4.0747 25.0272ZM29.8669 25.0272C31.4465 25.0272 32.7241 23.7497 32.7241 22.1701C32.7241 20.5904 31.4465 19.3129 29.8669 19.3129C28.2872 19.3129 27.0097 20.5904 27.0097 22.1701C27.0097 23.7497 28.2872 25.0272 29.8669 25.0272Z" fill="#04061F"/>
<path d="M20.4839 16.5766C20.3889 15.6184 20.3458 14.8243 19.612 14.2719C18.6884 13.564 17.6353 14.0215 16.3492 13.5554C15.0803 13.2447 14.1394 12.1225 14.1394 10.7759C14.1394 9.19629 15.4428 7.91876 17.0484 7.91876C18.2396 7.91876 19.2581 8.61795 19.707 9.62788C20.3976 10.9399 19.9487 12.2693 20.8119 12.9425C21.8391 13.7367 23.2202 13.1583 24.7653 13.9093C25.2573 14.1338 25.6803 14.4963 25.9738 14.9452C26.2673 15.394 26.4399 15.9292 26.4399 16.4989C26.4399 17.8455 25.499 18.9676 24.2301 19.2784C22.9353 19.7445 21.8909 19.287 20.9673 19.9948C19.9228 20.789 20.4839 22.1183 19.6379 23.5253C19.1546 24.4489 18.1791 25.0877 17.0484 25.0877C15.4428 25.0877 14.1394 23.8101 14.1394 22.2305C14.1394 21.0825 14.83 20.0898 15.814 19.6409C17.3591 18.8899 18.7402 19.4683 19.7674 18.6741C20.363 18.1994 20.4839 17.4916 20.4839 16.5766Z" fill="#2276FF"/>
</g>
<defs>
<clipPath id="clip0_201_289">
<rect width="32" height="32" fill="white" transform="translate(0.970703 0.5)"/>
</clipPath>
</defs>
</svg>
