<svg width="33" height="33" viewBox="0 0 33 33" fill="none" xmlns="http://www.w3.org/2000/svg">
<path fill-rule="evenodd" clip-rule="evenodd" d="M10.1661 16.5C6.53728 16.5 4.26902 18.3037 3.36182 21.9112C4.72288 20.1075 6.31062 19.4312 8.12448 19.8819C9.16022 20.1389 9.90048 20.8856 10.7191 21.7123C12.0535 23.0584 13.5975 24.6163 16.9709 24.6163C20.5997 24.6163 22.8679 22.8131 23.7751 19.2056C22.4141 21.0093 20.8263 21.6856 19.0119 21.2349C17.9767 20.9773 17.2365 20.2307 16.4178 19.4045C15.0834 18.0584 13.5389 16.5 10.1661 16.5Z" fill="#04061F"/>
<path fill-rule="evenodd" clip-rule="evenodd" d="M16.9708 8.38373C13.3415 8.38373 11.0737 10.1875 10.166 13.7949C11.5271 11.9912 13.1148 11.3149 14.9292 11.7656C15.9644 12.0227 16.7047 12.7693 17.5233 13.596C18.8577 14.9421 20.4023 16.5 23.7751 16.5C27.4039 16.5 29.6721 14.6963 30.5793 11.0893C29.2188 12.8931 27.6311 13.5693 25.8167 13.1181C24.7809 12.8611 24.0407 12.1144 23.222 11.2883C21.8876 9.94106 20.3436 8.38373 16.9708 8.38373Z" fill="#2276FF"/>
</svg>
