<svg width="25" height="25" viewBox="0 0 25 25" fill="none" xmlns="http://www.w3.org/2000/svg">
<path fill-rule="evenodd" clip-rule="evenodd" d="M7.86736 12.5C5.14576 12.5 3.44456 13.8528 2.76416 16.5584C3.78496 15.2056 4.97576 14.6984 6.33616 15.0364C7.11296 15.2292 7.66816 15.7892 8.28216 16.4092C9.28296 17.4188 10.441 18.5872 12.971 18.5872C15.6926 18.5872 17.3938 17.2348 18.0742 14.5292C17.0534 15.882 15.8626 16.3892 14.5018 16.0512C13.7254 15.858 13.1702 15.298 12.5562 14.6784C11.5554 13.6688 10.397 12.5 7.86736 12.5Z" fill="#04061F"/>
<path fill-rule="evenodd" clip-rule="evenodd" d="M12.9708 6.41278C10.2488 6.41278 8.54799 7.76558 7.86719 10.4712C8.88799 9.11838 10.0788 8.61118 11.4396 8.94918C12.216 9.14198 12.7712 9.70198 13.3852 10.322C14.386 11.3316 15.5444 12.5 18.074 12.5C20.7956 12.5 22.4968 11.1472 23.1772 8.44198C22.1568 9.79478 20.966 10.302 19.6052 9.96358C18.8284 9.77078 18.2732 9.21078 17.6592 8.59118C16.6584 7.58078 15.5004 6.41278 12.9708 6.41278Z" fill="#2276FF"/>
</svg>
