<svg width="33" height="33" viewBox="0 0 33 33" fill="none" xmlns="http://www.w3.org/2000/svg">
<path d="M28.9707 2.5H4.9707C3.86613 2.5 2.9707 3.39543 2.9707 4.5V28.5C2.9707 29.6046 3.86613 30.5 4.9707 30.5H28.9707C30.0753 30.5 30.9707 29.6046 30.9707 28.5V4.5C30.9707 3.39543 30.0753 2.5 28.9707 2.5Z" fill="#2276FF"/>
<path fill-rule="evenodd" clip-rule="evenodd" d="M20.3033 24.781V27.5187C20.7484 27.7469 21.2747 27.9179 21.8824 28.032C22.4901 28.1461 23.1305 28.2031 23.8039 28.2031C24.46 28.2031 25.0834 28.1404 25.6739 28.0149C26.2645 27.8894 26.7824 27.6827 27.2274 27.3946C27.6724 27.1066 28.0248 26.7302 28.2844 26.2653C28.544 25.8005 28.6738 25.2259 28.6738 24.5415C28.6738 24.0452 28.5997 23.6104 28.4513 23.2368C28.3029 22.8632 28.089 22.531 27.8094 22.2401C27.5298 21.9492 27.1946 21.6883 26.8037 21.4573C26.4129 21.2263 25.9721 21.0081 25.4814 20.8028C25.1219 20.6545 24.7995 20.5105 24.5142 20.3708C24.2289 20.231 23.9865 20.0884 23.7867 19.943C23.587 19.7975 23.433 19.6435 23.3246 19.481C23.2162 19.3184 23.1619 19.1345 23.1619 18.9292C23.1619 18.741 23.2104 18.5713 23.3075 18.4201C23.4045 18.269 23.5414 18.1393 23.7183 18.0309C23.8952 17.9225 24.112 17.8384 24.3687 17.7785C24.6255 17.7186 24.9108 17.6887 25.2246 17.6887C25.4528 17.6887 25.6939 17.7058 25.9478 17.74C26.2017 17.7742 26.4571 17.827 26.7139 17.8982C26.9706 17.9696 27.2202 18.0594 27.4628 18.1678C27.7053 18.2761 27.9292 18.4016 28.1346 18.5442V15.9862C27.7181 15.8265 27.2631 15.7081 26.7695 15.6311C26.2759 15.5541 25.7096 15.5156 25.0706 15.5156C24.4201 15.5156 23.8039 15.5855 23.2219 15.7252C22.6399 15.865 22.1278 16.0831 21.6855 16.3797C21.2433 16.6763 20.8939 17.0541 20.6371 17.5133C20.3804 17.9724 20.252 18.5214 20.252 19.1602C20.252 19.9758 20.4873 20.6716 20.9581 21.2477C21.4288 21.8237 22.1434 22.3114 23.102 22.7106C23.4786 22.8646 23.8296 23.0157 24.1548 23.1641C24.48 23.3124 24.761 23.4664 24.9978 23.6261C25.2346 23.7857 25.4215 23.9597 25.5584 24.1479C25.6954 24.3361 25.7639 24.55 25.7639 24.7896C25.7639 24.9664 25.721 25.1303 25.6354 25.2815C25.5499 25.4327 25.42 25.5638 25.246 25.675C25.072 25.7863 24.8552 25.8732 24.5956 25.9359C24.3359 25.9987 24.0321 26.0301 23.684 26.0301C23.0906 26.0301 22.5029 25.926 21.9209 25.7178C21.3389 25.5097 20.7997 25.1974 20.3033 24.781V24.781ZM15.7009 18.0357H19.2129V15.7891H9.42383V18.0357H12.9187V28.0391H15.7009V18.0357Z" fill="#17193B"/>
</svg>
