<svg width="33" height="33" viewBox="0 0 33 33" fill="none" xmlns="http://www.w3.org/2000/svg">
<path d="M15.798 4.53008C13.4433 4.78821 11.2293 5.69872 9.44209 7.13957C8.83699 7.62767 7.84724 8.64613 7.41101 9.2281C6.16796 10.8895 5.37523 12.7856 5.07502 14.8272C4.97183 15.5171 4.93899 16.836 5.00466 17.5259C5.20167 19.5581 5.84899 21.4354 6.90441 23.0358C8.84637 25.9879 11.8156 27.8794 15.3055 28.3956C15.995 28.4989 17.3131 28.5317 18.0027 28.466C20.0337 28.2689 21.91 27.6212 23.5096 26.5652C26.46 24.6222 28.3504 21.6513 28.8664 18.1595C28.9696 17.4696 29.0024 16.1507 28.9367 15.4608C28.6975 13.0015 27.8204 10.8238 26.3193 8.96058C25.8315 8.35514 24.8136 7.36485 24.2319 6.92837C22.5714 5.68464 20.6904 4.90085 18.6359 4.5911C18.0683 4.50662 16.3515 4.46907 15.798 4.53008ZM20.0619 15.55C21.6896 18.3988 23.0217 20.7361 23.0217 20.7455C23.0217 20.7549 20.3527 20.7643 17.088 20.7643C13.8232 20.7643 11.1542 20.7549 11.1542 20.7408C11.1542 20.7033 17.0786 10.3404 17.0927 10.3592C17.0974 10.3639 18.4389 12.7012 20.0619 15.55Z" fill="#2276FF"/>
</svg>
