<svg width="33" height="33" viewBox="0 0 33 33" fill="none" xmlns="http://www.w3.org/2000/svg">
<path d="M2.9777 16.004L3.46945 13.5855C4.8082 8.79924 10.2944 6.81036 14.0779 9.76786C16.2891 11.5074 16.8386 13.9679 16.7292 16.7241H4.2657C4.07845 21.6854 7.64933 24.6796 12.2019 23.1519C13.7988 22.6155 14.7394 21.3651 15.2102 19.8006C15.4491 19.0166 15.8446 18.8941 16.5813 19.1181C16.2051 21.0746 15.3563 22.7091 13.5626 23.732C10.8824 25.2632 7.05695 24.768 5.04445 22.64C3.8457 21.4054 3.35045 19.8409 3.1282 18.1679C3.0932 17.8914 3.0232 17.628 2.9707 17.3629C2.97537 16.9102 2.9777 16.4575 2.9777 16.0049V16.004ZM4.28845 15.6715H15.5514C15.4779 12.084 13.2441 9.53599 10.1912 9.51411C6.83995 9.48786 4.4337 11.9755 4.28845 15.6715Z" fill="#2276FF"/>
<path d="M30.9707 24.201C29.9522 24.46 29.3222 24.2124 28.7569 23.3636L24.7372 17.8021L24.1562 17.0321L19.4618 23.382C18.9254 24.1459 18.3628 24.4784 17.3618 24.208L23.3731 16.1387L17.7766 8.84999C18.7391 8.66274 19.4041 8.75812 19.9947 9.61999L24.1641 15.2506L28.3641 9.65062C28.9022 8.88674 29.4806 8.59624 30.4466 8.87799L28.2766 11.755L25.3366 15.5831C24.9866 16.0206 25.0347 16.3199 25.3567 16.7425L30.9707 24.201Z" fill="#04061F"/>
</svg>
