<svg width="33" height="33" viewBox="0 0 33 33" fill="none" xmlns="http://www.w3.org/2000/svg">
<path d="M5.75145 23.2469L6.77933 23.8404L18.2303 4.00727L17.2024 3.41381L5.75145 23.2469Z" fill="#04061F"/>
<path d="M28.418 21.6624H5.51607V22.8493H28.418V21.6624Z" fill="#04061F"/>
<path d="M5.96923 22.3292L17.4245 28.9431L18.0179 27.9152L6.5627 21.3013L5.96923 22.3292Z" fill="#04061F"/>
<path d="M15.9203 5.09169L27.3756 11.7056L27.9691 10.6777L16.5138 4.06382L15.9203 5.09169Z" fill="#04061F"/>
<path d="M5.97239 10.6732L6.56586 11.7011L18.0211 5.08717L17.4276 4.05929L5.97239 10.6732Z" fill="#04061F"/>
<path d="M15.7134 4.00747L27.1643 23.8405L28.1922 23.2471L16.7413 3.41401L15.7134 4.00747Z" fill="#04061F"/>
<path d="M7.61104 9.88609H6.42413V23.1139H7.61104V9.88609Z" fill="#04061F"/>
<path d="M27.517 9.88609H26.3301V23.1139H27.517V9.88609Z" fill="#04061F"/>
<path d="M16.704 27.5428L17.2224 28.4407L27.1854 22.6884L26.667 21.7906L16.704 27.5428Z" fill="#04061F"/>
<path d="M29.0901 23.5C28.4036 24.6941 26.8735 25.1016 25.6794 24.4152C24.4853 23.7288 24.0778 22.1987 24.7642 21.0046C25.4506 19.8105 26.9808 19.4029 28.1748 20.0894C29.3761 20.7829 29.7836 22.3059 29.0901 23.5Z" fill="#04061F"/>
<path d="M9.16978 11.9954C8.48337 13.1895 6.95324 13.597 5.75916 12.9106C4.56509 12.2242 4.15753 10.6941 4.84394 9.5C5.53036 8.30592 7.06049 7.89836 8.25456 8.58478C9.44864 9.27834 9.8562 10.8013 9.16978 11.9954Z" fill="#04061F"/>
<path d="M4.85114 23.5C4.16472 22.3059 4.57228 20.7829 5.76636 20.0894C6.96043 19.4029 8.48341 19.8105 9.17698 21.0046C9.86339 22.1987 9.45583 23.7216 8.26176 24.4152C7.06053 25.1016 5.53755 24.6941 4.85114 23.5Z" fill="#04061F"/>
<path d="M24.7714 11.9954C24.085 10.8013 24.4925 9.27834 25.6866 8.58478C26.8807 7.89836 28.4037 8.30592 29.0972 9.5C29.7837 10.6941 29.3761 12.2171 28.182 12.9106C26.9879 13.597 25.4578 13.1895 24.7714 11.9954Z" fill="#04061F"/>
<path d="M16.9706 30.5C15.5907 30.5 14.4752 29.3846 14.4752 28.0046C14.4752 26.6246 15.5907 25.5092 16.9706 25.5092C18.3506 25.5092 19.466 26.6246 19.466 28.0046C19.466 29.3774 18.3506 30.5 16.9706 30.5Z" fill="#04061F"/>
<path d="M16.9706 7.4908C15.5907 7.4908 14.4752 6.37538 14.4752 4.9954C14.4752 3.61542 15.5907 2.5 16.9706 2.5C18.3506 2.5 19.466 3.61542 19.466 4.9954C19.466 6.37538 18.3506 7.4908 16.9706 7.4908Z" fill="#04061F"/>
<path d="M5.75232 23.2469L6.78019 23.8404L18.2312 4.00727L17.2033 3.41381L5.75232 23.2469Z" fill="#2276FF"/>
<path d="M28.4189 21.6624H5.51693V22.8493H28.4189V21.6624Z" fill="#2276FF"/>
<path d="M15.7142 4.00747L27.1652 23.8405L28.193 23.2471L16.7421 3.41401L15.7142 4.00747Z" fill="#2276FF"/>
<path d="M29.0909 23.5C28.4045 24.6941 26.8744 25.1016 25.6803 24.4152C24.4862 23.7288 24.0786 22.1987 24.7651 21.0046C25.4515 19.8105 26.9816 19.4029 28.1757 20.0894C29.3769 20.7829 29.7845 22.3059 29.0909 23.5Z" fill="#2276FF"/>
<path d="M4.852 23.5C4.16559 22.3059 4.57314 20.7829 5.76722 20.0894C6.96129 19.4029 8.48428 19.8105 9.17784 21.0046C9.86425 22.1987 9.4567 23.7216 8.26262 24.4152C7.0614 25.1016 5.53841 24.6941 4.852 23.5Z" fill="#2276FF"/>
<path d="M16.9715 7.4908C15.5915 7.4908 14.4761 6.37538 14.4761 4.9954C14.4761 3.61542 15.5915 2.5 16.9715 2.5C18.3515 2.5 19.4669 3.61542 19.4669 4.9954C19.4669 6.37538 18.3515 7.4908 16.9715 7.4908Z" fill="#2276FF"/>
</svg>
