<svg width="33" height="33" viewBox="0 0 33 33" fill="none" xmlns="http://www.w3.org/2000/svg">
<path d="M27.0158 2.5H6.92576C5.52576 2.5 4.40576 3.62 4.40576 5.02V27.98C4.40576 29.38 5.52576 30.5 6.92576 30.5H27.0158C28.4158 30.5 29.5358 29.38 29.5358 27.98V5.02C29.5358 3.62 28.4158 2.5 27.0158 2.5ZM28.1358 27.98C28.1358 28.61 27.6458 29.1 27.0158 29.1H6.92576C6.29576 29.1 5.80576 28.61 5.80576 27.98V5.02C5.80576 4.39 6.29576 3.9 6.92576 3.9H27.0158C27.6458 3.9 28.1358 4.39 28.1358 5.02V27.98Z" fill="#04061F"/>
<path d="M22.0457 14.96C21.4857 14.4 20.4357 13.7 18.6857 13.7C16.7957 13.7 14.8357 14.19 13.4357 14.68V6.70001H10.6357V18.81L12.5957 17.9C12.5957 17.9 15.8157 16.43 18.6157 16.43C20.0157 16.43 20.3657 17.2 20.3657 17.9V26.3H23.1657V17.9C23.2357 17.69 23.2357 16.15 22.0457 14.96Z" fill="#2276FF"/>
<path d="M10.7058 26.3001L13.8558 23.5001L10.7058 20.7001V26.3001ZM18.3358 11.2501H21.1358C22.3958 9.78007 23.0258 8.31007 23.2358 6.70007H20.4358C20.1558 8.31007 19.4558 9.78007 18.3358 11.2501Z" fill="#2276FF"/>
</svg>
