<svg width="25" height="25" viewBox="0 0 25 25" fill="none" xmlns="http://www.w3.org/2000/svg">
<g clip-path="url(#clip0_201_284)">
<path d="M17.566 16.9869C18.4452 16.8959 19.1122 16.138 19.0819 15.2285C19.0516 14.319 18.2936 13.5914 17.3841 13.5914H17.3235C16.3837 13.6217 15.6561 14.4099 15.6864 15.3498C15.7167 15.8045 15.8986 16.1986 16.1714 16.4715C15.1407 18.5027 13.5642 19.9882 11.1995 21.2312C9.59268 22.0801 7.92525 22.3833 6.25783 22.1711C4.89357 21.9892 3.83247 21.3828 3.1655 20.3824C2.19536 18.8968 2.10441 17.29 2.92297 15.6832C3.49899 14.5312 4.4085 13.6823 4.98452 13.2579C4.86325 12.8638 4.68135 12.1968 4.5904 11.7117C0.194448 14.895 0.649202 19.2 1.98314 21.2312C2.9836 22.7471 5.01483 23.6869 7.25828 23.6869C7.86462 23.6869 8.47096 23.6263 9.0773 23.4747C12.9579 22.7168 15.8986 20.4127 17.566 16.9869Z" fill="#04061F"/>
<path d="M22.9017 13.2276C20.5977 10.5294 17.2022 9.04384 13.3216 9.04384H12.8365C12.5637 8.49814 11.9877 8.13434 11.351 8.13434H11.2904C10.3505 8.16466 9.62294 8.95289 9.65326 9.89272C9.68357 10.8022 10.4415 11.5298 11.351 11.5298H11.4116C12.0786 11.4995 12.6546 11.0751 12.8972 10.4991H13.4429C15.747 10.4991 17.9298 11.166 19.9004 12.4697C21.4162 13.4701 22.5076 14.7737 23.114 16.3502C23.6293 17.6235 23.599 18.8665 23.0533 19.9276C22.2044 21.5344 20.7796 22.4136 18.8999 22.4136C17.6872 22.4136 16.5352 22.0498 15.9289 21.7769C15.5954 22.0801 14.989 22.5652 14.5646 22.8683C15.8682 23.4747 17.2022 23.8082 18.4755 23.8082C21.3859 23.8082 23.5384 22.2014 24.3569 20.5946C25.2361 18.8362 25.1755 15.8045 22.9017 13.2276Z" fill="#2276FF"/>
<path d="M7.50084 17.5023C7.53115 18.4118 8.28907 19.1394 9.19858 19.1394H9.25921C10.199 19.109 10.9266 18.3208 10.8963 17.381C10.866 16.4715 10.1081 15.7439 9.19858 15.7439H9.13795C9.07731 15.7439 8.98636 15.7439 8.92573 15.7742C7.68274 13.7126 7.16735 11.4692 7.34925 9.04384C7.47052 7.22483 8.07686 5.64835 9.13795 4.34473C10.0171 3.223 11.7149 2.6773 12.8669 2.64698C16.0805 2.58635 17.4448 6.58818 17.5357 8.19497C17.9298 8.28592 18.5968 8.49814 19.0516 8.64973C18.6878 3.73839 15.6561 1.19177 12.7457 1.19177C10.0171 1.19177 7.50083 3.16237 6.50038 6.07279C5.1058 9.95335 6.01531 13.6823 7.71305 16.6231C7.56147 16.8353 7.47052 17.1688 7.50084 17.5023Z" fill="#17193B"/>
</g>
<defs>
<clipPath id="clip0_201_284">
<rect width="24" height="24" fill="white" transform="translate(0.970703 0.5)"/>
</clipPath>
</defs>
</svg>
