<svg width="25" height="25" viewBox="0 0 25 25" fill="none" xmlns="http://www.w3.org/2000/svg">
<path d="M21.4707 2H4.4707C3.36613 2 2.4707 2.89543 2.4707 4V21C2.4707 22.1046 3.36613 23 4.4707 23H21.4707C22.5753 23 23.4707 22.1046 23.4707 21V4C23.4707 2.89543 22.5753 2 21.4707 2Z" fill="#2276FF"/>
<path fill-rule="evenodd" clip-rule="evenodd" d="M15.4702 18.7108V20.764C15.8039 20.9352 16.1987 21.0634 16.6545 21.149C17.1102 21.2346 17.5906 21.2773 18.0956 21.2773C18.5877 21.2773 19.0552 21.2303 19.4981 21.1362C19.9411 21.0421 20.3294 20.887 20.6632 20.671C20.997 20.455 21.2613 20.1726 21.456 19.824C21.6507 19.4754 21.748 19.0444 21.748 18.5311C21.748 18.1589 21.6924 17.8328 21.5812 17.5526C21.4699 17.2724 21.3094 17.0232 21.0997 16.8051C20.89 16.5869 20.6386 16.3912 20.3455 16.2179C20.0523 16.0447 19.7218 15.8811 19.3537 15.7271C19.0841 15.6159 18.8423 15.5079 18.6284 15.4031C18.4144 15.2982 18.2325 15.1913 18.0827 15.0823C17.9329 14.9732 17.8174 14.8577 17.7361 14.7358C17.6548 14.6138 17.6141 14.4759 17.6141 14.3219C17.6141 14.1807 17.6505 14.0535 17.7233 13.9401C17.796 13.8267 17.8987 13.7294 18.0314 13.6482C18.1641 13.5669 18.3266 13.5038 18.5192 13.4589C18.7118 13.414 18.9258 13.3915 19.1611 13.3915C19.3323 13.3915 19.5131 13.4044 19.7035 13.43C19.894 13.4557 20.0855 13.4952 20.2781 13.5487C20.4707 13.6022 20.6579 13.6696 20.8398 13.7508C21.0216 13.8321 21.1896 13.9262 21.3436 14.0332V12.1146C21.0313 11.9949 20.69 11.9061 20.3198 11.8483C19.9496 11.7906 19.5249 11.7617 19.0456 11.7617C18.5577 11.7617 18.0956 11.8141 17.6591 11.9189C17.2226 12.0237 16.8385 12.1873 16.5068 12.4098C16.1752 12.6322 15.9131 12.9156 15.7205 13.26C15.5279 13.6043 15.4316 14.016 15.4316 14.4951C15.4316 15.1068 15.6082 15.6287 15.9612 16.0608C16.3143 16.4928 16.8502 16.8585 17.5692 17.158C17.8516 17.2735 18.1148 17.3868 18.3588 17.498C18.6027 17.6093 18.8135 17.7248 18.991 17.8445C19.1686 17.9643 19.3088 18.0948 19.4115 18.236C19.5142 18.3771 19.5656 18.5375 19.5656 18.7172C19.5656 18.8498 19.5334 18.9728 19.4693 19.0861C19.4051 19.1995 19.3077 19.2978 19.1772 19.3813C19.0467 19.4647 18.884 19.5299 18.6893 19.577C18.4946 19.624 18.2668 19.6475 18.0057 19.6475C17.5606 19.6475 17.1199 19.5695 16.6834 19.4133C16.2469 19.2572 15.8425 19.023 15.4702 18.7108ZM12.0183 13.6518H14.6523V11.9668H7.31055V13.6518H9.93169V21.1543H12.0183V13.6518Z" fill="#17193B"/>
</svg>
